<svg width="286" height="286" viewBox="0 0 286 286" fill="none" xmlns="http://www.w3.org/2000/svg">
<g clip-path="url(#clip0_4_6438)">
<path d="M273.242 70.8315C273.242 70.8315 256.103 28.2459 220.559 11.3497C185.015 -5.54648 164.061 7.96522 138.67 24.868C113.279 41.7708 54.8742 29.5997 30.7544 43.7949C6.63461 57.9901 -4.79576 92.4594 7.91837 130.984C20.6325 169.508 53.609 198.595 45.9867 217.522C38.3644 236.448 110.1 306.103 169.77 280.381C229.44 254.659 213.591 226.308 240.871 213.467C268.151 200.625 287.21 166.149 285.926 124.247C284.642 82.3453 273.242 70.8315 273.242 70.8315Z" fill="#2DACD4"/>
<path opacity="0.8" d="M273.242 70.8315C273.242 70.8315 256.103 28.2459 220.559 11.3497C185.015 -5.54648 164.061 7.96522 138.67 24.868C113.279 41.7708 54.8742 29.5997 30.7544 43.7949C6.63461 57.9901 -4.79576 92.4594 7.91837 130.984C20.6325 169.508 53.609 198.595 45.9867 217.522C38.3644 236.448 110.1 306.103 169.77 280.381C229.44 254.659 213.591 226.308 240.871 213.467C268.151 200.625 287.21 166.149 285.926 124.247C284.642 82.3453 273.242 70.8315 273.242 70.8315Z" fill="white"/>
<path d="M210.838 69.3392L206.691 52.1933V47.501H200.821V52.1933L196.643 69.3392C196.578 69.608 196.571 69.889 196.624 70.1608C196.677 70.4326 196.787 70.688 196.947 70.9074C197.107 71.1268 197.311 71.3045 197.545 71.4268C197.779 71.5491 198.036 71.6128 198.297 71.6131H209.153C209.416 71.6179 209.677 71.5579 209.915 71.4377C210.153 71.3176 210.362 71.1406 210.525 70.9205C210.688 70.7005 210.801 70.4432 210.855 70.1689C210.91 69.8947 210.904 69.6107 210.838 69.3392Z" fill="#BDBDBD"/>
<path d="M207.425 60.6709H200.019L197.877 69.6743C197.86 69.7452 197.858 69.8196 197.871 69.8914C197.885 69.9633 197.915 70.0307 197.957 70.0883C197.999 70.1456 198.052 70.192 198.113 70.2239C198.174 70.2558 198.241 70.2724 198.309 70.2724H209.166C209.234 70.2724 209.302 70.2559 209.364 70.224C209.426 70.1921 209.481 70.1458 209.524 70.0883C209.566 70.0307 209.596 69.9633 209.61 69.8914C209.623 69.8196 209.622 69.7452 209.604 69.6743L207.425 60.6709Z" fill="#808080"/>
<path d="M235.884 69.3392L231.736 52.1933V47.501H225.867V52.1933L221.719 69.3392C221.654 69.608 221.648 69.889 221.701 70.1608C221.754 70.4326 221.864 70.688 222.024 70.9074C222.183 71.1268 222.388 71.3045 222.622 71.4268C222.856 71.5491 223.113 71.6128 223.373 71.6131H234.23C234.491 71.6128 234.748 71.5491 234.982 71.4268C235.216 71.3045 235.42 71.1268 235.58 70.9074C235.739 70.688 235.85 70.4326 235.903 70.1608C235.955 69.889 235.949 69.608 235.884 69.3392Z" fill="#BDBDBD"/>
<path d="M232.489 60.6709H225.114L222.935 69.6743C222.918 69.7453 222.917 69.8194 222.931 69.8911C222.945 69.9627 222.974 70.03 223.017 70.0877C223.059 70.1455 223.113 70.1921 223.175 70.2241C223.237 70.2561 223.305 70.2726 223.374 70.2724H234.23C234.299 70.2726 234.367 70.2561 234.428 70.2241C234.49 70.1921 234.544 70.1455 234.587 70.0877C234.629 70.03 234.658 69.9627 234.672 69.8911C234.687 69.8194 234.685 69.7453 234.668 69.6743L232.489 60.6709Z" fill="#808080"/>
<path d="M203.327 51.4768V0.328125" stroke="#BDBDBD" stroke-linecap="round" stroke-linejoin="round"/>
<path d="M261.744 71.5342H102.744V171.242H261.744V71.5342Z" fill="#DBDBDB"/>
<path d="M257.35 75.4971H107.138V171.249H257.35V75.4971Z" fill="#BDBDBD"/>
<path d="M187.373 114.087L192.785 122.006H234.699L240.457 114.087H187.373Z" fill="#808080"/>
<path d="M230.681 118.602H198.143V122.006H230.681V118.602Z" fill="#5C5C5C"/>
<path d="M182.534 100.937H155.828V109.546H182.534V100.937Z" fill="#808080"/>
<path d="M198.328 89.2715H194.378V99.563H198.328V89.2715Z" fill="#263238" stroke="#263238" stroke-linecap="round" stroke-linejoin="round"/>
<path d="M192.779 94.6797H199.932C200.554 94.6797 201.151 94.9428 201.591 95.4111C202.031 95.8795 202.278 96.5147 202.278 97.177V110.498H190.428V97.177C190.428 96.8485 190.489 96.5232 190.607 96.2198C190.725 95.9164 190.898 95.6408 191.117 95.4088C191.335 95.1768 191.595 94.993 191.88 94.8679C192.165 94.7428 192.471 94.6788 192.779 94.6797Z" fill="#DBDBDB"/>
<path d="M214.597 89.2715H210.647V99.563H214.597V89.2715Z" fill="#263238" stroke="#263238" stroke-linecap="round" stroke-linejoin="round"/>
<path d="M209.048 94.6797H216.202C216.824 94.6797 217.42 94.9428 217.86 95.4111C218.3 95.8795 218.547 96.5147 218.547 97.177V110.498H206.697V97.177C206.697 96.8485 206.758 96.5232 206.876 96.2198C206.994 95.9164 207.167 95.6408 207.386 95.4088C207.604 95.1768 207.864 94.993 208.149 94.8679C208.434 94.7428 208.74 94.6788 209.048 94.6797Z" fill="#DBDBDB"/>
<path d="M230.866 89.2715H226.916V99.563H230.866V89.2715Z" fill="#263238" stroke="#263238" stroke-linecap="round" stroke-linejoin="round"/>
<path d="M225.311 94.6797H232.465C233.087 94.6797 233.683 94.9428 234.123 95.4111C234.563 95.8795 234.81 96.5147 234.81 97.177V110.498H222.96V97.177C222.96 96.8485 223.021 96.5232 223.139 96.2198C223.257 95.9164 223.431 95.6408 223.649 95.4088C223.868 95.1768 224.127 94.993 224.412 94.8679C224.697 94.7428 225.003 94.6788 225.311 94.6797Z" fill="#DBDBDB"/>
<path d="M182.534 93.5234H155.828V100.93H182.534V93.5234Z" fill="#A3A3A3"/>
<path d="M257.35 108.967H107.138V115.447H257.35V108.967Z" fill="#DBDBDB"/>
<path d="M231.588 138.85H221.195V172.596H231.588V138.85Z" fill="#263238" stroke="#263238" stroke-linecap="round" stroke-linejoin="round"/>
<path d="M250.604 122.381H202.179V165.039H250.604V122.381Z" fill="#545454"/>
<path d="M247.234 125.351H205.549V162.067H247.234V125.351Z" fill="#DBDBDB"/>
<path d="M141.12 150.725H128.443V153.695H141.12V150.725Z" fill="#263238" stroke="#263238" stroke-linecap="round" stroke-linejoin="round"/>
<path d="M111.335 172.326V165.669C111.335 164.706 111.529 163.755 111.904 162.878C112.279 162.002 112.825 161.221 113.507 160.589L121.222 153.426H149.366L156.698 160.602C157.344 161.234 157.859 162 158.211 162.854C158.564 163.708 158.747 164.631 158.748 165.564V173.404L111.335 172.326Z" fill="#C4C4C4"/>
<path d="M148.607 161.93C148.607 164.69 142.534 166.925 135.029 166.925C127.524 166.925 121.451 164.69 121.451 161.93C121.451 159.17 127.524 156.936 135.029 156.936C142.534 156.936 148.607 159.17 148.607 161.93Z" fill="#DBDBDB"/>
<path d="M262.374 171.242H102.744V238.636H262.374V171.242Z" fill="#DBDBDB"/>
<path d="M102.688 206.336H261.658" stroke="#808080" stroke-linecap="round" stroke-linejoin="round"/>
<path d="M262.368 171.242H212.727V238.636H262.368V171.242Z" fill="#BDBDBD"/>
<path d="M265.466 171.242H99.6514V177.722H265.466V171.242Z" fill="#808080"/>
<path d="M180.781 177.781L183.287 182.704H197.532L200.05 177.781H180.781Z" fill="#808080"/>
<path d="M180.781 206.125L183.287 211.047H197.532L200.05 206.125H180.781Z" fill="#808080"/>
<path d="M127.283 177.781L129.789 182.704H144.04L146.552 177.781H127.283Z" fill="#808080"/>
<path d="M127.283 206.125L129.789 211.047H144.04L146.552 206.125H127.283Z" fill="#808080"/>
<path d="M200.167 17.8818H244.296" stroke="#BDBDBD" stroke-linecap="round" stroke-linejoin="round"/>
<path d="M196.26 17.8818H200.167" stroke="#BDBDBD" stroke-width="3" stroke-linecap="round" stroke-linejoin="round"/>
<path d="M228.755 18.3809V49.9717" stroke="#BDBDBD" stroke-linecap="round" stroke-linejoin="round"/>
<path d="M64.0521 234.45V138.271H44.913V234.45H38.772V238.466H44.913H64.0521H70.1993V234.45H64.0521Z" fill="#C4C4C4" stroke="#B8B8B8" stroke-linecap="round" stroke-linejoin="round"/>
<path d="M103.608 138.271H5.35742V216.43H103.608V138.271Z" fill="#C4C4C4" stroke="#B8B8B8" stroke-linecap="round" stroke-linejoin="round"/>
<path d="M99.2877 141.709H9.67773V212.994H99.2877V141.709Z" fill="white" stroke="#B8B8B8" stroke-linecap="round" stroke-linejoin="round"/>
<path d="M49.5176 142.74C49.5176 142.74 49.7522 151.231 48.7955 154.294C47.8389 157.356 41.5435 157.382 34.7729 159.183C28.0024 160.984 22.6883 166.675 21.4787 177.229C21.1577 180.042 17.3682 211.725 17.3682 211.725" stroke="#B8B8B8" stroke-linecap="round" stroke-linejoin="round"/>
<path d="M65.1815 142.74C65.1815 142.74 64.9408 151.231 65.9036 154.32C66.8665 157.409 73.1556 157.409 79.9262 159.209C86.6968 161.01 92.0108 166.675 93.2205 177.229C93.5414 180.042 97.331 211.725 97.331 211.725" stroke="#B8B8B8" stroke-linecap="round" stroke-linejoin="round"/>
<path d="M29.2119 211.725C29.2119 211.725 30.903 203.227 31.3906 198.851C31.8782 194.474 33.5631 186.239 33.5631 186.239C33.5631 186.239 33.0817 197.05 34.5321 202.459C35.3505 205.416 35.9957 208.426 36.4639 211.469" stroke="#B8B8B8" stroke-linecap="round" stroke-linejoin="round"/>
<path d="M83.8457 211.725C83.8457 211.725 82.1546 203.227 81.6671 198.851C81.1795 194.474 79.4945 186.239 79.4945 186.239C79.4945 186.239 79.9759 197.05 78.5256 202.459C77.7071 205.416 77.0619 208.426 76.5938 211.469" stroke="#B8B8B8" stroke-linecap="round" stroke-linejoin="round"/>
<path d="M33.563 193.64C33.5648 195.732 34.0524 197.791 34.9821 199.633C35.9119 201.476 37.2552 203.046 38.8923 204.202C40.5294 205.359 42.4097 206.066 44.3657 206.262C46.3217 206.458 48.2929 206.136 50.1037 205.324" stroke="#B8B8B8" stroke-linecap="round" stroke-linejoin="round"/>
<path d="M79.4699 193.64C79.4681 195.732 78.9805 197.791 78.0508 199.633C77.121 201.476 75.7777 203.046 74.1406 204.202C72.5035 205.359 70.6232 206.066 68.6672 206.262C66.7112 206.458 64.74 206.136 62.9292 205.324" stroke="#B8B8B8" stroke-linecap="round" stroke-linejoin="round"/>
<path d="M32.785 235.291L26.681 210.049V203.148H18.0403V210.049L11.9363 235.291C11.8407 235.69 11.8324 236.106 11.9121 236.509C11.9919 236.911 12.1575 237.289 12.3961 237.612C12.6348 237.935 12.9401 238.196 13.2885 238.374C13.6368 238.551 14.0189 238.641 14.4051 238.636H30.3533C30.7368 238.636 31.1152 238.543 31.4595 238.363C31.8038 238.183 32.1049 237.922 32.3396 237.599C32.5744 237.276 32.7366 236.9 32.8138 236.5C32.891 236.1 32.8811 235.687 32.785 235.291Z" fill="white" stroke="#263238" stroke-miterlimit="10"/>
<path d="M27.7921 222.535H16.9357L13.7325 235.784C13.704 235.887 13.6998 235.996 13.7203 236.102C13.7407 236.207 13.7852 236.306 13.8497 236.389C13.9089 236.477 13.9878 236.549 14.0794 236.597C14.1709 236.645 14.2723 236.668 14.3743 236.665H30.3534C30.4544 236.667 30.5546 236.644 30.645 236.595C30.7354 236.547 30.8133 236.476 30.8719 236.389C30.9375 236.306 30.983 236.208 31.0046 236.103C31.0261 235.997 31.0229 235.888 30.9953 235.784L27.7921 222.535Z" fill="#2DACD4"/>
<path d="M45.0484 214.755V200.191H37.025V214.755C34.4776 215.757 32.3425 217.682 30.9934 220.191C29.6442 222.701 29.167 225.636 29.6452 228.482C30.1234 231.329 31.5266 233.906 33.6091 235.762C35.6917 237.618 38.3209 238.635 41.0367 238.635C43.7525 238.635 46.3817 237.618 48.4643 235.762C50.5468 233.906 51.95 231.329 52.4282 228.482C52.9064 225.636 52.4292 222.701 51.08 220.191C49.7309 217.682 47.5958 215.757 45.0484 214.755Z" fill="white" stroke="#263238" stroke-miterlimit="10"/>
<path d="M31.1308 223.192C30.8449 224.205 30.6994 225.257 30.6987 226.314C30.6987 229.233 31.7879 232.033 33.7266 234.098C35.6654 236.162 38.2949 237.322 41.0367 237.322C43.7785 237.322 46.408 236.162 48.3467 234.098C50.2854 232.033 51.3746 229.233 51.3746 226.314C51.3761 225.257 51.2326 224.205 50.9488 223.192H31.1308Z" fill="#2DACD4"/>
<path d="M56.5715 222.884V196.176H51.276V222.884C49.5956 223.545 48.1872 224.815 47.2974 226.471C46.4075 228.127 46.0929 230.063 46.4085 231.941C46.7241 233.818 47.6498 235.518 49.0237 236.743C50.3976 237.967 52.1321 238.638 53.9237 238.638C55.7153 238.638 57.4498 237.967 58.8237 236.743C60.1976 235.518 61.1234 233.818 61.439 231.941C61.7546 230.063 61.4399 228.127 60.5501 226.471C59.6602 224.815 58.2519 223.545 56.5715 222.884Z" fill="white" stroke="#263238" stroke-miterlimit="10"/>
<path d="M47.3817 228.443C47.1059 229.441 47.0344 230.49 47.1723 231.519C47.3101 232.549 47.6539 233.535 48.1805 234.41C48.7071 235.286 49.4042 236.031 50.2246 236.595C51.045 237.159 51.9697 237.529 52.9359 237.68C53.9022 237.83 54.8875 237.758 55.8254 237.468C56.7632 237.178 57.6317 236.677 58.3719 235.999C59.1122 235.321 59.7071 234.481 60.1163 233.537C60.5255 232.593 60.7395 231.566 60.7438 230.527C60.7448 229.83 60.6492 229.137 60.4599 228.47L47.3817 228.443Z" fill="#2DACD4"/>
<path d="M278.748 238.637H0.308594" stroke="#263238" stroke-linecap="round" stroke-linejoin="round"/>
<path d="M98.9169 164.415L68.6499 177.795V227.662H80.0741V180.838L101.201 168.371L98.9169 164.415Z" fill="white" stroke="#263238" stroke-linecap="round" stroke-linejoin="round"/>
<path d="M114.699 211.89C114.492 211.792 114.316 211.632 114.193 211.429C114.069 211.227 114.004 210.991 114.004 210.75C114.004 210.509 114.069 210.273 114.193 210.07C114.316 209.868 114.492 209.708 114.699 209.61C114.699 209.277 114.574 208.958 114.353 208.722C114.132 208.487 113.832 208.354 113.52 208.354H103.447C103.468 209.646 103.049 210.902 102.268 211.89C102.475 211.988 102.651 212.148 102.774 212.351C102.897 212.553 102.963 212.789 102.963 213.03C102.963 213.272 102.897 213.508 102.774 213.71C102.651 213.912 102.475 214.072 102.268 214.171C102.475 214.269 102.651 214.429 102.774 214.631C102.897 214.834 102.963 215.07 102.963 215.311C102.963 215.552 102.897 215.788 102.774 215.99C102.651 216.193 102.475 216.353 102.268 216.451C102.475 216.549 102.651 216.709 102.774 216.912C102.897 217.114 102.963 217.35 102.963 217.591C102.963 217.832 102.897 218.068 102.774 218.271C102.651 218.473 102.475 218.633 102.268 218.731C102.265 218.898 102.293 219.065 102.351 219.22C102.409 219.375 102.495 219.517 102.605 219.636C102.715 219.755 102.846 219.85 102.99 219.915C103.135 219.98 103.29 220.013 103.447 220.013H113.514C113.482 218.722 113.902 217.464 114.692 216.484C114.486 216.386 114.31 216.226 114.187 216.023C114.063 215.821 113.998 215.585 113.998 215.344C113.998 215.102 114.063 214.866 114.187 214.664C114.31 214.462 114.486 214.302 114.692 214.203C114.486 214.105 114.31 213.945 114.187 213.743C114.063 213.54 113.998 213.304 113.998 213.063C113.998 212.822 114.063 212.586 114.187 212.384C114.31 212.181 114.486 212.021 114.692 211.923L114.699 211.89Z" fill="#263238" stroke="#263238" stroke-linecap="round" stroke-linejoin="round"/>
<path d="M123.901 219.756H68.4341V231.841H123.901V219.756Z" fill="white" stroke="#263238" stroke-linecap="round" stroke-linejoin="round"/>
<path d="M123.901 225.454H68.4341V231.842H123.901V225.454Z" fill="#263238" stroke="#263238" stroke-linecap="round" stroke-linejoin="round"/>
<path d="M78.7167 231.612H72.0757V238.224H78.7167V231.612Z" fill="#263238" stroke="#263238" stroke-linecap="round" stroke-linejoin="round"/>
<path d="M98.8495 231.612H92.2085V238.224H98.8495V231.612Z" fill="#263238" stroke="#263238" stroke-linecap="round" stroke-linejoin="round"/>
<path d="M118.982 231.612H112.341V238.224H118.982V231.612Z" fill="#263238" stroke="#263238" stroke-linecap="round" stroke-linejoin="round"/>
<path d="M124.975 196.492H75.7168V199.226H124.975V196.492Z" fill="white" stroke="#263238" stroke-linecap="round" stroke-linejoin="round"/>
<path d="M122.191 199.002H80V203.109H122.191V199.002Z" fill="#263238" stroke="#263238" stroke-linecap="round" stroke-linejoin="round"/>
<path d="M104.369 157.355L108.997 162.733L138.051 134.385L133.423 129.007L104.369 157.355Z" fill="#263238" stroke="#263238" stroke-linecap="round" stroke-linejoin="round"/>
<path d="M103.371 156.2L109.993 163.895L124.308 149.927L117.687 142.232L103.371 156.2Z" fill="#263238" stroke="#263238" stroke-linecap="round" stroke-linejoin="round"/>
<path d="M104.62 187.312H110.045V172.413H104.62V187.312Z" fill="#263238" stroke="#263238" stroke-linecap="round" stroke-linejoin="round"/>
<path d="M105.2 190.012H109.416V187.521H105.2V190.012Z" fill="#263238" stroke="#263238" stroke-linecap="round" stroke-linejoin="round"/>
<path d="M94.0008 181.524L98.9668 183.85L104.6 170.212L99.6336 167.886L94.0008 181.524Z" fill="#263238" stroke="#263238" stroke-linecap="round" stroke-linejoin="round"/>
<path d="M93.5055 184.243L97.3643 186.05L98.306 183.77L94.4473 181.963L93.5055 184.243Z" fill="#263238" stroke="#263238" stroke-linecap="round" stroke-linejoin="round"/>
<path d="M107.12 150.909L115.816 160.313L114.359 175.968L96.0843 171.104L94.5537 157.908L107.12 150.909Z" fill="white" stroke="#263238" stroke-linecap="round" stroke-linejoin="round"/>
<path d="M96.084 166.583L114.359 171.617V175.968L96.084 171.104V166.583Z" fill="#263238" stroke="#263238" stroke-linecap="round" stroke-linejoin="round"/>
<path d="M159.1 210.713L163.667 238.663H254.659C251.752 221.925 242.877 173.063 236.643 162.009C229.101 148.616 212.863 137.661 206.913 134.98C200.964 132.298 196.94 130.432 196.94 130.432C196.94 130.432 180.843 128.408 168.493 143.99C168.493 143.99 153.631 160.794 149.286 168.102C144.941 175.409 137.745 207.441 137.745 207.441C137.745 207.441 134.776 206.225 133.863 207.927C132.949 209.629 131.801 211.824 131.345 212.797C130.888 213.769 121.963 216.727 120.112 218.153C98.5655 235.364 109.903 240.661 111.588 236.961L142.065 238.151C142.065 238.151 153.73 224.002 156.02 222.779C158.31 221.557 159.1 210.713 159.1 210.713Z" fill="#2DACD4" stroke="#263238" stroke-linecap="round" stroke-linejoin="round"/>
<path d="M159.099 210.713L151.496 178.57" stroke="#263238" stroke-linecap="round" stroke-linejoin="round"/>
<path d="M142.003 209.892C145.367 212.303 151.804 216.831 151.379 215.806C150.805 214.433 148.651 212.593 148.219 212.29" stroke="#263238" stroke-linecap="round" stroke-linejoin="round"/>
<path d="M140.022 208.459L140.818 209.037" stroke="#263238" stroke-linecap="round" stroke-linejoin="round"/>
<path d="M139.985 221.812C140.579 222.514 141.216 223.172 141.892 223.784" stroke="#263238" stroke-linecap="round" stroke-linejoin="round"/>
<path d="M132.69 213.664C132.69 213.664 135.986 217.41 138.64 220.334" stroke="#263238" stroke-linecap="round" stroke-linejoin="round"/>
<path d="M149.848 190.438L153.248 193.153" stroke="#263238" stroke-linecap="round" stroke-linejoin="round"/>
<path d="M157.316 203.609L151.021 192.509" stroke="#263238" stroke-linecap="round" stroke-linejoin="round"/>
<path d="M166.975 144.587C166.975 144.587 161.21 162.489 160.568 165.387L163.771 167.779C163.771 167.779 157.686 177.492 158.007 178.688C158.266 179.654 165.024 202.176 168.53 212.901" fill="#2DACD4"/>
<path d="M166.975 144.587C166.975 144.587 161.21 162.489 160.568 165.387L163.771 167.779C163.771 167.779 157.686 177.492 158.007 178.688C158.266 179.654 165.024 202.176 168.53 212.901" stroke="#263238" stroke-linecap="round" stroke-linejoin="round"/>
<path d="M189.712 128.9C189.712 128.9 190.675 126.85 191.477 127.192C192.28 127.533 196.76 129.242 196.921 130.432C197.081 131.621 198.68 158.237 198.68 158.237L186.336 161.812L192.101 170.513C192.101 170.513 188.397 181.423 179.615 187.39C174.748 190.728 169.723 193.799 164.562 196.59L168.882 186.187" fill="#2DACD4"/>
<path d="M189.712 128.9C189.712 128.9 190.675 126.85 191.477 127.192C192.28 127.533 196.76 129.242 196.921 130.432C197.081 131.621 198.68 158.237 198.68 158.237L186.336 161.812L192.101 170.513C192.101 170.513 188.397 181.423 179.615 187.39C174.748 190.728 169.723 193.799 164.562 196.59L168.882 186.187" stroke="#263238" stroke-linecap="round" stroke-linejoin="round"/>
<path d="M169.277 215.149C169.746 216.53 170.11 217.555 170.338 218.08" stroke="#263238" stroke-linecap="round" stroke-linejoin="round"/>
<path d="M131.171 222.115C131.171 222.115 119.877 218.994 117.822 221.143C107.644 231.789 106.28 235.765 106.601 238.229C106.817 239.951 130.221 238.887 130.221 238.887C130.221 238.887 134.813 230.803 135.72 227.57C136.627 224.337 133.498 222.976 131.171 222.115Z" fill="white" stroke="#263238" stroke-linecap="round" stroke-linejoin="round"/>
<path d="M110.545 238.677C117.525 226.236 115.378 228.977 119.735 223.824" stroke="#263238" stroke-linecap="round" stroke-linejoin="round"/>
<path d="M116.408 238.795C116.408 238.795 122.963 227.136 126.215 223.824" stroke="#263238" stroke-linecap="round" stroke-linejoin="round"/>
<path d="M124.136 238.795C124.136 238.795 129.499 228.497 131.48 225.48" stroke="#263238" stroke-linecap="round" stroke-linejoin="round"/>
<path d="M135.763 228.346C136.657 229.238 137.494 230.193 138.269 231.204C139.263 232.565 140.25 235.148 140.25 236.462C140.25 237.776 138.399 238.946 137.782 238.946C136.683 238.946 137.251 238.946 130.196 238.9L134.992 229.253L135.763 228.346Z" fill="white" stroke="#263238" stroke-linecap="round" stroke-linejoin="round"/>
<path d="M132.529 234.47C132.529 234.47 135.14 233.412 136.634 233.544" stroke="#263238" stroke-linecap="round" stroke-linejoin="round"/>
<path d="M130.381 115.572C130.381 115.572 132.369 124.392 133.363 125.798C134.356 127.205 137.337 130.398 137.683 132.324C138.028 134.25 137.183 141.847 138.843 142.556C140.503 143.266 144.305 142.556 144.305 142.556C144.305 142.556 152.946 151.376 154.409 151.376C155.871 151.376 164.185 144.318 164.185 144.318L168.82 147.847C168.82 147.847 166.172 159.84 166.833 168.837C167.493 177.834 168.82 185.234 170.147 183.828C171.474 182.421 184.558 160.721 186.706 149.963C188.854 139.205 191.181 129.15 191.181 129.15L183.565 125.976C183.565 125.976 171.968 121.921 164.679 120.863C157.39 119.805 148.632 114.863 142.151 111.511C135.671 108.159 131.554 108.337 130.727 109.047C129.9 109.756 130.381 115.572 130.381 115.572Z" fill="white" stroke="#263238" stroke-linecap="round" stroke-linejoin="round"/>
<path d="M134.146 130.432C138.427 126.002 143.416 122.421 148.879 119.857" stroke="#263238" stroke-width="3" stroke-linecap="round" stroke-linejoin="round"/>
<path d="M135.264 129.242C135.264 129.242 137.665 132.817 139.109 134.184C140.553 135.551 143.114 135.722 146.157 133.843C149.2 131.963 150.638 124.642 150.156 122.592C149.675 120.541 147.274 120.863 147.274 120.863L135.264 129.242Z" stroke="#263238" stroke-linecap="round" stroke-linejoin="round"/>
<path d="M130.548 111.163C130.548 111.163 143.133 116.42 147.274 120.863C151.415 125.305 169.141 124.74 170.795 124.918C172.449 125.095 173.449 126.679 179.436 127.737C185.422 128.795 192.02 126.153 193.841 120.16C195.662 114.166 187.718 110.105 187.052 109.224C186.385 108.344 179.102 86.9982 170.653 81.7078C162.204 76.4175 150.613 77.4756 141.503 84.882C132.393 92.2885 128.252 100.93 127.258 102.521C126.265 104.111 120.136 105.872 122.784 110.631C125.432 115.389 129.906 115.395 130.406 115.573C130.906 115.75 130.548 111.163 130.548 111.163Z" fill="#263238" stroke="#263238" stroke-linecap="round" stroke-linejoin="round"/>
<path d="M142.33 128.999C142.947 129.952 143.2 130.97 142.842 131.227C142.485 131.483 141.67 130.951 141.028 129.991C140.386 129.032 140.152 128.02 140.51 127.763C140.867 127.507 141.676 128.039 142.33 128.999Z" fill="#263238"/>
<path d="M137.665 125.661C137.665 125.661 138.948 122.079 141.831 121.908" stroke="#263238" stroke-linecap="round" stroke-linejoin="round"/>
<path d="M169.215 125.147C169.215 125.147 170.018 127.02 169.055 128.387C168.092 129.754 166.012 130.089 166.012 130.089L165.531 135.038" stroke="#263238" stroke-linecap="round" stroke-linejoin="round"/>
<path d="M164.167 144.318L168.252 140.664L168.808 147.847L164.167 144.318Z" fill="#263238" stroke="#263238" stroke-linecap="round" stroke-linejoin="round"/>
<path d="M168.808 147.847L174.98 153.111" stroke="#263238" stroke-linecap="round" stroke-linejoin="round"/>
<path d="M147.885 223.134C147.885 223.134 116.785 220.453 114.952 218.994C113.119 217.535 99.8862 207.618 98.7876 206.836C97.689 206.054 86.1661 206.061 85.2526 206.061C84.3392 206.061 75.9207 210.345 74.8221 212.1C73.7235 213.855 74.637 215.386 75.7356 215.215C76.7829 214.962 77.8137 214.637 78.8215 214.243C78.8215 214.243 77.3588 219.5 77.3588 220.473C77.3588 221.445 79.9201 223.397 79.9201 223.397C79.9201 223.397 78.8215 225.152 79.9201 225.927C81.0187 226.703 83.9442 225.737 83.9442 225.737C83.9442 225.737 87.7893 222.451 88.3386 222.451C88.8879 222.451 93.8254 223.226 93.8254 223.226C93.8254 223.226 99.4974 228.484 102.244 229.851C104.093 230.703 106.08 231.167 108.095 231.218L148.089 240.451L147.885 223.134Z" fill="white" stroke="#263238" stroke-linecap="round" stroke-linejoin="round"/>
<path d="M128.913 229.949C129.53 227.426 129.234 223.982 128.839 221.255C121.994 220.479 115.748 219.625 114.958 218.994C113.107 217.535 99.8926 207.618 98.794 206.836C97.6954 206.054 86.1724 206.061 85.259 206.061C84.3455 206.061 75.9271 210.345 74.8285 212.1C73.7299 213.855 74.6433 215.386 75.7419 215.215C76.7892 214.962 77.82 214.637 78.8278 214.243C78.8278 214.243 77.3651 219.5 77.3651 220.473C77.3651 221.445 79.9264 223.397 79.9264 223.397C79.9264 223.397 78.8278 225.152 79.9264 225.927C81.025 226.703 83.9505 225.737 83.9505 225.737C83.9505 225.737 87.7956 222.451 88.3449 222.451C88.8942 222.451 93.8317 223.226 93.8317 223.226C93.8317 223.226 99.5037 228.484 102.25 229.851C104.1 230.703 106.086 231.167 108.101 231.218L126.456 236.56C127.5 234.459 128.324 232.242 128.913 229.949Z" fill="white" stroke="#263238" stroke-linecap="round" stroke-linejoin="round"/>
<path d="M78.8525 214.242C80.2999 213.163 81.8297 212.216 83.4259 211.41C86.0058 210.095 89.3016 207.73 91.3136 207.9C92.1966 208.007 93.0863 208.036 93.9737 207.986" stroke="#263238" stroke-linecap="round" stroke-linejoin="round"/>
<path d="M79.3213 222.727C79.3213 222.727 78.7041 221.268 79.0004 220.584C79.2966 219.901 80.6915 215.61 81.0124 215.268C81.3334 214.926 91.2331 211.325 92.1219 210.983C92.9149 210.688 93.7684 210.629 94.5906 210.812" stroke="#263238" stroke-linecap="round" stroke-linejoin="round"/>
<path d="M79.9512 223.397C79.9512 223.397 82.8643 219.552 83.7531 218.527C84.6418 217.502 93.5726 215.958 94.6959 215.898" stroke="#263238" stroke-linecap="round" stroke-linejoin="round"/>
<path d="M115.705 227.405C115.705 227.405 115.353 230.994 113.44 232.42" stroke="#263238" stroke-linecap="round" stroke-linejoin="round"/>
<path d="M117.587 225.796C117.587 225.796 117.026 228.425 116.458 230.212" stroke="#263238" stroke-linecap="round" stroke-linejoin="round"/>
<path d="M212.159 148.379C212.159 148.379 203.007 153.978 199.816 161.043C196.625 168.108 199.112 171.262 199.112 171.262L188.373 213.637C188.373 213.637 181.738 214.853 181.51 216.798C181.281 218.744 180.825 220.939 180.825 220.939L174.196 222.404L168.931 220.433L144.694 221.405V243.809C144.694 243.809 205.284 246.299 207.814 246.023C210.345 245.747 211.931 242.369 212.616 239.695C213.301 237.02 232.28 175.889 232.28 175.889" fill="#2DACD4"/>
<path d="M212.159 148.379C212.159 148.379 203.007 153.978 199.816 161.043C196.625 168.108 199.112 171.262 199.112 171.262L188.373 213.637C188.373 213.637 181.738 214.853 181.51 216.798C181.281 218.744 180.825 220.939 180.825 220.939L174.196 222.404L168.931 220.433L144.694 221.405V243.809C144.694 243.809 205.284 246.299 207.814 246.023C210.345 245.747 211.931 242.369 212.616 239.695C213.301 237.02 232.28 175.889 232.28 175.889" stroke="#263238" stroke-linecap="round" stroke-linejoin="round"/>
<path d="M187.107 223.259C189.238 224.587 191.267 226.092 193.174 227.76C197.495 231.657 201.408 231.901 197.976 227.274C195.769 224.447 192.688 222.548 189.286 221.918" stroke="#263238" stroke-linecap="round" stroke-linejoin="round"/>
<path d="M183.114 220.938C183.114 220.938 184.022 221.405 185.392 222.213" stroke="#263238" stroke-linecap="round" stroke-linejoin="round"/>
<path d="M174.424 224.106C174.424 224.106 178.084 231.657 179.454 234.575C180.825 237.493 178.769 228.247 178.769 228.247" stroke="#263238" stroke-linecap="round" stroke-linejoin="round"/>
<path d="M216.794 157.475C217.675 157.274 218.572 157.162 219.473 157.14" stroke="#263238" stroke-linecap="round" stroke-linejoin="round"/>
<path d="M200.723 170.533C200.723 170.533 205.981 162.134 213.461 158.638" stroke="#263238" stroke-linecap="round" stroke-linejoin="round"/>
<path d="M191.335 119.272C191.335 119.272 203.76 115.04 205.58 121.566C207.401 128.092 205.08 128.795 205.08 128.795C205.08 128.795 214.69 123.675 218.004 129.676C221.319 135.676 219.658 135.669 220.985 136.727C222.312 137.785 229.595 132.127 234.236 139.553C238.878 146.979 231.916 154.543 231.916 154.543C231.916 154.543 215.184 140.611 204.253 136.201C193.323 131.792 187.855 130.556 185.04 126.85C182.226 123.143 191.335 119.272 191.335 119.272Z" fill="#263238" stroke="#263238" stroke-linecap="round" stroke-linejoin="round"/>
<path d="M219.702 216.312C219.702 216.312 232.045 209.497 238.686 200.487" stroke="#263238" stroke-linecap="round" stroke-linejoin="round"/>
<path d="M237.878 210.155C238.804 209.681 239.625 209.221 240.285 208.801" stroke="#263238" stroke-linecap="round" stroke-linejoin="round"/>
<path d="M223.361 216.312C223.361 216.312 230.373 213.683 235.785 211.146" stroke="#263238" stroke-linecap="round" stroke-linejoin="round"/>
</g>
<defs>
<clipPath id="clip0_4_6438">
<rect width="286" height="286" fill="white"/>
</clipPath>
</defs>
</svg>
