<svg width="51" height="51" viewBox="0 0 51 51" fill="none" xmlns="http://www.w3.org/2000/svg">
<path d="M15.9375 17C17.6283 17 19.2498 16.3284 20.4453 15.1328C21.6409 13.9373 22.3125 12.3158 22.3125 10.625C22.3125 8.93425 21.6409 7.31274 20.4453 6.11719C19.2498 4.92165 17.6283 4.25 15.9375 4.25C14.2467 4.25 12.6252 4.92165 11.4297 6.11719C10.2341 7.31274 9.5625 8.93425 9.5625 10.625C9.5625 12.3158 10.2341 13.9373 11.4297 15.1328C12.6252 16.3284 14.2467 17 15.9375 17ZM4.25 22.882C4.25 20.8037 5.93087 19.125 8.007 19.125H18.1369C17.3897 20.4166 16.9975 21.8829 17 23.375C16.9986 24.5811 17.2545 25.7737 17.7507 26.873C18.2468 27.9723 18.9718 28.9532 19.8773 29.75H17.5695C16.3718 29.75 15.2027 30.1154 14.2182 30.7974C13.2336 31.4793 12.4805 32.4453 12.0594 33.5665C8.87613 32.7887 6.902 31.0526 5.73962 29.1189C4.25 26.639 4.25 24.089 4.25 23.6449V22.882ZM34 23.375C34.0026 21.8828 33.6104 20.4166 32.8631 19.125H42.993C45.0713 19.125 46.75 20.8059 46.75 22.882V23.647C46.75 24.0869 46.75 26.639 45.2625 29.1189C44.098 31.0526 42.1239 32.7887 38.9406 33.5665C38.5198 32.4452 37.7667 31.479 36.7821 30.797C35.7975 30.115 34.6282 29.7497 33.4305 29.75H31.1227C32.0282 28.9532 32.7532 27.9723 33.2493 26.873C33.7455 25.7737 34.0014 24.5811 34 23.375ZM41.4375 10.625C41.4375 12.3158 40.7659 13.9373 39.5703 15.1328C38.3748 16.3284 36.7533 17 35.0625 17C33.3717 17 31.7502 16.3284 30.5547 15.1328C29.3591 13.9373 28.6875 12.3158 28.6875 10.625C28.6875 8.93425 29.3591 7.31274 30.5547 6.11719C31.7502 4.92165 33.3717 4.25 35.0625 4.25C36.7533 4.25 38.3748 4.92165 39.5703 6.11719C40.7659 7.31274 41.4375 8.93425 41.4375 10.625ZM13.8125 35.632C13.8125 33.5537 15.4934 31.875 17.5695 31.875H33.4305C35.5066 31.875 37.1875 33.5559 37.1875 35.632V36.397C37.1875 36.8369 37.1875 39.389 35.7 41.8689C34.1211 44.4911 31.0526 46.75 25.5 46.75C19.9474 46.75 16.8767 44.4911 15.3 41.8689C13.8125 39.389 13.8125 36.839 13.8125 36.3949V35.632ZM25.5 29.75C26.3372 29.75 27.1662 29.5851 27.9396 29.2647C28.7131 28.9444 29.4158 28.4748 30.0078 27.8828C30.5998 27.2908 31.0694 26.5881 31.3897 25.8146C31.7101 25.0412 31.875 24.2122 31.875 23.375C31.875 22.5378 31.7101 21.7088 31.3897 20.9354C31.0694 20.1619 30.5998 19.4592 30.0078 18.8672C29.4158 18.2752 28.7131 17.8056 27.9396 17.4853C27.1662 17.1649 26.3372 17 25.5 17C23.8092 17 22.1877 17.6716 20.9922 18.8672C19.7966 20.0627 19.125 21.6842 19.125 23.375C19.125 25.0658 19.7966 26.6873 20.9922 27.8828C22.1877 29.0784 23.8092 29.75 25.5 29.75Z" fill="#44AECA"/>
</svg>
