<svg width="51" height="51" viewBox="0 0 51 51" fill="none" xmlns="http://www.w3.org/2000/svg">
<path d="M21.655 2.73218C18.8759 2.77899 16.3658 4.43649 15.2302 6.99944L28.8269 11.1063C29.4246 7.54132 27.283 4.08487 23.8365 3.03599C23.2189 2.84872 22.5714 2.74612 21.924 2.73218H21.655ZM14.7123 8.71671C14.1047 12.2917 16.2463 15.7581 19.7027 16.804C23.1691 17.8499 26.8646 16.1366 28.3189 12.8196L14.7123 8.71671ZM41.1586 13.1284C38.6384 13.1384 35.959 14.3536 33.9369 17.2124L21.5056 34.8333C18.1687 39.5548 19.623 44.4954 22.9101 46.8263C26.2072 49.1671 31.3371 48.8981 34.674 44.1766L47.0953 26.5657C50.4322 21.8343 48.9779 16.9036 45.6908 14.5628C44.4556 13.6862 42.9715 13.1782 41.4076 13.1284H41.1586ZM40.9793 14.8517C41.1088 14.8517 41.2382 14.8516 41.3578 14.8616C42.563 14.9114 43.6986 15.3397 44.6548 16.027C47.2148 17.8399 48.4998 21.4557 45.6211 25.5298L39.1963 34.644C35.6302 33.6878 31.0482 30.4306 28.9664 27.3725L35.4111 18.2483C37.0945 15.8677 39.0966 14.8915 40.9793 14.8517ZM9.08932 22.4419C8.13108 22.4518 7.18578 22.6511 6.30723 23.0395C3.00916 24.4839 1.29289 28.1694 2.29895 31.6358L15.3199 25.9481C14.015 23.7468 11.6443 22.412 9.08932 22.4419ZM16.0271 27.5817L3.00817 33.2794C4.84596 36.4071 8.71578 37.6622 12.0328 36.2179C15.3398 34.7636 17.0531 31.0581 16.0271 27.5817Z" fill="#44AECA"/>
</svg>
