<svg width="286" height="286" viewBox="0 0 286 286" fill="none" xmlns="http://www.w3.org/2000/svg">
<path d="M257.343 227.937H238.398V228.08H257.343V227.937Z" fill="#EBEBEB"/>
<path d="M189.458 229.492H184.487V229.635H189.458V229.492Z" fill="#EBEBEB"/>
<path d="M237.826 222.628H226.85V222.771H237.826V222.628Z" fill="#EBEBEB"/>
<path d="M54.712 223.589H30.0073V223.732H54.712V223.589Z" fill="#EBEBEB"/>
<path d="M63.4289 223.589H59.8081V223.732H63.4289V223.589Z" fill="#EBEBEB"/>
<path d="M128.786 226.003H75.2007V226.146H128.786V226.003Z" fill="#EBEBEB"/>
<path d="M135.564 193.222H25.1221C24.2558 193.222 23.4251 192.877 22.8126 192.265C22.2001 191.652 21.856 190.822 21.856 189.955V34.6975C21.8635 33.8362 22.2109 33.0128 22.8226 32.4065C23.4343 31.8001 24.2608 31.4599 25.1221 31.46H135.564C136.43 31.46 137.261 31.8041 137.873 32.4166C138.486 33.0291 138.83 33.8599 138.83 34.7261V189.955C138.83 190.822 138.486 191.652 137.873 192.265C137.261 192.877 136.43 193.222 135.564 193.222ZM25.1221 31.5744C24.2942 31.5759 23.5007 31.9054 22.9154 32.4908C22.33 33.0761 22.0005 33.8696 21.999 34.6975V189.955C22.0005 190.783 22.33 191.577 22.9154 192.162C23.5007 192.748 24.2942 193.077 25.1221 193.079H135.564C136.392 193.077 137.185 192.748 137.771 192.162C138.356 191.577 138.685 190.783 138.687 189.955V34.6975C138.685 33.8696 138.356 33.0761 137.771 32.4908C137.185 31.9054 136.392 31.5759 135.564 31.5744H25.1221Z" fill="#EBEBEB"/>
<path d="M259.294 193.222H148.84C147.975 193.22 147.145 192.875 146.533 192.263C145.92 191.651 145.576 190.821 145.574 189.955V34.6975C145.583 33.8367 145.931 33.0141 146.543 32.4081C147.154 31.8021 147.979 31.4614 148.84 31.46H259.294C260.153 31.4629 260.976 31.8044 261.586 32.4105C262.195 33.0165 262.541 33.8382 262.548 34.6975V189.955C262.548 190.82 262.206 191.649 261.596 192.261C260.986 192.873 260.158 193.219 259.294 193.222ZM148.84 31.5744C148.012 31.5759 147.219 31.9054 146.634 32.4908C146.048 33.0761 145.719 33.8696 145.717 34.6975V189.955C145.719 190.783 146.048 191.577 146.634 192.162C147.219 192.748 148.012 193.077 148.84 193.079H259.294C260.121 193.077 260.915 192.748 261.5 192.162C262.086 191.577 262.415 190.783 262.417 189.955V34.6975C262.415 33.8696 262.086 33.0761 261.5 32.4908C260.915 31.9054 260.121 31.5759 259.294 31.5744H148.84Z" fill="#EBEBEB"/>
<path d="M286 218.732H0V218.875H286V218.732Z" fill="#EBEBEB"/>
<path d="M142.222 148.92H140.506V128.385C140.534 126.19 139.72 124.067 138.23 122.454C136.74 120.841 134.689 119.86 132.498 119.714C131.391 119.658 130.284 119.822 129.24 120.194C128.196 120.567 127.236 121.141 126.414 121.885C125.593 122.628 124.925 123.527 124.451 124.528C123.976 125.53 123.704 126.615 123.649 127.722C123.645 127.83 123.599 127.933 123.521 128.008C123.444 128.084 123.34 128.127 123.231 128.128H122.351C122.294 128.128 122.239 128.117 122.187 128.095C122.136 128.074 122.089 128.042 122.049 128.002C122.01 127.962 121.979 127.915 121.958 127.863C121.937 127.811 121.927 127.755 121.927 127.699C122.042 125.114 123.137 122.669 124.99 120.862C126.844 119.056 129.315 118.023 131.903 117.975C137.577 117.878 142.199 122.717 142.199 128.397L142.222 148.92Z" fill="#F0F0F0"/>
<path d="M253.218 151.162H241.023V218.71H253.218V151.162Z" fill="#E6E6E6"/>
<path d="M244.353 151.162H112.221V218.71H244.353V151.162Z" fill="#F5F5F5"/>
<path d="M244.353 165.228H112.221V166.372H144.682V218.71H145.826V166.372H177.4V218.71H178.544V166.372H210.124V218.71H211.268V166.372H244.353V165.228Z" fill="#E0E0E0"/>
<path d="M141.393 195.258C141.089 195.258 140.798 195.138 140.584 194.923C140.369 194.709 140.249 194.418 140.249 194.114V188.966C140.249 188.663 140.369 188.372 140.584 188.157C140.798 187.943 141.089 187.822 141.393 187.822C141.696 187.822 141.987 187.943 142.201 188.157C142.416 188.372 142.537 188.663 142.537 188.966V194.114C142.537 194.418 142.416 194.709 142.201 194.923C141.987 195.138 141.696 195.258 141.393 195.258Z" fill="#E6E6E6"/>
<path d="M149.115 195.258C148.811 195.258 148.52 195.138 148.306 194.923C148.091 194.709 147.971 194.418 147.971 194.114V188.966C147.971 188.663 148.091 188.372 148.306 188.157C148.52 187.943 148.811 187.822 149.115 187.822C149.418 187.822 149.709 187.943 149.924 188.157C150.138 188.372 150.259 188.663 150.259 188.966V194.114C150.259 194.418 150.138 194.709 149.924 194.923C149.709 195.138 149.418 195.258 149.115 195.258Z" fill="#E6E6E6"/>
<path d="M206.835 195.258C206.532 195.258 206.241 195.138 206.026 194.923C205.812 194.709 205.691 194.418 205.691 194.114V188.966C205.691 188.663 205.812 188.372 206.026 188.157C206.241 187.943 206.532 187.822 206.835 187.822C207.139 187.822 207.43 187.943 207.644 188.157C207.859 188.372 207.979 188.663 207.979 188.966V194.114C207.979 194.418 207.859 194.709 207.644 194.923C207.43 195.138 207.139 195.258 206.835 195.258Z" fill="#E6E6E6"/>
<path d="M214.557 195.258C214.254 195.258 213.963 195.138 213.748 194.923C213.534 194.709 213.413 194.418 213.413 194.114V188.966C213.413 188.663 213.534 188.372 213.748 188.157C213.963 187.943 214.254 187.822 214.557 187.822C214.86 187.822 215.151 187.943 215.366 188.157C215.581 188.372 215.701 188.663 215.701 188.966V194.114C215.701 194.418 215.581 194.709 215.366 194.923C215.151 195.138 214.86 195.258 214.557 195.258Z" fill="#E6E6E6"/>
<path d="M256.079 149.681H240.921V152.638H256.079V149.681Z" fill="#E0E0E0"/>
<path d="M245.497 149.681H109.361V152.638H245.497V149.681Z" fill="#EBEBEB"/>
<path d="M157.998 150.019H112.873C112.581 150.019 112.302 149.903 112.096 149.697C111.89 149.491 111.774 149.212 111.774 148.921C111.774 148.629 111.89 148.35 112.096 148.144C112.302 147.938 112.581 147.822 112.873 147.822H157.998C158.289 147.822 158.568 147.938 158.774 148.144C158.98 148.35 159.096 148.629 159.096 148.921C159.096 149.212 158.98 149.491 158.774 149.697C158.568 149.903 158.289 150.019 157.998 150.019Z" fill="#E6E6E6"/>
<path d="M146.535 145.975H144.825V148.148H146.535V145.975Z" fill="#E0E0E0"/>
<path d="M147.267 146.518H144.087L144.705 142.714H146.649L147.267 146.518Z" fill="#F0F0F0"/>
<path d="M137.881 145.975H136.17V148.148H137.881V145.975Z" fill="#E0E0E0"/>
<path d="M138.619 146.518H135.433L136.056 142.714H137.995L138.619 146.518Z" fill="#F0F0F0"/>
<path d="M174.157 41.4189H173.127V121.711H174.157V41.4189Z" fill="#E0E0E0"/>
<path d="M238.249 41.4189H237.22V121.711H238.249V41.4189Z" fill="#E0E0E0"/>
<path d="M242.282 46.4688H169.095L167.55 42.8652H243.826L242.282 46.4688Z" fill="#EBEBEB"/>
<path d="M242.282 51.4171H169.095L167.55 47.8135H243.826L242.282 51.4171Z" fill="#EBEBEB"/>
<path d="M242.282 56.3653H169.095L167.55 52.7617H243.826L242.282 56.3653Z" fill="#EBEBEB"/>
<path d="M242.282 61.3126H169.095L167.55 57.709H243.826L242.282 61.3126Z" fill="#EBEBEB"/>
<path d="M242.282 66.2608H169.095L167.55 62.6572H243.826L242.282 66.2608Z" fill="#EBEBEB"/>
<path d="M242.282 71.2081H169.095L167.55 67.6045H243.826L242.282 71.2081Z" fill="#EBEBEB"/>
<path d="M242.282 76.1563H169.095L167.55 72.5527H243.826L242.282 76.1563Z" fill="#EBEBEB"/>
<path d="M242.282 81.0979H169.095L167.55 77.5H243.826L242.282 81.0979Z" fill="#EBEBEB"/>
<path d="M242.282 86.0517H169.095L167.55 82.4424H243.826L242.282 86.0517Z" fill="#EBEBEB"/>
<path d="M242.282 90.9932H169.095L167.55 87.3896H243.826L242.282 90.9932Z" fill="#EBEBEB"/>
<path d="M242.282 95.9415H169.095L167.55 92.3379H243.826L242.282 95.9415Z" fill="#EBEBEB"/>
<path d="M242.282 100.89H169.095L167.55 97.2861H243.826L242.282 100.89Z" fill="#EBEBEB"/>
<path d="M242.282 105.837H169.095L167.55 102.233H243.826L242.282 105.837Z" fill="#EBEBEB"/>
<path d="M242.282 110.785H169.095L167.55 107.182H243.826L242.282 110.785Z" fill="#EBEBEB"/>
<path d="M242.282 115.733H169.095L167.55 112.129H243.826L242.282 115.733Z" fill="#EBEBEB"/>
<path d="M242.282 120.681H169.095L167.55 117.077H243.826L242.282 120.681Z" fill="#EBEBEB"/>
<path d="M243.826 120.681H167.55V122.74H243.826V120.681Z" fill="#E0E0E0"/>
<path d="M246.486 38.3525H164.891V43.1573H246.486V38.3525Z" fill="#E0E0E0"/>
<path d="M165.731 86.721C165.511 86.721 165.3 86.6336 165.145 86.4781C164.989 86.3225 164.902 86.1116 164.902 85.8916V57.8636C164.902 57.6436 164.989 57.4326 165.145 57.2771C165.3 57.1216 165.511 57.0342 165.731 57.0342C165.951 57.0342 166.162 57.1216 166.318 57.2771C166.473 57.4326 166.561 57.6436 166.561 57.8636V85.8916C166.561 86.1116 166.473 86.3225 166.318 86.4781C166.162 86.6336 165.951 86.721 165.731 86.721Z" fill="#E0E0E0"/>
<path d="M166.029 42.1963H165.428V58.8415H166.029V42.1963Z" fill="#E0E0E0"/>
<path d="M69.7954 181.953H93.9624V178.235H69.7954V181.953Z" fill="#E0E0E0"/>
<path d="M95.3927 218.704H69.0806V182.251C69.0806 181.754 69.2777 181.279 69.6285 180.928C69.9793 180.577 70.455 180.38 70.9511 180.38H93.5451C94.0412 180.38 94.5169 180.577 94.8677 180.928C95.2185 181.279 95.4155 181.754 95.4155 182.251V218.704H95.3927Z" fill="#F0F0F0"/>
<path d="M71.1455 179.379H93.3277C94.4681 179.379 95.3926 178.454 95.3926 177.314V175.724C95.3926 174.583 94.4681 173.659 93.3277 173.659H71.1455C70.0051 173.659 69.0806 174.583 69.0806 175.724V177.314C69.0806 178.454 70.0051 179.379 71.1455 179.379Z" fill="#F0F0F0"/>
<path d="M87.6704 218.71H99.9684V216.994L87.6704 215.85V218.71Z" fill="#E0E0E0"/>
<path d="M233.439 127.053H222.794C221.749 127.054 220.748 127.47 220.009 128.209C219.27 128.947 218.855 129.949 218.853 130.994V132.309H220.975V130.988C220.974 130.749 221.021 130.512 221.112 130.29C221.203 130.069 221.337 129.868 221.506 129.698C221.675 129.529 221.876 129.394 222.097 129.302C222.318 129.211 222.555 129.163 222.794 129.163H233.439C233.922 129.165 234.385 129.358 234.726 129.7C235.067 130.042 235.258 130.505 235.258 130.988V132.304H237.38V130.988C237.379 129.944 236.963 128.943 236.224 128.205C235.485 127.467 234.483 127.053 233.439 127.053Z" fill="#E0E0E0"/>
<path d="M246.051 135.186V147.112C246.051 147.871 245.75 148.598 245.214 149.135C244.677 149.671 243.95 149.972 243.191 149.972H217.291C216.533 149.972 215.805 149.671 215.269 149.135C214.732 148.598 214.431 147.871 214.431 147.112V135.186C214.431 134.428 214.732 133.7 215.269 133.164C215.805 132.628 216.533 132.326 217.291 132.326H243.168C243.546 132.323 243.92 132.395 244.27 132.537C244.62 132.68 244.938 132.89 245.206 133.156C245.474 133.422 245.686 133.738 245.831 134.086C245.977 134.435 246.051 134.809 246.051 135.186Z" fill="#E6E6E6"/>
<path d="M242.019 135.186V147.112C242.019 147.871 241.718 148.598 241.181 149.135C240.645 149.671 239.918 149.972 239.159 149.972H213.259C212.5 149.972 211.773 149.671 211.237 149.135C210.7 148.598 210.399 147.871 210.399 147.112V135.186C210.399 134.428 210.7 133.7 211.237 133.164C211.773 132.628 212.5 132.326 213.259 132.326H239.136C239.514 132.323 239.888 132.395 240.238 132.537C240.587 132.68 240.905 132.89 241.173 133.156C241.441 133.422 241.654 133.738 241.799 134.086C241.944 134.435 242.019 134.809 242.019 135.186Z" fill="#F5F5F5"/>
<path d="M233.05 134.357H219.545V147.862H233.05V134.357Z" fill="white"/>
<path d="M227.45 137.395H225.168V145.248H227.45V137.395Z" fill="#E0E0E0"/>
<path d="M222.382 140.175V142.457H230.236V140.175H222.382Z" fill="#E0E0E0"/>
<path d="M140.243 242.362C201.494 242.362 251.148 239.463 251.148 235.887C251.148 232.311 201.494 229.412 140.243 229.412C78.9918 229.412 29.3379 232.311 29.3379 235.887C29.3379 239.463 78.9918 242.362 140.243 242.362Z" fill="#F5F5F5"/>
<path d="M198.352 135.627C198.73 135.582 209.666 136.663 210.364 148.383L208.494 156.505C199.654 153.222 189.907 153.353 181.158 156.871L181.026 156.929L181.787 147.651C181.787 147.651 184.59 137.24 198.352 135.627Z" fill="#263238"/>
<path d="M175.387 192.232L177.583 192.421C178.385 178.473 179.961 164.581 182.302 150.808C182.724 148.582 183.583 146.462 184.83 144.571C186.077 142.68 187.687 141.055 189.567 139.791C190.361 139.218 191.226 138.751 192.141 138.401C193.822 137.681 195.626 137.292 197.454 137.257C198.197 137.257 198.939 137.309 199.674 137.411C201.333 137.666 202.917 138.281 204.313 139.213C204.967 139.714 205.594 140.251 206.189 140.821C206.503 141.146 206.796 141.492 207.064 141.856C208.029 143.24 208.694 144.81 209.017 146.465C209.34 148.121 209.314 149.826 208.94 151.471C206.612 164.062 204.987 176.772 204.073 189.543L206.269 189.692C207.167 177.021 208.769 164.41 211.068 151.917C211.507 149.971 211.534 147.954 211.147 145.997C210.76 144.039 209.967 142.184 208.82 140.552C207.689 138.959 206.222 137.635 204.521 136.674C202.821 135.713 200.929 135.139 198.982 134.992C190.402 134.42 181.473 141.392 180.151 150.339C177.792 164.204 176.201 178.19 175.387 192.232Z" fill="#263238"/>
<path opacity="0.3" d="M175.387 192.232L177.583 192.421C178.385 178.473 179.961 164.581 182.302 150.808C182.724 148.582 183.583 146.462 184.83 144.571C186.077 142.68 187.687 141.055 189.567 139.791C190.361 139.218 191.226 138.751 192.141 138.401C193.822 137.681 195.626 137.292 197.454 137.257C198.197 137.257 198.939 137.309 199.674 137.411C201.333 137.666 202.917 138.281 204.313 139.213C204.967 139.714 205.594 140.251 206.189 140.821C206.503 141.146 206.796 141.492 207.064 141.856C208.029 143.24 208.694 144.81 209.017 146.465C209.34 148.121 209.314 149.826 208.94 151.471C206.612 164.062 204.987 176.772 204.073 189.543L206.269 189.692C207.167 177.021 208.769 164.41 211.068 151.917C211.507 149.971 211.534 147.954 211.147 145.997C210.76 144.039 209.967 142.184 208.82 140.552C207.689 138.959 206.222 137.635 204.521 136.674C202.821 135.713 200.929 135.139 198.982 134.992C190.402 134.42 181.473 141.392 180.151 150.339C177.792 164.204 176.201 178.19 175.387 192.232Z" fill="white"/>
<path d="M206.309 190.905H155.779V189.733C155.779 188.621 156.22 187.554 157.007 186.768C157.793 185.982 158.859 185.54 159.971 185.54H202.111C203.223 185.54 204.289 185.982 205.075 186.768C205.862 187.554 206.303 188.621 206.303 189.733V190.905H206.309Z" fill="#263238"/>
<path d="M204.599 235.047H207.282L205.085 190.911H201.665L204.599 235.047Z" fill="#263238"/>
<path opacity="0.3" d="M204.599 235.047H207.282L205.085 190.911H201.665L204.599 235.047Z" fill="white"/>
<path d="M186.655 235.047H189.338L187.873 190.911H184.458L186.655 235.047Z" fill="#263238"/>
<path opacity="0.3" d="M186.655 235.047H189.338L187.873 190.911H184.458L186.655 235.047Z" fill="white"/>
<path d="M172.744 235.047H175.427L177.623 190.911H174.208L172.744 235.047Z" fill="#263238"/>
<path opacity="0.3" d="M172.744 235.047H175.427L177.623 190.911H174.208L172.744 235.047Z" fill="white"/>
<path d="M154.8 235.047H157.489L160.417 190.911H156.997L154.8 235.047Z" fill="#263238"/>
<path opacity="0.3" d="M154.8 235.047H157.489L160.417 190.911H156.997L154.8 235.047Z" fill="white"/>
<path d="M153.576 192.861H183.601V188.955H153.576V192.861Z" fill="#263238"/>
<path opacity="0.7" d="M153.576 192.861H183.601V188.955H153.576V192.861Z" fill="white"/>
<path d="M183.601 192.861H208.511V188.955H183.601V192.861Z" fill="#263238"/>
<path opacity="0.4" d="M183.601 192.861H208.511V188.955H183.601V192.861Z" fill="white"/>
<path d="M174.574 128.626C169.117 129.702 158.307 134.346 158.238 134.094C158.238 134.094 149.137 131.938 145.397 127.802C145.397 127.802 141.822 127.362 139.951 126.99C141.307 130.188 143.955 134.066 146.895 135.913C150.63 138.259 151.649 138.968 155.344 140.375C159.965 142.137 167.041 140.266 171.623 138.39C173.31 137.698 175.055 136.817 176.033 135.284C177.011 133.751 176.09 129.65 174.574 128.626Z" fill="#2DACD4"/>
<path opacity="0.7" d="M174.574 128.626C169.117 129.702 158.307 134.346 158.238 134.094C158.238 134.094 149.137 131.938 145.397 127.802C145.397 127.802 141.822 127.362 139.951 126.99C141.307 130.188 143.955 134.066 146.895 135.913C150.63 138.259 151.649 138.968 155.344 140.375C159.965 142.137 167.041 140.266 171.623 138.39C173.31 137.698 175.055 136.817 176.033 135.284C177.011 133.751 176.09 129.65 174.574 128.626Z" fill="white"/>
<path d="M160.08 128.357H146.484C144.585 121.493 148.388 114.589 146.484 107.708H160.08C161.985 114.589 158.175 121.476 160.08 128.357Z" fill="#2DACD4"/>
<g opacity="0.7">
<path d="M160.08 128.357H146.484C144.585 121.493 148.388 114.589 146.484 107.708H160.08C161.985 114.589 158.175 121.476 160.08 128.357Z" fill="white"/>
</g>
<path d="M148.612 124.696L146.432 125.743C146.19 126.455 145.73 127.074 145.117 127.51C144.505 127.855 143.857 128.129 143.183 128.328C142.701 128.48 142.185 128.488 141.698 128.353C141.211 128.218 140.773 127.945 140.438 127.567C140.292 127.42 140.193 127.232 140.154 127.028C140.115 126.825 140.138 126.614 140.22 126.423L142.308 122.522C142.426 122.302 142.593 122.113 142.797 121.969C143 121.825 143.234 121.731 143.481 121.693L146.913 121.149C147.126 121.113 147.346 121.136 147.548 121.216C147.749 121.296 147.925 121.429 148.057 121.601L149.063 122.923C149.167 123.064 149.238 123.226 149.271 123.398C149.305 123.569 149.3 123.746 149.257 123.916C149.213 124.086 149.133 124.243 149.022 124.378C148.91 124.513 148.77 124.622 148.612 124.696Z" fill="#CE7A63"/>
<path d="M194.377 160.91L197.597 172.658L179.911 176.451L169.232 170.794L172.218 160.687L194.377 160.91Z" fill="#2DACD4"/>
<path opacity="0.1" d="M194.377 160.91L197.597 172.658L179.911 176.451L169.232 170.794L172.218 160.687L194.377 160.91Z" fill="black"/>
<path d="M170.496 135.381C170.174 138.392 170.161 141.428 170.456 144.442C170.622 148.491 171.503 152.747 172.607 159.314C174.82 160.612 186.037 160.075 193.199 159.148C192.764 153.428 193.479 146.838 197.368 133.917C198.272 130.92 196.259 128.042 193.044 127.739C192.186 127.654 191.271 127.585 190.339 127.545C187.063 127.327 183.776 127.327 180.5 127.545C179.453 127.642 178.321 127.768 177.263 127.899C173.447 128.386 171.199 131.326 170.496 135.381Z" fill="#2DACD4"/>
<path d="M172.217 160.687C179.451 161.484 186.752 161.469 193.982 160.641C194.049 160.626 194.112 160.598 194.168 160.559C194.225 160.519 194.272 160.469 194.309 160.411C194.346 160.353 194.371 160.289 194.382 160.221C194.394 160.154 194.392 160.084 194.377 160.018V159.949C194.199 159.531 194.016 159.114 193.851 158.696C193.814 158.604 193.748 158.527 193.664 158.475C193.579 158.423 193.48 158.401 193.381 158.41C186.428 159.171 179.412 159.171 172.458 158.41C172.397 158.402 172.336 158.406 172.277 158.422C172.218 158.438 172.163 158.465 172.114 158.502C172.066 158.54 172.025 158.586 171.995 158.639C171.965 158.692 171.945 158.75 171.937 158.811C171.94 158.822 171.94 158.834 171.937 158.845C171.891 159.28 171.851 159.709 171.811 160.143C171.803 160.207 171.808 160.272 171.826 160.334C171.843 160.396 171.872 160.454 171.912 160.505C171.952 160.555 172.002 160.598 172.058 160.629C172.114 160.66 172.176 160.68 172.24 160.687H172.217Z" fill="#2DACD4"/>
<path d="M180.243 127.367C174.895 134.231 174.523 151.197 175.867 184.521C175.987 187.427 173.202 187.216 170.473 186.655C166.412 185.814 164.799 186.117 164.799 186.117C164.799 186.117 171.28 169.1 170.227 153.839C169.175 138.578 169.907 133.184 172.384 130.387C174.86 127.59 180.243 127.367 180.243 127.367Z" fill="#2DACD4"/>
<path opacity="0.7" d="M180.243 127.367C174.895 134.231 174.523 151.197 175.867 184.521C175.981 187.427 173.339 187.113 170.467 186.655C168.597 186.314 166.7 186.134 164.799 186.117C164.799 186.117 171.28 169.1 170.227 153.839C169.175 138.578 169.907 133.184 172.384 130.387C174.86 127.59 180.243 127.367 180.243 127.367Z" fill="white"/>
<path d="M189.658 116.459C188.806 119.611 187.753 125.428 189.812 127.544C189.812 127.544 187.095 129.724 181.335 131.823C179.619 131.382 179.98 127.544 179.98 127.544C183.578 126.698 183.681 124.112 183.246 121.624L189.658 116.459Z" fill="#CE7A63"/>
<path opacity="0.2" d="M187.044 118.564L183.24 121.619C183.347 122.185 183.405 122.759 183.412 123.335C184.779 123.14 186.741 121.665 186.993 120.246C187.106 119.693 187.124 119.124 187.044 118.564Z" fill="black"/>
<path d="M183.755 104.876C180.01 109.939 178.394 116.267 179.253 122.505C177.446 119.073 175.821 120.944 175.69 117.077C175.633 115.132 176.645 107.244 177.509 105.5C178.372 103.755 180.14 102.348 182.085 102.428C182.787 102.432 183.461 102.707 183.967 103.195C184.441 103.704 184.184 104.321 183.755 104.876Z" fill="#263238"/>
<path d="M192.364 110.105C191.408 115.218 191.105 117.404 188.171 119.829C183.778 123.501 177.749 121.545 177.154 116.357C176.634 111.661 178.298 104.087 183.566 102.4C184.687 101.99 185.898 101.889 187.071 102.107C188.244 102.325 189.338 102.854 190.237 103.639C191.136 104.424 191.807 105.436 192.181 106.57C192.556 107.703 192.619 108.916 192.364 110.082V110.105Z" fill="#CE7A63"/>
<path d="M183.486 111.277C183.366 111.694 183.04 111.986 182.777 111.929C182.514 111.872 182.382 111.483 182.502 111.065C182.622 110.648 182.948 110.35 183.217 110.407C183.486 110.465 183.612 110.854 183.486 111.277Z" fill="#263238"/>
<path d="M179.139 110.23C179.019 110.648 178.699 110.94 178.43 110.882C178.161 110.825 178.035 110.431 178.161 110.019C178.287 109.607 178.601 109.304 178.87 109.367C179.139 109.43 179.265 109.824 179.139 110.23Z" fill="#263238"/>
<path d="M178.985 109.412L178.069 108.903C178.069 108.903 178.355 109.824 178.985 109.412Z" fill="#263238"/>
<path d="M180.357 111.231C179.706 112.107 178.947 112.897 178.098 113.582C178.268 113.784 178.483 113.944 178.725 114.049C178.967 114.154 179.23 114.202 179.493 114.189L180.357 111.231Z" fill="#BA4D3C"/>
<path d="M181.427 116.259C181.188 116.248 180.95 116.213 180.718 116.156C180.702 116.153 180.687 116.147 180.673 116.139C180.66 116.13 180.649 116.118 180.64 116.105C180.631 116.091 180.626 116.076 180.623 116.06C180.621 116.045 180.622 116.028 180.626 116.013C180.637 115.981 180.659 115.953 180.689 115.936C180.718 115.919 180.753 115.914 180.786 115.921C181.317 116.039 181.868 116.035 182.398 115.911C182.927 115.788 183.422 115.547 183.846 115.206C183.87 115.183 183.902 115.17 183.935 115.17C183.968 115.17 184 115.183 184.024 115.206C184.046 115.231 184.058 115.262 184.058 115.295C184.058 115.328 184.046 115.36 184.024 115.384C183.296 115.986 182.371 116.298 181.427 116.259Z" fill="#263238"/>
<path d="M179.894 103.086C181.496 100.884 185.849 100.283 188.4 100.89C197.437 103.046 193.29 110.556 198.524 114.778C197.003 117.506 195.538 116.928 193.765 118.158C192.73 118.879 189.984 121.127 188.743 121.018C188.806 118.461 189.927 115.521 189.406 113.01C188.953 110.511 187.85 108.176 186.209 106.238C184.544 104.407 182.296 102.96 179.894 103.086Z" fill="#263238"/>
<path opacity="0.2" d="M179.894 103.086C181.496 100.884 185.849 100.283 188.4 100.89C197.437 103.046 193.29 110.556 198.524 114.778C197.003 117.506 195.538 116.928 193.765 118.158C192.73 118.879 189.984 121.127 188.743 121.018C188.806 118.461 189.927 115.521 189.406 113.01C188.953 110.511 187.85 108.176 186.209 106.238C184.544 104.407 182.296 102.96 179.894 103.086Z" fill="black"/>
<path d="M179.894 103.086C181.496 100.884 185.849 100.283 188.4 100.89C197.437 103.046 193.29 110.556 198.524 114.778C197.003 117.506 195.538 116.928 193.765 118.158C192.73 118.879 189.984 121.127 188.743 121.018C188.806 118.461 189.927 115.521 189.406 113.01C188.953 110.511 187.85 108.176 186.209 106.238C184.544 104.407 182.296 102.96 179.894 103.086Z" fill="#263238"/>
<path opacity="0.1" d="M179.894 103.086C181.496 100.884 185.849 100.283 188.4 100.89C197.437 103.046 193.29 110.556 198.524 114.778C197.003 117.506 195.538 116.928 193.765 118.158C192.73 118.879 189.984 121.127 188.743 121.018C188.806 118.461 189.927 115.521 189.406 113.01C188.953 110.511 187.85 108.176 186.209 106.238C184.544 104.407 182.296 102.96 179.894 103.086Z" fill="black"/>
<path d="M192.06 115.281C191.798 115.704 191.45 116.067 191.038 116.347C190.626 116.627 190.16 116.817 189.669 116.905C188.451 117.077 188.096 115.658 188.663 114.354C189.189 113.21 190.407 111.677 191.523 112.112C192.638 112.546 192.764 114.165 192.06 115.281Z" fill="#CE7A63"/>
<path d="M185.437 109.606C185.406 109.597 185.377 109.58 185.355 109.557C185.332 109.534 185.315 109.506 185.305 109.475C185.2 109.184 185.024 108.923 184.793 108.717C184.563 108.51 184.285 108.364 183.984 108.291C183.924 108.282 183.87 108.251 183.833 108.202C183.797 108.154 183.781 108.093 183.789 108.033C183.787 108.024 183.787 108.014 183.789 108.005C183.804 107.937 183.845 107.878 183.902 107.84C183.96 107.802 184.03 107.787 184.098 107.799C184.481 107.883 184.836 108.064 185.13 108.323C185.424 108.582 185.648 108.911 185.78 109.28C185.802 109.344 185.798 109.414 185.769 109.475C185.74 109.536 185.689 109.583 185.625 109.606C185.565 109.63 185.497 109.63 185.437 109.606Z" fill="#263238"/>
<path d="M178.178 107.754C178.147 107.753 178.116 107.746 178.087 107.733C178.059 107.72 178.033 107.702 178.012 107.679C177.99 107.656 177.974 107.629 177.963 107.6C177.952 107.57 177.947 107.539 177.949 107.508C177.951 107.471 177.961 107.436 177.979 107.404C177.997 107.372 178.022 107.345 178.052 107.325C178.357 107.047 178.723 106.844 179.12 106.73C179.516 106.617 179.934 106.598 180.34 106.673C180.4 106.69 180.452 106.73 180.484 106.784C180.516 106.838 180.526 106.903 180.512 106.964C180.488 107.028 180.442 107.082 180.382 107.115C180.322 107.147 180.252 107.157 180.186 107.142C179.865 107.088 179.537 107.108 179.226 107.2C178.915 107.292 178.629 107.454 178.389 107.674C178.362 107.701 178.329 107.723 178.292 107.736C178.256 107.75 178.217 107.756 178.178 107.754Z" fill="#263238"/>
<path d="M183.332 110.459L182.417 109.95C182.417 109.95 182.703 110.848 183.332 110.459Z" fill="#263238"/>
<path d="M180.672 102.868C180.284 103.291 179.974 103.779 179.757 104.31C179.649 104.575 179.601 104.861 179.617 105.147C179.633 105.433 179.712 105.711 179.848 105.963C180.137 106.38 180.549 106.696 181.027 106.867C181.494 107.071 181.984 107.223 182.485 107.319C182.221 107.099 182.027 106.808 181.925 106.48C181.824 106.152 181.819 105.801 181.913 105.471C181.969 105.795 182.094 106.103 182.279 106.375C182.465 106.646 182.707 106.875 182.989 107.044C183.503 107.347 184.081 107.513 184.613 107.782C186.289 108.623 189.412 113.027 187.101 122.185C189.143 121.43 192.009 114.24 191.534 112.112C191.059 109.984 190.962 104.516 185.523 102.605C184.052 102.096 182.165 102.445 180.672 102.868Z" fill="#263238"/>
<path d="M154.251 230.162L149.338 230.637L146.426 216.794L152.221 216.125L154.251 230.162Z" fill="#CE7A63"/>
<path d="M147.307 229.492C147.763 229.029 148.374 228.751 149.023 228.714L154.291 228.348C154.41 228.333 154.53 228.365 154.626 228.436C154.722 228.508 154.786 228.614 154.806 228.732L155.824 233.622C155.882 233.891 155.832 234.171 155.684 234.402C155.536 234.634 155.303 234.798 155.035 234.858H155.012C153.021 235.373 151.769 234.955 148.72 235.167C146.844 235.298 142.857 236.042 140.3 235.618C137.743 235.195 138.069 232.661 139.156 232.61C143.08 232.484 146.295 230.516 147.307 229.492Z" fill="#263238"/>
<g opacity="0.2">
<path d="M146.426 216.8L148.119 224.848L153.33 223.761L152.226 216.131L146.426 216.8Z" fill="black"/>
</g>
<path d="M177.223 188.097C177.028 188.097 176.828 188.097 176.622 188.097C176.287 188.092 175.953 188.067 175.621 188.023L149.309 186.616C153.559 190.511 154.257 221.725 154.257 221.725L152.999 221.994L147.279 223.212L146.232 223.435C146.232 223.435 143.847 213.214 141.084 201.488C139.688 195.55 137.881 189.413 137.08 183.521C136.862 181.955 136.736 180.377 136.702 178.796C136.702 178.31 136.702 177.83 136.702 177.349C136.699 177.3 136.699 177.25 136.702 177.2C136.702 176.995 136.702 176.8 136.748 176.628C136.881 175.677 137.277 174.781 137.892 174.043L138.087 173.82C138.151 173.745 138.22 173.675 138.292 173.608C138.43 173.466 138.576 173.33 138.727 173.202C138.887 173.071 139.048 172.939 139.219 172.813L139.66 172.51C139.843 172.396 140.026 172.287 140.232 172.178C140.328 172.121 140.427 172.07 140.529 172.024C140.826 171.864 141.135 171.715 141.461 171.578L141.742 171.458L142.125 171.315C142.239 171.263 142.354 171.223 142.468 171.183C142.817 171.057 143.177 170.937 143.549 170.84L143.738 170.783H143.789C153.771 167.957 170.748 170.136 170.748 170.136C170.748 170.136 175.232 166.819 179.997 166.189L180.672 166.264L182.794 166.498C182.825 166.496 182.855 166.496 182.886 166.498C189.904 178.722 185.551 188.006 177.223 188.097Z" fill="#2DACD4"/>
<g opacity="0.1">
<path d="M177.223 188.097C177.028 188.097 176.828 188.097 176.622 188.097C176.287 188.092 175.953 188.067 175.621 188.023L149.309 186.616C153.559 190.511 154.257 221.725 154.257 221.725L152.999 221.994L147.279 223.212L146.232 223.435C146.232 223.435 143.847 213.214 141.084 201.488C139.688 195.55 137.881 189.413 137.08 183.521C136.862 181.955 136.736 180.377 136.702 178.796C136.702 178.31 136.702 177.83 136.702 177.349C136.699 177.3 136.699 177.25 136.702 177.2C136.702 176.995 136.702 176.8 136.748 176.628C136.881 175.677 137.277 174.781 137.892 174.043L138.087 173.82C138.151 173.745 138.22 173.675 138.292 173.608C138.43 173.466 138.576 173.33 138.727 173.202C138.887 173.071 139.048 172.939 139.219 172.813L139.66 172.51C139.843 172.396 140.026 172.287 140.232 172.178C140.328 172.121 140.427 172.07 140.529 172.024C140.826 171.864 141.135 171.715 141.461 171.578L141.742 171.458L142.125 171.315C142.239 171.263 142.354 171.223 142.468 171.183C142.817 171.057 143.177 170.937 143.549 170.84L143.738 170.783H143.789C153.771 167.957 170.748 170.136 170.748 170.136C170.748 170.136 175.232 166.819 179.997 166.189L180.672 166.264L182.794 166.498C182.825 166.496 182.855 166.496 182.886 166.498C189.904 178.722 185.551 188.006 177.223 188.097Z" fill="black"/>
</g>
<path d="M121.721 206.658L120.314 208.815L117.18 213.62L111.935 214.169L115.91 205.818L118.61 200.132L121.721 206.658Z" fill="#CE7A63"/>
<path d="M113.256 210.571L117.597 213.282C117.695 213.337 117.769 213.425 117.806 213.53C117.843 213.636 117.84 213.751 117.798 213.854L115.67 218.819C115.61 218.938 115.527 219.044 115.426 219.13C115.325 219.217 115.208 219.283 115.082 219.324C114.955 219.366 114.822 219.382 114.689 219.372C114.557 219.362 114.427 219.326 114.308 219.265H114.28C112.255 218.036 111.346 217.343 108.777 215.833L102.388 212.127C100.203 210.846 101.381 208.638 102.417 208.975C106.993 210.497 110.099 210.691 112.141 210.371C112.524 210.303 112.92 210.374 113.256 210.571Z" fill="#263238"/>
<g opacity="0.2">
<path d="M121.722 206.658L120.32 208.815H120.315L115.91 205.818L118.61 200.132L121.722 206.658Z" fill="black"/>
</g>
<path d="M178.916 188.577C178.336 188.507 177.763 188.396 177.2 188.245C177.005 188.199 176.805 188.142 176.599 188.079C171.771 186.689 164.822 182.885 158.352 179.139C152.392 175.707 146.861 172.275 143.795 170.879H143.743L143.555 170.936C143.183 171.039 142.822 171.159 142.474 171.285C142.357 171.319 142.242 171.361 142.13 171.411L141.747 171.554L141.467 171.674C141.141 171.811 140.832 171.966 140.534 172.12C140.432 172.166 140.334 172.223 140.237 172.275C140.043 172.383 139.86 172.492 139.665 172.606L139.225 172.915C139.053 173.041 138.893 173.167 138.733 173.299C138.581 173.427 138.436 173.562 138.298 173.705C138.224 173.773 138.155 173.848 138.092 173.916L137.898 174.139C137.282 174.878 136.886 175.773 136.754 176.725C136.754 176.919 136.714 177.12 136.708 177.297C136.708 177.777 136.708 178.258 136.708 178.744C136.736 180.334 136.856 181.921 137.068 183.497V183.617C129.884 196.573 122.414 208.322 122.414 208.322L121.144 207.447L116.568 204.312L115.778 203.74C115.778 203.74 123.752 185.059 129.237 168.414C130.241 165.353 132.191 162.69 134.807 160.811C137.423 158.931 140.568 157.932 143.789 157.958C157.328 158.078 175.106 165.559 175.106 165.559L179.985 166.08L180.66 166.154L182.782 166.389C182.813 166.386 182.843 166.386 182.874 166.389C184.018 166.515 185.299 166.606 186.54 166.698C187.912 166.797 189.219 167.319 190.281 168.193C191.342 169.067 192.106 170.25 192.466 171.577C196.104 184.836 187.45 189.623 178.916 188.577Z" fill="#2DACD4"/>
<path d="M178.916 188.577C178.336 188.507 177.763 188.396 177.2 188.245C177.005 188.199 176.805 188.142 176.599 188.079C171.771 186.689 164.822 182.885 158.352 179.139C152.392 175.707 146.861 172.275 143.795 170.879H143.743L143.555 170.936C143.183 171.039 142.822 171.159 142.474 171.285C142.357 171.319 142.242 171.361 142.13 171.411L141.747 171.554L141.467 171.674C141.141 171.811 140.832 171.966 140.534 172.12C140.432 172.166 140.334 172.223 140.237 172.275C140.043 172.383 139.86 172.492 139.665 172.606L139.225 172.915C139.053 173.041 138.893 173.167 138.733 173.299C138.581 173.427 138.436 173.562 138.298 173.705C138.224 173.773 138.155 173.848 138.092 173.916L137.898 174.139C137.282 174.878 136.886 175.773 136.754 176.725C136.754 176.919 136.714 177.12 136.708 177.297C136.708 177.777 136.708 178.258 136.708 178.744C136.736 180.334 136.856 181.921 137.068 183.497V183.617C129.884 196.573 122.414 208.322 122.414 208.322L121.144 207.447L116.568 204.312L115.778 203.74C115.778 203.74 123.752 185.059 129.237 168.414C130.241 165.353 132.191 162.69 134.807 160.811C137.423 158.931 140.568 157.932 143.789 157.958C157.328 158.078 175.106 165.559 175.106 165.559L179.985 166.08L180.66 166.154L182.782 166.389C182.813 166.386 182.843 166.386 182.874 166.389C184.018 166.515 185.299 166.606 186.54 166.698C187.912 166.797 189.219 167.319 190.281 168.193C191.342 169.067 192.106 170.25 192.466 171.577C196.104 184.836 187.45 189.623 178.916 188.577Z" fill="#2DACD4"/>
<path d="M190.036 127.053C190.036 127.053 186.312 130.359 185.202 138.338C183.429 151.203 184.356 176.005 185.019 190.173C185.043 190.657 185.181 191.128 185.421 191.548C185.662 191.968 185.998 192.325 186.403 192.591C186.808 192.856 187.27 193.022 187.751 193.075C188.232 193.128 188.719 193.067 189.172 192.896C193.593 191.248 200.818 192.541 204.044 189.744C204.278 185.477 196.854 163.672 197.575 152.387C198.295 141.101 199.702 131.268 198.244 129.141C196.785 127.013 190.036 127.053 190.036 127.053Z" fill="#2DACD4"/>
<path opacity="0.7" d="M190.035 127.053C190.035 127.053 186.312 130.359 185.202 138.338C183.429 151.203 184.453 176.005 185.122 190.173C185.145 190.656 185.282 191.127 185.522 191.548C185.761 191.968 186.097 192.325 186.502 192.591C186.906 192.856 187.368 193.023 187.849 193.076C188.33 193.128 188.816 193.067 189.269 192.896C193.691 191.248 200.818 192.541 204.061 189.744C204.295 185.477 196.871 163.672 197.592 152.387C198.312 141.101 199.719 131.268 198.261 129.141C196.802 127.013 190.035 127.053 190.035 127.053Z" fill="white"/>
<path d="M189.87 143.984C189.845 143.983 189.82 143.976 189.798 143.966C189.776 143.955 189.756 143.94 189.739 143.921C189.723 143.902 189.71 143.881 189.702 143.857C189.694 143.834 189.691 143.809 189.692 143.784C189.694 143.751 189.704 143.718 189.722 143.69C189.74 143.662 189.765 143.639 189.795 143.624L190.59 143.235C191.333 142.879 191.95 142.305 192.359 141.59C192.767 140.874 192.949 140.052 192.878 139.231L192.232 131.492C192.184 130.915 191.943 130.372 191.549 129.949C191.155 129.526 190.629 129.249 190.058 129.161C189.486 129.073 188.902 129.18 188.399 129.465C187.896 129.75 187.503 130.196 187.284 130.731L184.333 137.904C184.016 138.664 183.938 139.503 184.108 140.309C184.279 141.115 184.69 141.85 185.288 142.417L185.934 143.029C185.969 143.065 185.988 143.113 185.988 143.163C185.988 143.213 185.969 143.262 185.934 143.298C185.917 143.316 185.896 143.33 185.873 143.339C185.85 143.349 185.825 143.354 185.8 143.354C185.775 143.354 185.75 143.349 185.727 143.339C185.704 143.33 185.683 143.316 185.665 143.298L185.019 142.686C184.367 142.065 183.919 141.26 183.735 140.378C183.551 139.496 183.64 138.58 183.989 137.749L186.964 130.594C187.217 129.981 187.669 129.471 188.247 129.146C188.824 128.82 189.495 128.699 190.15 128.801C190.805 128.902 191.407 129.221 191.86 129.706C192.312 130.191 192.588 130.814 192.644 131.475L193.284 139.202C193.358 140.101 193.156 141 192.706 141.781C192.255 142.562 191.577 143.187 190.762 143.572L189.967 143.956C189.939 143.977 189.904 143.987 189.87 143.984Z" fill="#263238"/>
<path d="M192.535 133.185C192.489 133.182 192.446 133.164 192.412 133.132C192.379 133.101 192.357 133.059 192.352 133.013C192.223 132.406 191.913 131.853 191.462 131.427C191.012 131 190.443 130.721 189.83 130.625C189.217 130.53 188.59 130.623 188.031 130.892C187.472 131.161 187.008 131.593 186.701 132.132C186.695 132.16 186.684 132.186 186.668 132.209C186.652 132.232 186.63 132.251 186.606 132.265C186.581 132.279 186.554 132.288 186.526 132.29C186.498 132.293 186.469 132.289 186.443 132.279C186.416 132.27 186.392 132.254 186.372 132.234C186.352 132.214 186.337 132.19 186.327 132.164C186.317 132.137 186.313 132.109 186.316 132.081C186.318 132.052 186.326 132.025 186.34 132.001C186.679 131.382 187.2 130.883 187.833 130.571C188.466 130.259 189.179 130.15 189.876 130.258C190.573 130.366 191.22 130.687 191.728 131.176C192.237 131.664 192.582 132.298 192.718 132.99C192.723 133.039 192.708 133.088 192.677 133.127C192.646 133.166 192.601 133.19 192.552 133.196L192.535 133.185Z" fill="#263238"/>
<path d="M190.07 129.158C190.045 129.156 190.021 129.15 189.999 129.139C189.977 129.128 189.958 129.113 189.942 129.094C189.926 129.075 189.914 129.054 189.906 129.03C189.899 129.007 189.896 128.982 189.898 128.958C189.978 128.025 189.898 126.321 189.023 125.857C189.001 125.845 188.982 125.829 188.967 125.81C188.951 125.79 188.94 125.768 188.933 125.744C188.926 125.72 188.924 125.695 188.926 125.67C188.929 125.646 188.937 125.622 188.949 125.6C188.961 125.578 188.977 125.559 188.997 125.543C189.016 125.528 189.038 125.516 189.062 125.509C189.086 125.502 189.111 125.5 189.136 125.503C189.161 125.506 189.184 125.514 189.206 125.526C190.465 126.212 190.282 128.706 190.253 128.992C190.249 129.037 190.228 129.08 190.194 129.11C190.16 129.141 190.116 129.158 190.07 129.158Z" fill="#263238"/>
<path d="M186.22 143.223C186.163 143.584 185.929 143.841 185.694 143.795C185.46 143.75 185.317 143.446 185.374 143.092C185.431 142.737 185.66 142.474 185.894 142.52C186.129 142.566 186.272 142.874 186.22 143.223Z" fill="#263238"/>
<path d="M190.299 143.864C190.247 144.213 190.013 144.47 189.778 144.436C189.544 144.401 189.401 144.081 189.458 143.726C189.515 143.372 189.744 143.12 189.978 143.154C190.213 143.189 190.356 143.503 190.299 143.864Z" fill="#263238"/>
<path d="M179.985 136.445C179.791 137.24 179.208 137.784 178.704 137.658C178.201 137.532 177.915 136.8 178.132 135.982C178.35 135.164 178.91 134.644 179.413 134.775C179.917 134.907 180.18 135.65 179.985 136.445Z" fill="#263238"/>
<path d="M178.361 136.171H178.321C178.296 136.169 178.272 136.163 178.25 136.152C178.227 136.141 178.207 136.126 178.191 136.107C178.175 136.089 178.162 136.067 178.154 136.044C178.146 136.02 178.142 135.995 178.144 135.97C178.344 132.767 180.249 127.465 182.337 125.732C182.354 125.713 182.375 125.698 182.398 125.688C182.421 125.678 182.446 125.673 182.471 125.673C182.496 125.673 182.521 125.678 182.544 125.688C182.568 125.698 182.588 125.713 182.606 125.732C182.623 125.749 182.637 125.77 182.647 125.793C182.657 125.816 182.662 125.841 182.662 125.866C182.662 125.891 182.657 125.916 182.647 125.939C182.637 125.962 182.623 125.983 182.606 126C182.593 126.015 182.577 126.027 182.56 126.035C180.546 127.751 178.693 132.847 178.504 135.999C178.503 136.039 178.488 136.078 178.462 136.109C178.436 136.14 178.401 136.162 178.361 136.171Z" fill="#263238"/>
<path d="M180.552 136.526C180.42 137.206 179.917 137.67 179.408 137.595C179.139 137.49 178.921 137.287 178.795 137.027C178.67 136.767 178.648 136.469 178.733 136.194C178.859 135.507 179.368 135.05 179.877 135.124C180.145 135.23 180.364 135.433 180.489 135.692C180.614 135.952 180.637 136.25 180.552 136.526Z" fill="white"/>
<path d="M180.592 136.588C180.414 137.429 179.951 138.047 179.568 137.967C179.185 137.887 178.996 137.132 179.202 136.285C179.408 135.439 179.842 134.827 180.226 134.912C180.609 134.998 180.752 135.742 180.592 136.588Z" fill="#263238"/>
<path d="M172.87 154.881L160.938 155.098C160.712 155.099 160.493 155.017 160.323 154.869C160.152 154.721 160.042 154.515 160.011 154.291L157.723 136.033C157.708 135.929 157.716 135.823 157.746 135.723C157.776 135.622 157.827 135.529 157.896 135.45C157.964 135.371 158.05 135.307 158.145 135.264C158.241 135.22 158.345 135.198 158.45 135.198L170.399 134.992C170.625 134.992 170.843 135.073 171.014 135.221C171.184 135.37 171.295 135.575 171.325 135.799L173.613 154.057C173.626 154.161 173.617 154.268 173.585 154.368C173.554 154.469 173.501 154.561 173.43 154.639C173.36 154.717 173.273 154.78 173.176 154.821C173.08 154.863 172.975 154.883 172.87 154.881Z" fill="#263238"/>
<path d="M166.04 136.508L163.18 136.56C162.899 136.562 162.627 136.46 162.416 136.274C162.205 136.089 162.07 135.832 162.036 135.553L161.819 133.848L166.738 133.757L166.944 135.439C166.968 135.57 166.962 135.705 166.927 135.834C166.892 135.964 166.83 136.084 166.743 136.186C166.657 136.288 166.549 136.37 166.428 136.425C166.306 136.481 166.174 136.509 166.04 136.508Z" fill="#263238"/>
<path opacity="0.7" d="M166.04 136.508L163.18 136.56C162.899 136.562 162.627 136.46 162.416 136.274C162.205 136.089 162.07 135.832 162.036 135.553L161.819 133.848L166.738 133.757L166.944 135.439C166.968 135.57 166.962 135.705 166.927 135.834C166.892 135.964 166.83 136.084 166.743 136.186C166.657 136.288 166.549 136.37 166.428 136.425C166.306 136.481 166.174 136.509 166.04 136.508Z" fill="white"/>
<path d="M170.948 135.021H170.376C170.601 135.022 170.819 135.104 170.988 135.252C171.158 135.4 171.27 135.604 171.303 135.827L173.591 154.091C173.605 154.195 173.598 154.301 173.568 154.401C173.538 154.502 173.487 154.595 173.418 154.674C173.349 154.754 173.264 154.817 173.169 154.861C173.073 154.904 172.969 154.926 172.864 154.926H173.436C173.541 154.926 173.645 154.904 173.74 154.861C173.835 154.817 173.92 154.754 173.989 154.674C174.057 154.595 174.108 154.502 174.137 154.401C174.166 154.3 174.173 154.195 174.157 154.091L171.869 135.827C171.836 135.605 171.726 135.402 171.557 135.254C171.388 135.106 171.172 135.024 170.948 135.021Z" fill="white"/>
<path opacity="0.2" d="M194.143 131.823C194.32 132.212 190.453 147.622 190.453 147.622L193.399 148.92L194.143 131.823Z" fill="black"/>
<path d="M200.486 141.776C199.817 147.822 199.199 150.184 198.77 150.842C196.55 159.039 189.492 154.915 188.474 154.577C186.712 154.005 184.893 152.804 183.211 152.026C179.94 150.545 176.851 149.372 173.791 147.49L175.358 144.11C175.358 144.11 187.101 146.661 188.64 146.97C189.309 147.118 192.644 147.667 192.569 145.877C192.912 145.271 193.216 134.912 194.177 130.776C194.288 130.313 194.492 129.877 194.777 129.495L194.874 129.369C195.515 128.5 195.938 128.505 197.111 128.551C199.668 128.654 200.875 130.628 201.144 133.173C201.395 135.564 200.772 139.419 200.486 141.776Z" fill="#2DACD4"/>
<g opacity="0.7">
<path d="M200.486 141.776C199.817 147.822 199.199 150.184 198.77 150.842C196.55 159.039 189.492 154.915 188.474 154.577C186.712 154.005 184.893 152.804 183.211 152.026C179.94 150.545 176.851 149.372 173.791 147.49L175.358 144.11C175.358 144.11 187.101 146.661 188.64 146.97C189.309 147.118 192.644 147.667 192.569 145.877C192.912 145.271 193.216 134.912 194.177 130.776C194.288 130.313 194.492 129.877 194.777 129.495L194.874 129.369C195.515 128.5 195.938 128.505 197.111 128.551C199.668 128.654 200.875 130.628 201.144 133.173C201.395 135.564 200.772 139.419 200.486 141.776Z" fill="white"/>
</g>
<path d="M175.495 144.51C175.587 144.922 175.593 145.349 175.514 145.763C175.434 146.178 175.27 146.572 175.032 146.92C174.794 147.269 174.487 147.565 174.13 147.79C173.772 148.015 173.373 148.164 172.956 148.228C172.02 148.366 171.073 148.402 170.13 148.337L169.913 142.531L174.357 143.401C174.634 143.454 174.89 143.588 175.092 143.785C175.294 143.982 175.435 144.234 175.495 144.51Z" fill="#CE7A63"/>
<path d="M169.912 142.531L170.147 148.354L167.99 148.48C167.357 148.52 166.73 148.335 166.22 147.957C165.71 147.579 165.351 147.033 165.205 146.415L165.176 146.278C165.093 145.924 165.082 145.556 165.145 145.197C165.208 144.839 165.343 144.497 165.542 144.192C165.74 143.887 165.999 143.626 166.302 143.424C166.605 143.222 166.946 143.084 167.304 143.017L169.912 142.531Z" fill="#CE7A63"/>
<path d="M117.368 139.179L115.818 154.897H118.352L117.368 139.179Z" fill="#263238"/>
<path d="M136.285 154.806L118.089 154.88L117.203 139.185L135.392 139.104L136.285 154.806Z" fill="#2DACD4"/>
<path opacity="0.6" d="M136.285 154.806L118.089 154.88L117.203 139.185L135.392 139.104L136.285 154.806Z" fill="white"/>
<path d="M135.392 139.104L117.202 139.184L117.031 136.244L135.226 136.17L135.392 139.104Z" fill="#263238"/>
<path d="M119.754 135.261C119.745 135.131 119.688 135.01 119.593 134.921C119.499 134.832 119.374 134.781 119.245 134.78C119.182 134.779 119.119 134.791 119.062 134.816C119.004 134.84 118.952 134.877 118.908 134.922C118.865 134.968 118.832 135.022 118.811 135.082C118.791 135.141 118.782 135.204 118.787 135.267C118.787 135.438 118.884 137.034 118.896 137.206C118.904 137.336 118.961 137.458 119.056 137.548C119.15 137.638 119.274 137.689 119.405 137.692C119.467 137.692 119.529 137.679 119.587 137.654C119.644 137.63 119.696 137.593 119.739 137.548C119.782 137.502 119.815 137.448 119.836 137.39C119.857 137.331 119.866 137.268 119.862 137.206C119.857 137.068 119.765 135.398 119.754 135.261Z" fill="#2DACD4"/>
<path d="M123.254 135.249C123.247 135.118 123.19 134.995 123.096 134.905C123.001 134.815 122.876 134.764 122.745 134.763C122.682 134.763 122.619 134.775 122.562 134.8C122.504 134.826 122.452 134.862 122.409 134.909C122.366 134.955 122.333 135.009 122.312 135.069C122.291 135.128 122.283 135.192 122.287 135.255C122.287 135.426 122.385 137.022 122.396 137.194C122.406 137.324 122.465 137.445 122.56 137.534C122.655 137.623 122.781 137.673 122.911 137.674C122.973 137.674 123.035 137.662 123.093 137.637C123.15 137.612 123.202 137.576 123.245 137.53C123.288 137.485 123.321 137.431 123.342 137.372C123.363 137.313 123.372 137.25 123.369 137.188C123.357 137.051 123.266 135.386 123.254 135.249Z" fill="#2DACD4"/>
<path d="M126.761 135.232C126.751 135.101 126.692 134.98 126.597 134.891C126.502 134.802 126.376 134.752 126.246 134.751C126.183 134.75 126.121 134.762 126.063 134.787C126.005 134.811 125.953 134.847 125.91 134.893C125.867 134.939 125.834 134.993 125.813 135.052C125.792 135.112 125.784 135.175 125.788 135.237C125.788 135.409 125.891 137.005 125.897 137.176C125.906 137.307 125.964 137.43 126.059 137.52C126.155 137.611 126.281 137.661 126.412 137.663C126.475 137.662 126.537 137.648 126.594 137.623C126.652 137.598 126.703 137.561 126.746 137.515C126.789 137.469 126.822 137.415 126.843 137.355C126.864 137.296 126.873 137.233 126.869 137.171C126.858 137.033 126.767 135.369 126.761 135.232Z" fill="#2DACD4"/>
<path d="M130.262 135.221C130.253 135.09 130.195 134.967 130.1 134.876C130.004 134.786 129.878 134.736 129.747 134.734C129.684 134.735 129.623 134.748 129.566 134.773C129.509 134.798 129.457 134.835 129.415 134.88C129.372 134.926 129.339 134.979 129.317 135.038C129.296 135.096 129.286 135.158 129.289 135.221C129.289 135.392 129.392 136.994 129.404 137.165C129.412 137.295 129.469 137.416 129.564 137.505C129.658 137.595 129.783 137.645 129.913 137.646C129.975 137.647 130.038 137.635 130.096 137.61C130.154 137.586 130.206 137.549 130.249 137.504C130.292 137.458 130.325 137.404 130.346 137.345C130.367 137.285 130.375 137.222 130.37 137.16C130.365 137.022 130.267 135.358 130.262 135.221Z" fill="#2DACD4"/>
<path d="M133.762 135.203C133.753 135.074 133.696 134.952 133.602 134.863C133.507 134.774 133.383 134.724 133.253 134.723C133.19 134.722 133.128 134.734 133.07 134.758C133.012 134.783 132.96 134.819 132.917 134.865C132.874 134.911 132.841 134.965 132.82 135.024C132.799 135.083 132.79 135.146 132.795 135.209C132.795 135.381 132.892 136.976 132.904 137.148C132.91 137.278 132.966 137.402 133.061 137.491C133.156 137.581 133.282 137.63 133.413 137.628C133.476 137.629 133.538 137.617 133.596 137.593C133.654 137.568 133.706 137.532 133.749 137.486C133.792 137.441 133.825 137.386 133.846 137.327C133.867 137.268 133.875 137.205 133.871 137.142C133.848 137.005 133.768 135.34 133.762 135.203Z" fill="#2DACD4"/>
<g opacity="0.7">
<path d="M119.754 135.261C119.745 135.131 119.688 135.01 119.593 134.921C119.499 134.832 119.374 134.781 119.245 134.78C119.182 134.779 119.119 134.791 119.062 134.816C119.004 134.84 118.952 134.877 118.908 134.922C118.865 134.968 118.832 135.022 118.811 135.082C118.791 135.141 118.782 135.204 118.787 135.267C118.787 135.438 118.884 137.034 118.896 137.206C118.904 137.336 118.961 137.458 119.056 137.548C119.15 137.638 119.274 137.689 119.405 137.692C119.467 137.692 119.529 137.679 119.587 137.654C119.644 137.63 119.696 137.593 119.739 137.548C119.782 137.502 119.815 137.448 119.836 137.39C119.857 137.331 119.866 137.268 119.862 137.206C119.857 137.068 119.765 135.398 119.754 135.261Z" fill="white"/>
<path d="M123.254 135.249C123.247 135.118 123.19 134.995 123.096 134.905C123.001 134.815 122.876 134.764 122.745 134.763C122.682 134.763 122.619 134.775 122.562 134.8C122.504 134.826 122.452 134.862 122.409 134.909C122.366 134.955 122.333 135.009 122.312 135.069C122.291 135.128 122.283 135.192 122.287 135.255C122.287 135.426 122.385 137.022 122.396 137.194C122.406 137.324 122.465 137.445 122.56 137.534C122.655 137.623 122.781 137.673 122.911 137.674C122.973 137.674 123.035 137.662 123.093 137.637C123.15 137.612 123.202 137.576 123.245 137.53C123.288 137.485 123.321 137.431 123.342 137.372C123.363 137.313 123.372 137.25 123.369 137.188C123.357 137.051 123.266 135.386 123.254 135.249Z" fill="white"/>
<path d="M126.761 135.232C126.751 135.101 126.692 134.98 126.597 134.891C126.502 134.802 126.376 134.752 126.246 134.751C126.183 134.75 126.121 134.762 126.063 134.787C126.005 134.811 125.953 134.847 125.91 134.893C125.867 134.939 125.834 134.993 125.813 135.052C125.792 135.112 125.784 135.175 125.788 135.237C125.788 135.409 125.891 137.005 125.897 137.176C125.906 137.307 125.964 137.43 126.059 137.52C126.155 137.611 126.281 137.661 126.412 137.663C126.475 137.662 126.537 137.648 126.594 137.623C126.652 137.598 126.703 137.561 126.746 137.515C126.789 137.469 126.822 137.415 126.843 137.355C126.864 137.296 126.873 137.233 126.869 137.171C126.858 137.033 126.767 135.369 126.761 135.232Z" fill="white"/>
<path d="M130.261 135.221C130.252 135.09 130.195 134.967 130.099 134.876C130.004 134.786 129.878 134.736 129.746 134.734C129.684 134.735 129.622 134.748 129.565 134.773C129.508 134.798 129.457 134.835 129.414 134.88C129.371 134.926 129.338 134.979 129.317 135.038C129.295 135.096 129.286 135.158 129.289 135.221C129.289 135.392 129.392 136.994 129.403 137.165C129.412 137.295 129.469 137.416 129.563 137.505C129.658 137.595 129.782 137.645 129.912 137.646C129.975 137.647 130.037 137.635 130.095 137.61C130.153 137.586 130.205 137.549 130.248 137.504C130.291 137.458 130.324 137.404 130.345 137.345C130.366 137.285 130.375 137.222 130.37 137.16C130.364 137.022 130.267 135.358 130.261 135.221Z" fill="white"/>
<path d="M133.762 135.203C133.753 135.074 133.696 134.952 133.602 134.863C133.507 134.774 133.383 134.724 133.253 134.723C133.19 134.722 133.128 134.734 133.07 134.758C133.012 134.783 132.96 134.819 132.917 134.865C132.874 134.911 132.841 134.965 132.82 135.024C132.799 135.083 132.79 135.146 132.795 135.209C132.795 135.381 132.892 136.976 132.904 137.148C132.91 137.278 132.966 137.402 133.061 137.491C133.156 137.581 133.282 137.63 133.413 137.628C133.476 137.629 133.538 137.617 133.596 137.593C133.654 137.568 133.706 137.532 133.749 137.486C133.792 137.441 133.825 137.386 133.846 137.327C133.867 137.268 133.875 137.205 133.871 137.142C133.848 137.005 133.768 135.34 133.762 135.203Z" fill="white"/>
</g>
<path d="M136.794 154.365L118.598 154.44L117.203 139.185L135.392 139.104L136.794 154.365Z" fill="#2DACD4"/>
<path opacity="0.8" d="M136.794 154.365L118.598 154.44L117.203 139.185L135.392 139.104L136.794 154.365Z" fill="white"/>
<path d="M131.543 142.874L122.534 142.908L122.288 140.226L131.297 140.186L131.543 142.874Z" fill="#2DACD4"/>
<path opacity="0.6" d="M131.543 142.874L122.534 142.908L122.288 140.226L131.297 140.186L131.543 142.874Z" fill="white"/>
<path d="M121.338 146.386L118.93 146.397L118.707 143.989L121.115 143.978L121.338 146.386Z" fill="white"/>
<path d="M124.747 146.368L122.345 146.38L122.122 143.977L124.53 143.966L124.747 146.368Z" fill="white"/>
<path d="M121.63 149.629L119.227 149.64L119.004 147.232L121.413 147.221L121.63 149.629Z" fill="#2DACD4"/>
<path d="M121.927 152.872L119.525 152.884L119.302 150.475L121.71 150.47L121.927 152.872Z" fill="#2DACD4"/>
<path d="M125.045 149.617L122.643 149.623L122.419 147.22L124.822 147.209L125.045 149.617Z" fill="#2DACD4"/>
<path opacity="0.2" d="M125.045 149.617L122.643 149.623L122.419 147.22L124.822 147.209L125.045 149.617Z" fill="white"/>
<path d="M128.459 149.601L126.051 149.612L125.834 147.204L128.236 147.192L128.459 149.601Z" fill="#2DACD4"/>
<path opacity="0.2" d="M128.459 149.601L126.051 149.612L125.834 147.204L128.236 147.192L128.459 149.601Z" fill="white"/>
<path d="M131.869 149.589L129.466 149.595L129.243 147.192L131.651 147.181L131.869 149.589Z" fill="#2DACD4"/>
<path opacity="0.2" d="M131.869 149.589L129.466 149.595L129.243 147.192L131.651 147.181L131.869 149.589Z" fill="white"/>
<path d="M135.284 149.572L132.876 149.584L132.658 147.176L135.061 147.17L135.284 149.572Z" fill="#2DACD4"/>
<path opacity="0.2" d="M135.284 149.572L132.876 149.584L132.658 147.176L135.061 147.17L135.284 149.572Z" fill="white"/>
<path d="M125.342 152.861L122.934 152.873L122.717 150.465L125.125 150.453L125.342 152.861Z" fill="#2DACD4"/>
<path opacity="0.2" d="M125.342 152.861L122.934 152.873L122.717 150.465L125.125 150.453L125.342 152.861Z" fill="white"/>
<path d="M128.751 152.844L126.349 152.855L126.126 150.447L128.534 150.441L128.751 152.844Z" fill="#2DACD4"/>
<path opacity="0.2" d="M128.751 152.844L126.349 152.855L126.126 150.447L128.534 150.441L128.751 152.844Z" fill="white"/>
<path d="M132.166 152.832L129.764 152.843L129.541 150.435L131.949 150.424L132.166 152.832Z" fill="#2DACD4"/>
<path opacity="0.2" d="M132.166 152.832L129.764 152.843L129.541 150.435L131.949 150.424L132.166 152.832Z" fill="white"/>
<path d="M128.162 146.357L125.754 146.369L125.537 143.961L127.939 143.949L128.162 146.357Z" fill="#2DACD4"/>
<path opacity="0.2" d="M128.162 146.357L125.754 146.369L125.537 143.961L127.939 143.949L128.162 146.357Z" fill="white"/>
<path d="M131.571 146.34L129.169 146.351L128.946 143.949L131.354 143.938L131.571 146.34Z" fill="#2DACD4"/>
<path opacity="0.2" d="M131.571 146.34L129.169 146.351L128.946 143.949L131.354 143.938L131.571 146.34Z" fill="white"/>
<path d="M134.986 146.329L132.578 146.34L132.36 143.932L134.763 143.921L134.986 146.329Z" fill="#2DACD4"/>
<path opacity="0.2" d="M134.986 146.329L132.578 146.34L132.36 143.932L134.763 143.921L134.986 146.329Z" fill="white"/>
<path d="M135.581 152.815L133.173 152.827L132.956 150.425L135.358 150.413L135.581 152.815Z" fill="white"/>
<path d="M93.4529 159.444V162.934H72.9525L70.7388 235.709H68.8569V159.444H93.4529Z" fill="#263238"/>
<path opacity="0.7" d="M93.4529 159.444V162.934H72.9525L70.7388 235.709H68.8569V159.444H93.4529Z" fill="white"/>
<path d="M68.8573 235.709H67.0783L66.5063 159.444H68.8573V235.709Z" fill="#263238"/>
<g opacity="0.3">
<path d="M68.8573 235.709H67.0783L66.5063 159.444H68.8573V235.709Z" fill="white"/>
</g>
<path d="M99.2874 159.444V235.709H97.4227L95.7639 162.934H93.5674V159.444H99.2874Z" fill="#263238"/>
<path d="M97.6343 235.709H95.8554L93.5674 159.444H95.9183L97.6343 235.709Z" fill="#263238"/>
<g opacity="0.3">
<path d="M97.6343 235.709H95.8554L93.5674 159.444H95.9183L97.6343 235.709Z" fill="white"/>
</g>
<path opacity="0.7" d="M99.2874 159.444V235.709H97.4227L95.7639 162.934H93.5674V159.444H99.2874Z" fill="white"/>
<path d="M211.153 235.709H209.38L207.092 159.444H209.437L211.153 235.709Z" fill="#263238"/>
<path opacity="0.3" d="M207.092 159.444H209.437L211.153 235.709H209.38" fill="white"/>
<path d="M180.677 159.444H68.8687V165.227H180.677V159.444Z" fill="#263238"/>
<path opacity="0.5" d="M180.677 159.444H68.8687V165.227H180.677V159.444Z" fill="white"/>
<path d="M182.497 159.444V235.709H184.373L186.586 162.928H209.289L210.948 235.709H212.813V159.444H182.497Z" fill="#263238"/>
<path opacity="0.7" d="M182.497 159.444V235.709H184.373L186.586 162.928H209.289L210.948 235.709H212.813V159.444H182.497Z" fill="white"/>
<path d="M182.496 235.709H180.718L180.146 159.444H182.496V235.709Z" fill="#263238"/>
<path opacity="0.3" d="M182.496 235.709H180.718L180.146 159.444H182.496V235.709Z" fill="white"/>
<path d="M181.026 155.058H63.3945V159.445H181.026V155.058Z" fill="#263238"/>
<path opacity="0.6" d="M181.026 155.058H63.3945V159.445H181.026V155.058Z" fill="white"/>
<path d="M215.924 155.058H178.298V159.445H215.924V155.058Z" fill="#263238"/>
<path opacity="0.7" d="M215.924 155.058H178.298V159.445H215.924V155.058Z" fill="white"/>
<path d="M111.626 145.745H42.9515C52.5668 110.968 33.3362 76.2074 42.9515 41.4355H111.626C102.01 76.2074 121.264 110.968 111.626 145.745Z" fill="#2DACD4"/>
<path opacity="0.7" d="M111.626 145.745H42.9515C52.5668 110.968 33.3362 76.2074 42.9515 41.4355H111.626C102.01 76.2074 121.264 110.968 111.626 145.745Z" fill="white"/>
<path d="M103.641 63.2743H72.6098C72.5294 63.2743 72.4523 63.2424 72.3954 63.1855C72.3386 63.1286 72.3066 63.0515 72.3066 62.9711C72.3066 62.8907 72.3386 62.8136 72.3954 62.7568C72.4523 62.6999 72.5294 62.668 72.6098 62.668H103.641C103.721 62.668 103.798 62.6999 103.855 62.7568C103.912 62.8136 103.944 62.8907 103.944 62.9711C103.944 63.0515 103.912 63.1286 103.855 63.1855C103.798 63.2424 103.721 63.2743 103.641 63.2743Z" fill="#263238"/>
<path d="M103.789 69.4403H72.7585C72.6774 69.439 72.5999 69.4069 72.5415 69.3507C72.4831 69.2944 72.4482 69.2181 72.4439 69.1371C72.4415 69.0982 72.4472 69.0591 72.4605 69.0224C72.4738 68.9857 72.4945 68.9521 72.5213 68.9237C72.5481 68.8953 72.5804 68.8727 72.6163 68.8573C72.6522 68.8418 72.6908 68.8339 72.7299 68.834H103.761C103.843 68.8352 103.921 68.8671 103.98 68.9232C104.039 68.9793 104.075 69.0557 104.081 69.1371C104.083 69.1764 104.076 69.2156 104.062 69.2523C104.048 69.289 104.027 69.3225 104 69.3509C103.973 69.3792 103.94 69.4017 103.904 69.4171C103.868 69.4324 103.829 69.4403 103.789 69.4403Z" fill="#263238"/>
<path d="M104.19 75.6356H45.846C45.7634 75.6334 45.6845 75.6016 45.6235 75.5459C45.5626 75.4902 45.5238 75.4144 45.5142 75.3325C45.5102 75.2941 45.5143 75.2553 45.5263 75.2186C45.5383 75.1819 45.5578 75.1482 45.5838 75.1195C45.6097 75.0909 45.6413 75.0681 45.6766 75.0526C45.7119 75.037 45.7502 75.0291 45.7888 75.0293H104.133C104.215 75.0304 104.294 75.0621 104.354 75.1181C104.414 75.1741 104.452 75.2505 104.459 75.3325C104.463 75.3704 104.459 75.4087 104.447 75.445C104.436 75.4813 104.416 75.5147 104.391 75.5433C104.366 75.5718 104.335 75.5947 104.3 75.6106C104.266 75.6265 104.228 75.635 104.19 75.6356Z" fill="#263238"/>
<path d="M109.041 128.511H50.6794C50.6399 128.512 50.6006 128.504 50.5641 128.489C50.5276 128.474 50.4945 128.452 50.4671 128.423C50.4397 128.395 50.4185 128.361 50.4048 128.324C50.3912 128.287 50.3853 128.247 50.3877 128.208C50.3935 128.127 50.4298 128.051 50.4893 127.996C50.5487 127.941 50.6269 127.91 50.708 127.91H109.052C109.091 127.909 109.129 127.917 109.165 127.931C109.201 127.946 109.233 127.968 109.26 127.996C109.287 128.024 109.308 128.057 109.321 128.094C109.335 128.13 109.34 128.169 109.338 128.208C109.335 128.286 109.303 128.361 109.248 128.417C109.193 128.473 109.119 128.507 109.041 128.511Z" fill="#263238"/>
<path d="M69.2122 139.11H49.5125C49.4748 139.111 49.4373 139.104 49.403 139.088C49.3687 139.072 49.3385 139.049 49.3147 139.019C49.2909 138.99 49.2742 138.956 49.2659 138.919C49.2575 138.882 49.2577 138.844 49.2665 138.807C49.2831 138.724 49.3271 138.649 49.3914 138.594C49.4557 138.539 49.5366 138.507 49.6212 138.504H69.3037C69.3414 138.503 69.3789 138.511 69.4132 138.526C69.4475 138.542 69.4777 138.566 69.5015 138.595C69.5252 138.624 69.542 138.659 69.5503 138.695C69.5587 138.732 69.5584 138.77 69.5497 138.807C69.5338 138.887 69.4924 138.96 69.4315 139.015C69.3707 139.07 69.2937 139.103 69.2122 139.11Z" fill="#263238"/>
<path d="M108.074 139.11H88.3914C88.3537 139.111 88.3162 139.104 88.2819 139.088C88.2476 139.072 88.2174 139.049 88.1936 139.019C88.1698 138.99 88.1531 138.956 88.1448 138.919C88.1364 138.882 88.1366 138.844 88.1454 138.807C88.1611 138.724 88.2048 138.648 88.2693 138.593C88.3338 138.538 88.4152 138.506 88.5001 138.504H108.183C108.22 138.503 108.258 138.511 108.292 138.526C108.326 138.542 108.357 138.566 108.38 138.595C108.404 138.624 108.421 138.659 108.429 138.695C108.438 138.732 108.437 138.77 108.429 138.807C108.412 138.89 108.368 138.965 108.304 139.02C108.239 139.075 108.158 139.107 108.074 139.11Z" fill="#263238"/>
<path d="M61.3243 55.5523C61.3243 58.1434 59.3738 59.7565 56.2678 59.7565H53.9226V62.9654H51.2285V51.3252H56.2678C59.3738 51.3252 61.3243 52.9382 61.3243 55.5523ZM58.5959 55.5523C58.5959 54.271 57.7608 53.5217 56.1191 53.5217H53.9226V57.56H56.1191C57.7722 57.56 58.5959 56.8164 58.5959 55.5523Z" fill="#2DACD4"/>
<path d="M63.1717 69.6177L60.3631 65.5794L57.6004 69.6177H54.5059L58.813 63.6975L54.7232 57.9775H57.772L60.4489 61.7527L63.0801 57.9775H65.9916L61.9304 63.6003L66.2719 69.6177H63.1717Z" fill="#2DACD4"/>
<path d="M49.5236 79.5078C49.5236 80.1484 49.0431 80.5488 48.2709 80.5488H47.6989V81.3439H47.0239V78.4839H48.2709C49.0431 78.4324 49.5236 78.8328 49.5236 79.5078ZM48.8486 79.5078C48.8486 79.1932 48.6427 79.0044 48.2366 79.0044H47.6646V80.0054H48.2366C48.6198 79.9768 48.8486 79.7938 48.8486 79.5078Z" fill="#263238"/>
<path d="M51.3258 79.0671V79.6391H51.1771C51.0979 79.6389 51.0196 79.655 50.9471 79.6866C50.8745 79.7182 50.8093 79.7644 50.7555 79.8225C50.7018 79.8805 50.6606 79.9491 50.6347 80.0239C50.6088 80.0987 50.5987 80.178 50.6051 80.2569V81.3036H49.9473V79.09H50.5593V79.3817C50.6524 79.2716 50.7707 79.1855 50.9041 79.1307C51.0375 79.076 51.1822 79.0542 51.3258 79.0671Z" fill="#263238"/>
<path d="M53.8366 80.3886H52.1663C52.1966 80.528 52.278 80.6511 52.3944 80.7337C52.5108 80.8162 52.6539 80.8523 52.7955 80.8347C52.9008 80.8408 53.0061 80.8246 53.1047 80.7871C53.2033 80.7497 53.2928 80.6918 53.3675 80.6174L53.7107 80.9892C53.5377 81.1564 53.3213 81.2718 53.0861 81.3222C52.8508 81.3726 52.6061 81.3561 52.3798 81.2745C52.1534 81.1929 51.9545 81.0495 51.8056 80.8605C51.6566 80.6716 51.5636 80.4447 51.5371 80.2055C51.537 80.0524 51.5677 79.9008 51.6274 79.7597C51.687 79.6186 51.7743 79.4909 51.8842 79.3842C51.9941 79.2775 52.1243 79.194 52.2671 79.1386C52.4099 79.0831 52.5623 79.0569 52.7154 79.0615C52.8674 79.0551 53.019 79.0802 53.1608 79.1354C53.3025 79.1906 53.4312 79.2747 53.5388 79.3822C53.6463 79.4898 53.7303 79.6185 53.7855 79.7602C53.8407 79.9019 53.8659 80.0536 53.8594 80.2055C53.8537 80.2627 53.8423 80.3371 53.8366 80.3886ZM52.1549 80.0111H53.2474C53.2112 79.8945 53.1386 79.7926 53.0404 79.7202C52.9421 79.6478 52.8232 79.6087 52.7011 79.6087C52.5791 79.6087 52.4602 79.6478 52.3619 79.7202C52.2636 79.7926 52.1911 79.8945 52.1549 80.0111Z" fill="#263238"/>
<path d="M54.0596 81.1098L54.2769 80.6465C54.5074 80.7884 54.7727 80.8636 55.0434 80.8638C55.3409 80.8638 55.4552 80.7838 55.4552 80.6579C55.4552 80.2976 54.1168 80.6579 54.1168 79.7828C54.1168 79.3652 54.4943 79.0678 55.1407 79.0678C55.4364 79.0616 55.7291 79.1284 55.9929 79.2623L55.7756 79.7198C55.5826 79.6086 55.3633 79.5513 55.1407 79.554C54.8547 79.554 54.7288 79.6455 54.7288 79.7599C54.7288 80.1374 56.0673 79.7599 56.0673 80.6465C56.0673 81.0526 55.6841 81.3501 55.0205 81.3501C54.6846 81.3564 54.353 81.2735 54.0596 81.1098Z" fill="#263238"/>
<path d="M56.2965 80.2059C56.296 80.0482 56.3282 79.8921 56.391 79.7474C56.4538 79.6027 56.5458 79.4725 56.6613 79.3651C56.7768 79.2577 56.9132 79.1753 57.0621 79.1231C57.211 79.0709 57.369 79.0501 57.5263 79.0619C57.7306 79.0453 57.9351 79.0911 58.1128 79.1932C58.2905 79.2954 58.4331 79.449 58.5216 79.6339L58.0239 79.897C57.9758 79.8066 57.9041 79.7307 57.8166 79.6773C57.7291 79.624 57.6288 79.5952 57.5263 79.5939C57.364 79.5939 57.2083 79.6584 57.0935 79.7731C56.9787 79.8879 56.9142 80.0436 56.9142 80.2059C56.9142 80.3682 56.9787 80.5239 57.0935 80.6387C57.2083 80.7535 57.364 80.818 57.5263 80.818C57.6296 80.8206 57.7315 80.7934 57.8197 80.7396C57.908 80.6859 57.9789 80.6078 58.0239 80.5148L58.5216 80.7894C58.4312 80.9727 58.2883 81.1251 58.111 81.2269C57.9338 81.3288 57.7302 81.3756 57.5263 81.3614C57.368 81.3733 57.209 81.3521 57.0594 81.2993C56.9097 81.2464 56.7727 81.163 56.6571 81.0543C56.5414 80.9457 56.4496 80.8141 56.3875 80.6681C56.3255 80.522 56.2944 80.3646 56.2965 80.2059Z" fill="#263238"/>
<path d="M60.2602 79.0679V79.6399H60.1172C60.0381 79.6396 59.9598 79.6558 59.8872 79.6874C59.8147 79.7189 59.7494 79.7652 59.6957 79.8232C59.6419 79.8813 59.6008 79.9499 59.5749 80.0247C59.549 80.0994 59.5389 80.1788 59.5452 80.2576V81.3044H58.916V79.0908H59.488V79.3825C59.5814 79.2711 59.7005 79.1843 59.8351 79.1294C59.9697 79.0746 60.1156 79.0535 60.2602 79.0679Z" fill="#263238"/>
<path d="M60.5635 78.4321C60.5648 78.382 60.5765 78.3326 60.5977 78.2872C60.6188 78.2417 60.6492 78.2011 60.6867 78.1679C60.7242 78.1346 60.7682 78.1094 60.8159 78.0939C60.8636 78.0783 60.9139 78.0727 60.9639 78.0775C61.013 78.0719 61.0628 78.0766 61.1101 78.0911C61.1574 78.1056 61.2012 78.1298 61.2387 78.1619C61.2763 78.1941 61.3068 78.2337 61.3284 78.2782C61.35 78.3227 61.3622 78.3712 61.3643 78.4207C61.3643 78.5269 61.3221 78.6287 61.247 78.7038C61.1719 78.7789 61.0701 78.8211 60.9639 78.8211C60.8577 78.8211 60.7558 78.7789 60.6808 78.7038C60.6057 78.6287 60.5635 78.5269 60.5635 78.4207V78.4321ZM60.6436 79.1013H61.2842V81.315H60.6321L60.6436 79.1013Z" fill="#263238"/>
<path d="M64.2927 80.2061C64.3015 80.3552 64.2792 80.5045 64.2274 80.6446C64.1755 80.7847 64.0952 80.9125 63.9914 81.02C63.8877 81.1275 63.7628 81.2123 63.6247 81.2691C63.4865 81.3259 63.3381 81.3535 63.1888 81.3501C63.0646 81.355 62.9407 81.3336 62.8254 81.2873C62.71 81.241 62.6058 81.1707 62.5195 81.0812V82.1108H61.8789V79.1021H62.4909V79.3538C62.5786 79.2571 62.6867 79.1813 62.8075 79.1318C62.9282 79.0823 63.0585 79.0604 63.1888 79.0678C63.3376 79.0644 63.4855 79.0919 63.6233 79.1483C63.761 79.2048 63.8856 79.2891 63.9892 79.396C64.0929 79.5028 64.1733 79.6299 64.2256 79.7693C64.2778 79.9087 64.3007 80.0574 64.2927 80.2061ZM63.6407 80.2061C63.6329 80.095 63.5928 79.9886 63.5254 79.8999C63.458 79.8113 63.3662 79.7442 63.2612 79.707C63.1563 79.6698 63.0427 79.664 62.9345 79.6904C62.8263 79.7168 62.7282 79.7742 62.6522 79.8556C62.5761 79.9369 62.5255 80.0387 62.5065 80.1484C62.4875 80.2582 62.5009 80.3711 62.5451 80.4733C62.5893 80.5755 62.6624 80.6626 62.7554 80.7238C62.8484 80.7851 62.9573 80.8178 63.0687 80.8181C63.1473 80.8183 63.2251 80.8023 63.2972 80.7711C63.3694 80.7399 63.4343 80.6941 63.488 80.6367C63.5416 80.5793 63.5829 80.5114 63.6092 80.4373C63.6354 80.3632 63.6462 80.2845 63.6407 80.2061Z" fill="#263238"/>
<path d="M66.1462 81.2238C65.9894 81.3239 65.8059 81.3737 65.62 81.3668C65.5107 81.3822 65.3994 81.3725 65.2944 81.3384C65.1895 81.3043 65.0937 81.2468 65.0143 81.1701C64.9349 81.0935 64.874 80.9998 64.8362 80.8961C64.7985 80.7924 64.7848 80.6815 64.7963 80.5717V79.6623H64.4531V79.1646H64.7963V78.627H65.437V79.1646H66.009V79.6623H65.437V80.5603C65.4317 80.5984 65.4351 80.6371 65.4468 80.6737C65.4585 80.7103 65.4782 80.7438 65.5045 80.7718C65.5309 80.7998 65.5631 80.8215 65.5989 80.8354C65.6348 80.8493 65.6732 80.855 65.7115 80.852C65.8037 80.8537 65.894 80.8256 65.9689 80.772L66.1462 81.2238Z" fill="#263238"/>
<path d="M66.4263 78.4325C66.4276 78.3823 66.4392 78.333 66.4604 78.2876C66.4816 78.2421 66.512 78.2015 66.5495 78.1683C66.587 78.135 66.631 78.1098 66.6787 78.0943C66.7264 78.0787 66.7767 78.0731 66.8267 78.0778C66.8754 78.0731 66.9245 78.0784 66.9712 78.0933C67.0178 78.1082 67.0609 78.1325 67.0978 78.1646C67.1347 78.1967 67.1647 78.236 67.186 78.2801C67.2072 78.3242 67.2192 78.3722 67.2213 78.421C67.2097 78.5183 67.1628 78.6078 67.0895 78.6728C67.0163 78.7378 66.9217 78.7737 66.8238 78.7737C66.7259 78.7737 66.6314 78.7378 66.5581 78.6728C66.4849 78.6078 66.438 78.5183 66.4263 78.421V78.4325ZM66.5006 79.1017H67.147V81.3154H66.5006V79.1017Z" fill="#263238"/>
<path d="M67.576 80.2058C67.5611 79.9622 67.6197 79.7198 67.7442 79.5099C67.8687 79.3 68.0534 79.1323 68.2743 79.0286C68.4952 78.9249 68.7421 78.8899 68.9832 78.9282C69.2242 78.9664 69.4482 79.0762 69.6261 79.2433C69.804 79.4103 69.9276 79.6269 69.981 79.8651C70.0343 80.1032 70.0149 80.3519 69.9253 80.5789C69.8357 80.8059 69.68 81.0007 69.4783 81.1382C69.2767 81.2756 69.0384 81.3494 68.7944 81.3498C68.638 81.36 68.4812 81.3379 68.3337 81.285C68.1862 81.2321 68.0512 81.1495 67.9369 81.0422C67.8227 80.9349 67.7317 80.8054 67.6696 80.6615C67.6075 80.5176 67.5757 80.3625 67.576 80.2058ZM69.3549 80.2058C69.3471 80.0947 69.3071 79.9883 69.2397 79.8997C69.1723 79.811 69.0805 79.744 68.9755 79.7067C68.8705 79.6695 68.757 79.6638 68.6488 79.6901C68.5406 79.7165 68.4425 79.7739 68.3664 79.8553C68.2904 79.9366 68.2397 80.0384 68.2207 80.1482C68.2017 80.2579 68.2151 80.3708 68.2594 80.473C68.3036 80.5752 68.3767 80.6623 68.4697 80.7235C68.5627 80.7848 68.6716 80.8176 68.7829 80.8178C68.8615 80.818 68.9393 80.802 69.0115 80.7708C69.0836 80.7396 69.1486 80.6938 69.2022 80.6364C69.2559 80.579 69.2972 80.5111 69.3234 80.437C69.3497 80.3629 69.3604 80.2842 69.3549 80.2058Z" fill="#263238"/>
<path d="M72.6957 80.0457V81.3155H72.0722V80.1715C72.0722 79.8169 71.9064 79.651 71.6204 79.651C71.3344 79.651 71.0941 79.8397 71.0941 80.223V81.3212H70.4478V79.1076H71.0655V79.365C71.1602 79.2676 71.2744 79.1914 71.4005 79.1411C71.5267 79.0908 71.662 79.0677 71.7977 79.0733C71.9237 79.0672 72.0495 79.0889 72.1663 79.1367C72.283 79.1845 72.3879 79.2573 72.4735 79.35C72.5591 79.4427 72.6234 79.553 72.6617 79.6732C72.7001 79.7934 72.7117 79.9205 72.6957 80.0457Z" fill="#263238"/>
<path d="M73.1186 79.4673C73.1161 79.4149 73.1247 79.3625 73.1436 79.3135C73.1626 79.2645 73.1916 79.22 73.2287 79.1828C73.2659 79.1457 73.3104 79.1167 73.3594 79.0977C73.4084 79.0788 73.4608 79.0702 73.5133 79.0727C73.566 79.0703 73.6186 79.0788 73.6679 79.0977C73.7172 79.1166 73.762 79.1455 73.7996 79.1826C73.8372 79.2196 73.8668 79.2641 73.8864 79.3131C73.906 79.3621 73.9153 79.4146 73.9137 79.4673C73.9152 79.5204 73.906 79.5731 73.8864 79.6224C73.8668 79.6717 73.8374 79.7165 73.7999 79.754C73.7624 79.7915 73.7176 79.8209 73.6683 79.8405C73.619 79.8601 73.5663 79.8693 73.5133 79.8678C73.4607 79.8685 73.4086 79.8587 73.3599 79.8388C73.3113 79.8189 73.2672 79.7893 73.2304 79.7519C73.1935 79.7145 73.1645 79.67 73.1453 79.6211C73.1261 79.5722 73.117 79.5199 73.1186 79.4673ZM73.1186 80.9431C73.1161 80.8906 73.1247 80.8382 73.1436 80.7892C73.1626 80.7402 73.1916 80.6957 73.2287 80.6586C73.2659 80.6214 73.3104 80.5925 73.3594 80.5735C73.4084 80.5545 73.4608 80.546 73.5133 80.5484C73.566 80.546 73.6186 80.5546 73.6679 80.5735C73.7172 80.5924 73.762 80.6213 73.7996 80.6583C73.8372 80.6954 73.8668 80.7398 73.8864 80.7888C73.906 80.8378 73.9153 80.8903 73.9137 80.9431C73.9152 80.9964 73.9059 81.0494 73.8864 81.099C73.8669 81.1486 73.8376 81.1937 73.8002 81.2317C73.7628 81.2696 73.7181 81.2996 73.6688 81.3198C73.6194 81.34 73.5665 81.35 73.5133 81.3492C73.4602 81.3501 73.4076 81.34 73.3586 81.3198C73.3095 81.2995 73.2652 81.2694 73.2282 81.2314C73.1912 81.1934 73.1625 81.1482 73.1436 81.0986C73.1247 81.049 73.1162 80.9961 73.1186 80.9431Z" fill="#263238"/>
<path d="M126.121 78.9145L115.951 75.6765C114.112 75.0909 112.146 76.1072 111.56 77.9464L100.456 112.824C99.8708 114.663 100.887 116.629 102.726 117.214L112.897 120.452C114.736 121.038 116.702 120.022 117.287 118.182L128.391 83.3049C128.977 81.4657 127.961 79.5 126.121 78.9145Z" fill="black"/>
<path opacity="0.8" d="M128.551 82.3678C128.545 82.6923 128.491 83.0142 128.391 83.323L117.288 118.215C117.251 118.333 117.207 118.45 117.157 118.564C116.81 119.354 116.184 119.987 115.398 120.342C114.612 120.697 113.723 120.748 112.901 120.486L102.725 117.248C101.858 116.97 101.133 116.364 100.706 115.56C100.278 114.755 100.182 113.816 100.437 112.941L106.844 92.8239L111.54 77.9462C111.677 77.5076 111.9 77.1005 112.195 76.748C112.49 76.3955 112.851 76.1047 113.259 75.8922C113.666 75.6797 114.112 75.5496 114.57 75.5095C115.028 75.4693 115.489 75.5199 115.927 75.6582L126.126 78.9358C126.348 79.0069 126.563 79.1008 126.766 79.2161C127.325 79.5268 127.787 79.9853 128.101 80.5413C128.416 81.0972 128.572 81.7292 128.551 82.3678Z" fill="white"/>
<g opacity="0.6">
<path opacity="0.5" d="M103.944 101.879L108.56 87.3904L121.63 77.4834L126.778 79.1994C127.337 79.5106 127.8 79.97 128.115 80.5271C128.429 81.0841 128.585 81.7173 128.563 82.3568L103.944 101.879Z" fill="white"/>
</g>
<path opacity="0.5" d="M110.396 81.567L111.54 77.9462C111.677 77.5076 111.9 77.1005 112.195 76.748C112.49 76.3955 112.851 76.1047 113.259 75.8922C113.667 75.6797 114.112 75.5496 114.57 75.5095C115.028 75.4693 115.489 75.5199 115.927 75.6582L117.454 76.1444L110.396 81.567Z" fill="white"/>
<path d="M117.414 81.4244C117.334 81.6766 117.18 81.8994 116.974 82.0645C116.767 82.2295 116.515 82.3296 116.252 82.3519C115.988 82.3742 115.723 82.3178 115.492 82.1898C115.26 82.0618 115.071 81.868 114.95 81.6329C114.828 81.3977 114.779 81.1318 114.809 80.8688C114.838 80.6057 114.945 80.3573 115.116 80.155C115.287 79.9527 115.513 79.8055 115.768 79.7321C116.022 79.6588 116.292 79.6624 116.545 79.7427C116.713 79.7954 116.868 79.8808 117.003 79.994C117.138 80.1072 117.249 80.246 117.33 80.4024C117.411 80.5587 117.46 80.7295 117.474 80.905C117.489 81.0804 117.468 81.2569 117.414 81.4244Z" fill="#2DACD4"/>
<path d="M114.863 89.4208C114.783 89.6718 114.63 89.8934 114.424 90.0574C114.217 90.2215 113.967 90.3207 113.704 90.3426C113.442 90.3644 113.179 90.3079 112.948 90.1802C112.718 90.0524 112.53 89.8592 112.409 89.6249C112.289 89.3907 112.24 89.1259 112.27 88.864C112.299 88.6021 112.406 88.3549 112.576 88.1537C112.747 87.9525 112.973 87.8062 113.226 87.7335C113.479 87.6607 113.748 87.6646 114 87.7448C114.166 87.7981 114.321 87.8838 114.455 87.9968C114.588 88.1099 114.698 88.2482 114.779 88.4039C114.859 88.5595 114.908 88.7294 114.922 88.9039C114.937 89.0784 114.917 89.2541 114.863 89.4208Z" fill="#2DACD4"/>
<path d="M112.318 97.4231C112.238 97.676 112.086 97.8995 111.879 98.0655C111.672 98.2315 111.421 98.3324 111.157 98.3555C110.893 98.3785 110.628 98.3227 110.396 98.1951C110.164 98.0674 109.975 97.8737 109.853 97.6384C109.73 97.4032 109.681 97.137 109.71 96.8736C109.74 96.6102 109.847 96.3615 110.018 96.159C110.189 95.9564 110.416 95.8091 110.67 95.7358C110.925 95.6625 111.196 95.6665 111.448 95.7471C111.615 95.7998 111.771 95.885 111.905 95.9979C112.039 96.1107 112.15 96.2489 112.231 96.4046C112.312 96.5603 112.361 96.7304 112.376 96.9052C112.391 97.08 112.371 97.256 112.318 97.4231Z" fill="#2DACD4"/>
<path d="M109.773 105.425C109.692 105.678 109.539 105.9 109.332 106.065C109.125 106.231 108.874 106.331 108.61 106.353C108.346 106.375 108.082 106.319 107.85 106.191C107.618 106.063 107.43 105.869 107.308 105.634C107.187 105.399 107.138 105.133 107.167 104.87C107.197 104.607 107.303 104.358 107.474 104.156C107.645 103.954 107.872 103.807 108.126 103.733C108.38 103.66 108.651 103.663 108.903 103.744C109.071 103.796 109.227 103.882 109.362 103.995C109.496 104.108 109.607 104.247 109.688 104.403C109.769 104.56 109.818 104.731 109.833 104.906C109.847 105.081 109.827 105.258 109.773 105.425Z" fill="#2DACD4"/>
<path d="M107.227 113.422C107.147 113.675 106.995 113.899 106.788 114.065C106.582 114.231 106.33 114.331 106.066 114.354C105.802 114.378 105.537 114.322 105.305 114.194C105.073 114.066 104.884 113.873 104.762 113.637C104.64 113.402 104.59 113.136 104.62 112.873C104.649 112.609 104.756 112.361 104.927 112.158C105.098 111.955 105.325 111.808 105.58 111.735C105.834 111.662 106.105 111.665 106.357 111.746C106.693 111.855 106.973 112.092 107.136 112.406C107.299 112.719 107.331 113.085 107.227 113.422Z" fill="#2DACD4"/>
<path d="M123.843 83.4718C123.72 83.7893 123.48 84.0479 123.173 84.1947C122.865 84.3415 122.513 84.3656 122.189 84.2621C121.864 84.1585 121.592 83.935 121.426 83.6373C121.26 83.3395 121.215 82.9899 121.298 82.6595C121.343 82.4823 121.423 82.3162 121.535 82.1713C121.646 82.0264 121.786 81.9059 121.945 81.8171C122.105 81.7283 122.281 81.6731 122.463 81.655C122.645 81.6369 122.829 81.6562 123.003 81.7118C123.177 81.7673 123.338 81.8579 123.475 81.978C123.613 82.0981 123.725 82.2451 123.804 82.41C123.882 82.5749 123.927 82.7542 123.933 82.9368C123.94 83.1194 123.91 83.3014 123.843 83.4718Z" fill="#2DACD4"/>
<path d="M121.298 91.469C121.218 91.7199 121.066 91.9415 120.86 92.1059C120.654 92.2702 120.404 92.3698 120.142 92.3922C119.879 92.4145 119.616 92.3586 119.385 92.2315C119.155 92.1044 118.967 91.9117 118.846 91.6779C118.724 91.4441 118.675 91.1796 118.704 90.9178C118.733 90.656 118.839 90.4086 119.008 90.207C119.178 90.0053 119.403 89.8583 119.656 89.7846C119.909 89.711 120.178 89.7139 120.429 89.793C120.766 89.9007 121.047 90.1375 121.21 90.4516C121.372 90.7656 121.404 91.1314 121.298 91.469Z" fill="#2DACD4"/>
<path d="M118.753 99.471C118.673 99.7238 118.521 99.9474 118.314 100.113C118.107 100.279 117.856 100.38 117.592 100.403C117.328 100.426 117.063 100.371 116.831 100.243C116.599 100.115 116.41 99.9215 116.288 99.6863C116.166 99.451 116.116 99.1849 116.145 98.9215C116.175 98.6581 116.282 98.4094 116.453 98.2068C116.624 98.0043 116.851 97.857 117.105 97.7837C117.36 97.7104 117.631 97.7143 117.883 97.795C118.219 97.904 118.499 98.141 118.662 98.4546C118.824 98.7683 118.857 99.1334 118.753 99.471Z" fill="#2DACD4"/>
<path d="M116.202 107.473C116.078 107.79 115.839 108.049 115.531 108.196C115.224 108.343 114.872 108.367 114.547 108.263C114.223 108.159 113.95 107.936 113.784 107.638C113.619 107.341 113.573 106.991 113.656 106.661C113.701 106.483 113.782 106.317 113.893 106.172C114.004 106.027 114.144 105.907 114.304 105.818C114.464 105.729 114.64 105.674 114.822 105.656C115.003 105.638 115.187 105.657 115.361 105.713C115.535 105.768 115.696 105.859 115.834 105.979C115.972 106.099 116.083 106.246 116.162 106.411C116.241 106.576 116.285 106.755 116.292 106.938C116.299 107.12 116.268 107.302 116.202 107.473Z" fill="#2DACD4"/>
<path d="M113.656 115.47C113.576 115.721 113.424 115.943 113.218 116.107C113.012 116.271 112.762 116.371 112.5 116.393C112.237 116.415 111.974 116.36 111.743 116.232C111.513 116.105 111.325 115.913 111.203 115.679C111.082 115.445 111.033 115.181 111.062 114.919C111.091 114.657 111.197 114.41 111.366 114.208C111.535 114.006 111.761 113.859 112.014 113.786C112.267 113.712 112.536 113.715 112.787 113.794C113.124 113.902 113.404 114.138 113.567 114.453C113.73 114.767 113.762 115.132 113.656 115.47Z" fill="#2DACD4"/>
<g opacity="0.4">
<path d="M117.414 81.4244C117.334 81.6766 117.18 81.8994 116.974 82.0645C116.767 82.2295 116.515 82.3296 116.252 82.3519C115.988 82.3742 115.723 82.3178 115.492 82.1898C115.26 82.0618 115.071 81.868 114.95 81.6329C114.828 81.3977 114.779 81.1318 114.809 80.8688C114.838 80.6057 114.945 80.3573 115.116 80.155C115.287 79.9527 115.513 79.8055 115.768 79.7321C116.022 79.6588 116.292 79.6624 116.545 79.7427C116.713 79.7954 116.868 79.8808 117.003 79.994C117.138 80.1072 117.249 80.246 117.33 80.4024C117.411 80.5587 117.46 80.7295 117.474 80.905C117.489 81.0804 117.468 81.2569 117.414 81.4244Z" fill="white"/>
<path d="M114.863 89.4208C114.782 89.6718 114.629 89.8934 114.423 90.0574C114.217 90.2215 113.967 90.3207 113.704 90.3426C113.441 90.3644 113.178 90.3079 112.948 90.1802C112.717 90.0524 112.53 89.8592 112.409 89.6249C112.288 89.3907 112.24 89.1259 112.269 88.864C112.299 88.6021 112.406 88.3549 112.576 88.1537C112.746 87.9525 112.972 87.8062 113.225 87.7335C113.479 87.6607 113.748 87.6646 113.999 87.7448C114.166 87.7981 114.321 87.8838 114.454 87.9968C114.588 88.1099 114.698 88.2482 114.778 88.4039C114.858 88.5595 114.907 88.7294 114.922 88.9039C114.936 89.0784 114.916 89.2541 114.863 89.4208Z" fill="white"/>
<path d="M112.318 97.4231C112.238 97.676 112.086 97.8995 111.879 98.0655C111.672 98.2315 111.421 98.3324 111.157 98.3555C110.893 98.3785 110.628 98.3227 110.396 98.1951C110.164 98.0674 109.975 97.8737 109.853 97.6384C109.73 97.4032 109.681 97.137 109.71 96.8736C109.74 96.6102 109.847 96.3615 110.018 96.159C110.189 95.9564 110.416 95.8091 110.67 95.7358C110.925 95.6625 111.196 95.6665 111.448 95.7471C111.615 95.7998 111.771 95.885 111.905 95.9979C112.039 96.1107 112.15 96.2489 112.231 96.4046C112.312 96.5603 112.361 96.7304 112.376 96.9052C112.391 97.08 112.371 97.256 112.318 97.4231Z" fill="white"/>
<path d="M109.772 105.425C109.692 105.678 109.538 105.9 109.331 106.065C109.125 106.231 108.873 106.331 108.61 106.353C108.346 106.375 108.081 106.319 107.85 106.191C107.618 106.063 107.429 105.869 107.308 105.634C107.186 105.399 107.137 105.133 107.167 104.87C107.196 104.607 107.303 104.358 107.474 104.156C107.644 103.954 107.871 103.807 108.126 103.733C108.38 103.66 108.65 103.663 108.903 103.744C109.071 103.796 109.226 103.882 109.361 103.995C109.496 104.108 109.607 104.247 109.688 104.403C109.769 104.56 109.818 104.731 109.832 104.906C109.847 105.081 109.826 105.258 109.772 105.425Z" fill="white"/>
<path d="M107.227 113.422C107.147 113.675 106.995 113.899 106.788 114.065C106.582 114.231 106.33 114.331 106.066 114.354C105.802 114.378 105.537 114.322 105.305 114.194C105.073 114.066 104.884 113.873 104.762 113.637C104.64 113.402 104.59 113.136 104.62 112.873C104.649 112.609 104.756 112.361 104.927 112.158C105.098 111.955 105.325 111.808 105.58 111.735C105.834 111.662 106.105 111.665 106.357 111.746C106.693 111.855 106.973 112.092 107.136 112.406C107.299 112.719 107.331 113.085 107.227 113.422Z" fill="white"/>
</g>
<g opacity="0.4">
<path d="M123.843 83.4718C123.72 83.7893 123.48 84.0479 123.173 84.1947C122.865 84.3415 122.513 84.3656 122.189 84.2621C121.864 84.1585 121.592 83.935 121.426 83.6373C121.26 83.3395 121.215 82.9899 121.298 82.6595C121.343 82.4823 121.423 82.3162 121.535 82.1713C121.646 82.0264 121.786 81.9059 121.945 81.8171C122.105 81.7283 122.281 81.6731 122.463 81.655C122.645 81.6369 122.829 81.6562 123.003 81.7118C123.177 81.7673 123.338 81.8579 123.475 81.978C123.613 82.0981 123.725 82.2451 123.804 82.41C123.882 82.5749 123.927 82.7542 123.933 82.9368C123.94 83.1194 123.91 83.3014 123.843 83.4718Z" fill="white"/>
<path d="M121.298 91.468C121.218 91.7189 121.066 91.9406 120.86 92.1049C120.654 92.2692 120.404 92.3688 120.142 92.3912C119.879 92.4135 119.616 92.3576 119.385 92.2305C119.155 92.1034 118.967 91.9108 118.846 91.677C118.724 91.4431 118.675 91.1786 118.704 90.9168C118.733 90.655 118.839 90.4077 119.008 90.206C119.178 90.0043 119.403 89.8573 119.656 89.7837C119.909 89.71 120.178 89.7129 120.429 89.792C120.766 89.8998 121.047 90.1365 121.21 90.4506C121.372 90.7646 121.404 91.1304 121.298 91.468Z" fill="white"/>
<path d="M118.753 99.471C118.673 99.7238 118.521 99.9474 118.314 100.113C118.107 100.279 117.856 100.38 117.592 100.403C117.328 100.426 117.063 100.371 116.831 100.243C116.599 100.115 116.41 99.9215 116.288 99.6863C116.166 99.451 116.116 99.1849 116.145 98.9215C116.175 98.6581 116.282 98.4094 116.453 98.2068C116.624 98.0043 116.851 97.857 117.105 97.7837C117.36 97.7104 117.631 97.7143 117.883 97.795C118.219 97.904 118.499 98.141 118.662 98.4546C118.824 98.7683 118.857 99.1334 118.753 99.471Z" fill="white"/>
<path d="M116.202 107.473C116.078 107.79 115.839 108.049 115.531 108.196C115.224 108.343 114.872 108.367 114.547 108.263C114.223 108.159 113.95 107.936 113.784 107.638C113.619 107.341 113.573 106.991 113.656 106.661C113.701 106.483 113.782 106.317 113.893 106.172C114.004 106.027 114.144 105.907 114.304 105.818C114.464 105.729 114.64 105.674 114.822 105.656C115.003 105.638 115.187 105.657 115.361 105.713C115.535 105.768 115.696 105.859 115.834 105.979C115.972 106.099 116.083 106.246 116.162 106.411C116.241 106.576 116.285 106.755 116.292 106.938C116.299 107.12 116.268 107.302 116.202 107.473Z" fill="white"/>
<path d="M113.656 115.47C113.576 115.721 113.424 115.943 113.218 116.107C113.012 116.271 112.762 116.371 112.5 116.393C112.237 116.415 111.974 116.36 111.743 116.232C111.513 116.105 111.325 115.913 111.203 115.679C111.082 115.445 111.033 115.181 111.062 114.919C111.091 114.657 111.197 114.41 111.366 114.208C111.535 114.006 111.761 113.859 112.014 113.786C112.267 113.712 112.536 113.715 112.787 113.794C113.124 113.902 113.404 114.138 113.567 114.453C113.73 114.767 113.762 115.132 113.656 115.47Z" fill="white"/>
</g>
<path opacity="0.7" d="M106.872 118.976L89.3005 122.602C88.4921 122.768 87.6509 122.606 86.9614 122.153C86.272 121.699 85.7905 120.991 85.6226 120.183L80.5661 95.6669C80.2369 94.0871 80.4304 92.4431 81.1177 90.9831C81.8049 89.523 82.9484 88.3261 84.3756 87.5731C84.9962 87.2438 85.6608 87.005 86.349 86.8638L95.4266 84.9933C96.3845 84.7944 97.3722 84.7863 98.3331 84.9697C99.294 85.1531 100.209 85.5243 101.027 86.062C101.844 86.5998 102.547 87.2935 103.096 88.1034C103.644 88.9134 104.028 89.8236 104.224 90.782L109.286 115.298C109.37 115.698 109.374 116.111 109.298 116.512C109.222 116.914 109.067 117.296 108.843 117.638C108.618 117.98 108.329 118.274 107.991 118.503C107.653 118.733 107.273 118.893 106.872 118.976Z" fill="white"/>
<path d="M104.454 91.906L80.791 96.7891L84.5458 114.984L108.209 110.101L104.454 91.906Z" fill="#2DACD4"/>
<path opacity="0.4" d="M104.454 91.906L80.791 96.7891L84.5458 114.984L108.209 110.101L104.454 91.906Z" fill="white"/>
<path d="M83.5536 81.5766L96.4381 78.9177C96.6463 78.8747 96.8609 78.8732 97.0697 78.9132C97.2785 78.9532 97.4774 79.0339 97.6549 79.1507C97.8325 79.2675 97.9854 79.4182 98.1047 79.5941C98.2241 79.77 98.3077 79.9677 98.3506 80.1759L98.8535 82.6128L82.7759 85.9306L82.2684 83.4713C82.2283 83.2625 82.2298 83.0479 82.2727 82.8396C82.3156 82.6314 82.3992 82.4337 82.5185 82.2577C82.6379 82.0818 82.7907 81.9311 82.9683 81.8142C83.1459 81.6973 83.3448 81.6166 83.5536 81.5766Z" fill="#2DACD4"/>
<path opacity="0.7" d="M98.1949 84.9424C97.2768 84.7883 96.3381 84.8057 95.4264 84.9939L86.3716 86.8644C85.6834 87.0056 85.0189 87.2444 84.3982 87.5736L84.0093 85.6803L97.783 82.8203L98.1949 84.9424Z" fill="white"/>
<path opacity="0.3" d="M84.1409 88.9233C84.1333 88.8301 84.0963 88.7418 84.0352 88.671C83.9741 88.6003 83.892 88.5509 83.8009 88.5298C83.7098 88.5088 83.6144 88.5173 83.5285 88.5541C83.4426 88.5909 83.3706 88.6541 83.3229 88.7346C82.6839 89.7595 82.3911 90.9626 82.4878 92.1666C82.7967 94.2258 87.1896 116.677 87.8646 120.114C87.9229 120.397 88.0763 120.652 88.2993 120.835C88.4478 120.953 88.6215 121.036 88.8069 121.077C88.9923 121.117 89.1846 121.115 89.369 121.07L90.0382 120.904L84.3182 91.5545C84.3182 91.5545 84.2153 90.1474 84.1409 88.9233Z" fill="white"/>
</svg>
