<svg width="286" height="286" viewBox="0 0 286 286" fill="none" xmlns="http://www.w3.org/2000/svg">
<path d="M257.343 227.938H238.397V228.081H257.343V227.938Z" fill="#EBEBEB"/>
<path d="M189.458 229.491H184.485V229.634H189.458V229.491Z" fill="#EBEBEB"/>
<path d="M237.825 222.627H226.847V222.77H237.825V222.627Z" fill="#EBEBEB"/>
<path d="M54.7127 223.588H30.0063V223.731H54.7127V223.588Z" fill="#EBEBEB"/>
<path d="M63.4286 223.588H59.8062V223.731H63.4286V223.588Z" fill="#EBEBEB"/>
<path d="M128.784 226.004H75.2012V226.147H128.784V226.004Z" fill="#EBEBEB"/>
<path d="M135.572 193.222H25.1195C23.3194 193.222 21.8545 191.757 21.8545 189.957V34.6976C21.8545 32.8975 23.3194 31.4326 25.1195 31.4326H135.572C137.372 31.4326 138.836 32.8975 138.836 34.6976V189.957C138.836 191.757 137.372 193.222 135.572 193.222ZM25.1195 31.5762C23.3977 31.5762 21.9975 32.9764 21.9975 34.6982V189.957C21.9975 191.679 23.3977 193.079 25.1195 193.079H135.572C137.293 193.079 138.693 191.679 138.693 189.957V34.6976C138.693 32.9764 137.293 31.5756 135.572 31.5756L25.1195 31.5762Z" fill="#EBEBEB"/>
<path d="M259.293 193.222H148.841C147.041 193.222 145.577 191.757 145.577 189.957V34.6976C145.577 32.8975 147.042 31.4326 148.841 31.4326H259.293C261.094 31.4326 262.558 32.8975 262.558 34.6976V189.957C262.559 191.757 261.094 193.222 259.293 193.222ZM148.841 31.5762C147.12 31.5762 145.72 32.9764 145.72 34.6982V189.957C145.72 191.679 147.12 193.079 148.841 193.079H259.293C261.015 193.079 262.415 191.679 262.415 189.957V34.6976C262.415 32.9764 261.015 31.5756 259.293 31.5756L148.841 31.5762Z" fill="#EBEBEB"/>
<path d="M286 218.731H0V218.874H286V218.731Z" fill="#EBEBEB"/>
<path d="M178.547 218.587H49.4715L48.4087 214.937H179.609L178.547 218.587Z" fill="#E0E0E0"/>
<path d="M112.782 165.353H42.4946V189.614H112.782V165.353Z" fill="#EBEBEB"/>
<path d="M112.782 189.615H42.4946V213.877H112.782V189.615Z" fill="#EBEBEB"/>
<path d="M112.782 169.085V166.63H42.4944V169.085H112.782Z" fill="#E0E0E0"/>
<path d="M112.781 193.157V190.702H42.4939V193.157H112.781Z" fill="#E0E0E0"/>
<path d="M41.2671 164.266V214.937H42.4946H43.7221H111.554H112.782H114.009V164.266H41.2671ZM111.554 212.482H43.7221V190.898H111.554V212.482ZM111.554 188.443H43.7221V166.858H111.554V188.443Z" fill="#F5F5F5"/>
<path d="M185.523 165.353H115.236V189.614H185.523V165.353Z" fill="#EBEBEB"/>
<path d="M185.523 189.615H115.236V213.877H185.523V189.615Z" fill="#EBEBEB"/>
<path d="M185.523 169.085V166.63H115.236V169.085H185.523Z" fill="#E0E0E0"/>
<path d="M185.523 193.157V190.702H115.236V193.157H185.523Z" fill="#E0E0E0"/>
<path d="M114.009 164.266V214.937H115.236H116.464H184.296H185.524H186.751V164.266H114.009ZM184.296 212.482H116.463V190.898H184.296V212.482ZM184.296 188.443H116.463V166.858H184.296V188.443Z" fill="#F5F5F5"/>
<path d="M152.49 179.759C152.49 180.924 151.545 181.869 150.38 181.869C149.214 181.869 148.27 180.924 148.27 179.759C148.27 178.593 149.214 177.648 150.38 177.648C151.545 177.648 152.49 178.593 152.49 179.759Z" fill="#E0E0E0"/>
<path d="M152.49 179.164C152.49 180.329 151.545 181.274 150.38 181.274C149.214 181.274 148.27 180.329 148.27 179.164C148.27 177.998 149.214 177.054 150.38 177.054C151.545 177.054 152.49 177.998 152.49 179.164Z" fill="#FAFAFA"/>
<path d="M152.49 202.044C152.49 203.209 151.545 204.154 150.38 204.154C149.214 204.154 148.27 203.209 148.27 202.044C148.27 200.879 149.214 199.934 150.38 199.934C151.545 199.934 152.49 200.879 152.49 202.044Z" fill="#E0E0E0"/>
<path d="M152.49 201.448C152.49 202.614 151.545 203.558 150.38 203.558C149.214 203.558 148.27 202.613 148.27 201.448C148.27 200.283 149.214 199.338 150.38 199.338C151.545 199.338 152.49 200.283 152.49 201.448Z" fill="#FAFAFA"/>
<path d="M79.7481 179.759C79.7481 180.924 78.8031 181.869 77.6379 181.869C76.4728 181.869 75.5278 180.924 75.5278 179.759C75.5278 178.593 76.4728 177.648 77.6379 177.648C78.8037 177.648 79.7481 178.593 79.7481 179.759Z" fill="#E0E0E0"/>
<path d="M79.7481 179.164C79.7481 180.329 78.8031 181.274 77.6379 181.274C76.4728 181.274 75.5278 180.329 75.5278 179.164C75.5278 177.998 76.4728 177.054 77.6379 177.054C78.8037 177.054 79.7481 177.998 79.7481 179.164Z" fill="#FAFAFA"/>
<path d="M79.7481 202.044C79.7481 203.209 78.8031 204.154 77.6379 204.154C76.4728 204.154 75.5278 203.209 75.5278 202.044C75.5278 200.879 76.4728 199.934 77.6379 199.934C78.8037 199.934 79.7481 200.879 79.7481 202.044Z" fill="#E0E0E0"/>
<path d="M79.7481 201.448C79.7481 202.614 78.8031 203.558 77.6379 203.558C76.4728 203.558 75.5278 202.613 75.5278 201.448C75.5278 200.283 76.4728 199.338 77.6379 199.338C78.8037 199.338 79.7481 200.283 79.7481 201.448Z" fill="#FAFAFA"/>
<path d="M212.501 156.205C213.769 154.792 215.597 153.252 217.52 152.945C223.419 152.006 222.76 164.106 222.703 167.202C222.693 167.754 223.551 167.754 223.561 167.202C223.628 163.552 224.277 152.105 218.163 152.031C215.774 152.001 213.414 153.903 211.894 155.598C211.526 156.008 212.131 156.617 212.501 156.205Z" fill="#E0E0E0"/>
<path d="M230.847 148.766C229.63 148.958 228.671 150.376 228.109 151.326C225.397 155.902 225.217 162.065 225.043 167.202C225.024 167.755 225.882 167.753 225.901 167.202C226.067 162.276 226.223 156.493 228.685 152.051C229.155 151.203 229.975 149.766 231.075 149.593C231.619 149.507 231.388 148.681 230.847 148.766Z" fill="#E0E0E0"/>
<path d="M212.197 155.902C212.197 155.902 206.884 147.119 202.985 155.036C202.35 156.324 201.967 157.666 201.765 159.01C203.396 158.294 206.874 156.979 206.922 158.765C206.961 160.203 204.929 162.572 203.362 164.179C202.476 165.089 202.146 166.406 202.488 167.629C203.362 170.75 204.551 172.921 204.551 172.921C204.551 172.921 205.719 172.478 207.435 171.66C208.519 171.144 209.289 170.136 209.512 168.956C209.754 167.667 210.17 166.301 210.864 165.896C211.563 165.488 212.116 166.248 212.497 167.124C212.811 167.845 213.699 168.098 214.336 167.637C215.189 167.021 216.02 166.357 216.792 165.651C217.255 165.227 217.32 164.513 216.933 164.019C216.088 162.938 215.301 161.65 215.624 160.907C215.933 160.195 217.376 160.182 218.766 160.354C219.918 160.496 220.965 159.673 221.101 158.52L221.103 158.497C222.093 149.964 212.197 155.902 212.197 155.902Z" fill="#EBEBEB"/>
<path d="M232.864 146.88C232.864 146.88 238.178 138.098 242.077 146.014C242.711 147.302 243.094 148.644 243.297 149.989C241.666 149.273 238.188 147.957 238.139 149.743C238.1 151.181 240.133 153.55 241.699 155.158C242.586 156.068 242.915 157.384 242.573 158.608C241.699 161.728 240.51 163.899 240.51 163.899C240.51 163.899 239.342 163.456 237.626 162.639C236.542 162.123 235.772 161.116 235.549 159.936C235.307 158.646 234.891 157.28 234.197 156.875C233.498 156.467 232.945 157.227 232.564 158.103C232.25 158.824 231.362 159.078 230.725 158.616C229.872 157.999 229.041 157.336 228.269 156.63C227.805 156.206 227.741 155.492 228.127 154.998C228.973 153.917 229.76 152.629 229.437 151.886C229.127 151.174 227.684 151.161 226.294 151.333C225.142 151.475 224.095 150.652 223.96 149.499L223.957 149.476C222.969 140.943 232.864 146.88 232.864 146.88Z" fill="#E6E6E6"/>
<path d="M202.582 208.794C202.582 212.661 203.189 215.162 204.211 216.766C204.979 217.974 206.359 218.652 207.791 218.652H213.389C214.821 218.652 216.2 217.973 216.97 216.766C217.992 215.161 218.599 212.661 218.599 208.794C218.599 203.185 216.153 198.695 215.355 195.11C215.067 193.819 216.025 189.862 216.025 189.862H205.157C205.157 189.862 206.114 193.819 205.826 195.11C205.027 198.695 202.582 203.185 202.582 208.794Z" fill="#E6E6E6"/>
<path d="M210.59 186.095C210.59 181.225 218.224 183.247 220.148 175.692C220.877 172.83 214.668 166.351 214.668 166.351H234.028C234.028 166.351 227.818 172.83 228.548 175.692C230.472 183.247 238.106 181.225 238.106 186.095C238.106 191.458 227.337 202.627 226.818 215.199C226.772 216.323 228.844 218.653 228.844 218.653H219.853C219.853 218.653 221.925 216.323 221.878 215.199C221.358 202.627 210.59 191.458 210.59 186.095Z" fill="#F0F0F0"/>
<path d="M240.122 198.75C238.997 196.383 241.323 188.337 241.323 188.337H232.933C232.933 188.337 235.26 196.384 234.135 198.75C233.341 200.421 231.534 201.488 231.534 203.465V215.346C231.534 218.423 234.051 218.653 237.128 218.653C240.205 218.653 242.723 218.424 242.723 215.346V203.465C242.723 201.488 240.916 200.421 240.122 198.75Z" fill="#E6E6E6"/>
<path d="M228.254 163.973C228.254 163.973 233.766 159.816 234.747 165.622C234.907 166.566 234.883 167.485 234.735 168.362C233.77 167.534 231.669 165.898 231.255 166.989C230.922 167.866 231.808 169.809 232.538 171.171C232.951 171.942 232.895 172.832 232.4 173.505C231.136 175.223 229.858 176.28 229.858 176.28C229.858 176.28 229.153 175.729 228.152 174.819C227.52 174.244 227.208 173.441 227.307 172.66C227.416 171.807 227.423 170.866 227.034 170.452C226.643 170.035 226.102 170.373 225.654 170.823C225.285 171.193 224.623 171.139 224.285 170.704C223.833 170.121 223.406 169.515 223.028 168.897C222.8 168.526 222.909 168.07 223.279 167.857C224.089 167.391 224.902 166.783 224.84 166.248C224.78 165.736 223.794 165.386 222.806 165.162C221.987 164.977 221.445 164.221 221.599 163.478L221.602 163.464C222.744 157.968 228.254 163.973 228.254 163.973Z" fill="#E0E0E0"/>
<path d="M140.242 242.365C201.493 242.365 251.146 239.465 251.146 235.888C251.146 232.311 201.493 229.411 140.242 229.411C78.991 229.411 29.3374 232.311 29.3374 235.888C29.3374 239.465 78.991 242.365 140.242 242.365Z" fill="#F5F5F5"/>
<path d="M215.467 96.9834H217.985V89.6527H215.467V96.9834Z" fill="#263238"/>
<path d="M208.507 85.4842C208.823 83.2723 210.52 81.9458 212.557 81.9092C212.809 81.9047 214.505 81.9172 214.815 81.9098C215.077 81.9035 215.345 81.9184 215.616 81.9561C216.442 82.0694 217.137 82.1432 217.794 82.1855C218.462 82.1432 219.176 82.07 220.029 81.9561C220.335 81.9155 222.759 81.9104 222.97 81.9087C225.069 81.8898 226.505 83.2248 226.272 85.4842C226.267 85.5306 226.265 85.5534 226.26 85.5992C226.004 88.0863 223.776 90.7661 221.273 91.0996C219.382 91.3512 218.125 91.4273 216.671 91.3358C215.194 91.4273 213.956 91.3512 212.127 91.0996C209.705 90.7661 208.136 88.0857 208.491 85.5992C208.497 85.5534 208.501 85.5306 208.507 85.4842Z" fill="#263238"/>
<path d="M225.738 92.9783C225.409 92.9909 223.861 92.952 223.375 92.9778C222.989 92.9978 222.577 93.0647 222.145 93.1802C219.875 93.786 218.043 94.1401 216.313 94.2505C214.611 94.1401 212.865 93.786 210.744 93.1802C210.209 93.0275 209.689 92.9595 209.199 92.9726C208.852 92.9818 207.381 92.972 206.991 92.9749C205.159 92.9869 203.715 94.1126 203.398 96.2073C202.243 103.832 201.088 111.457 199.934 119.082H221.309C223.32 119.082 225.19 118.477 226.75 117.443C227.416 110.365 228.082 103.286 228.749 96.2078C228.953 94.0331 227.688 92.9028 225.738 92.9783Z" fill="#263238"/>
<path opacity="0.2" d="M212.127 91.1002C214.812 91.4697 216.209 91.4697 218.985 91.1002C221.489 90.7667 223.716 88.0869 223.973 85.5999C223.977 85.5535 223.979 85.5306 223.985 85.4849C224.241 82.9978 222.476 81.6308 220.029 81.9568C217.317 82.3177 215.952 82.3177 213.329 81.9568C210.963 81.6313 208.862 82.9978 208.507 85.4849C208.501 85.5306 208.498 85.5541 208.491 85.5999C208.136 88.0863 209.705 90.7667 212.127 91.1002Z" fill="white"/>
<path opacity="0.2" d="M222.146 93.1804C216.59 94.6624 213.648 94.663 208.456 93.1804C205.967 92.4694 203.795 93.5779 203.397 96.2074C202.242 103.832 201.088 111.457 199.933 119.082H221.308C222.372 119.082 223.394 118.91 224.354 118.598C225.056 111.135 225.759 103.671 226.461 96.208C226.709 93.5779 224.809 92.47 222.146 93.1804Z" fill="white"/>
<path d="M187.84 107.772L183.899 108.15L177.863 106.728L175.674 110.34L177.079 111.058L179.048 110.454L181.767 110.99L184.213 110.61L188.86 110.722L187.84 107.772Z" fill="#FFC3BD"/>
<path d="M186.246 107.621L187.181 110.99C187.181 110.99 193.979 111.913 196.647 110.744C199.316 109.575 197.301 89.8577 194.734 90.075C192.166 90.2924 193.577 101.2 193.577 104.626C193.577 107.244 186.246 107.621 186.246 107.621Z" fill="#2DACD4"/>
<path opacity="0.7" d="M186.246 107.621L187.181 110.99C187.181 110.99 193.979 111.913 196.647 110.744C199.316 109.575 197.301 89.8577 194.734 90.075C192.166 90.2924 193.577 101.2 193.577 104.626C193.577 107.244 186.246 107.621 186.246 107.621Z" fill="white"/>
<path d="M194.225 90.0998C191.651 93.7817 197.568 99.5606 197.69 119.082H216.788C217.344 113.809 219.318 93.1457 216.565 89.2463C213.404 84.7687 196.677 86.5911 194.225 90.0998Z" fill="#2DACD4"/>
<path d="M200.402 86.61C200.402 86.61 195.837 88.3381 199.968 92.3787L202.173 91.4726L205.344 92.3787C205.344 92.3787 213.396 83.4846 200.402 86.61Z" fill="#2DACD4"/>
<path opacity="0.7" d="M200.402 86.61C200.402 86.61 195.837 88.3381 199.968 92.3787L202.173 91.4726L205.344 92.3787C205.344 92.3787 213.396 83.4846 200.402 86.61Z" fill="white"/>
<path d="M201.037 90.7476C199.915 89.829 198.607 88.419 199.716 87.4964C201.797 86.9884 204.242 86.6704 206.644 86.6104C207.287 87.0342 206.926 88.1439 203.478 90.7825C202.753 91.3368 201.742 91.3253 201.037 90.7476Z" fill="#FFC3BD"/>
<path d="M199.865 84.9222L203.697 80.7598C204.061 83.9521 205.761 86.569 206.103 86.6754L205.684 88.1369C201.04 93.3581 199.968 88.3456 199.968 88.3456C201.098 87.3984 199.865 84.9222 199.865 84.9222Z" fill="#FFC3BD"/>
<path opacity="0.2" d="M202.161 82.4265L203.948 82.248C203.948 82.248 203.869 87.602 200.206 88.0607C200.886 86.9802 199.864 84.921 199.864 84.921L202.161 82.4265Z" fill="#263238"/>
<path d="M203.175 76.1816C204.003 79.9654 204.683 82.1304 203.372 84.6317C202.111 87.1079 199.08 88.0929 196.604 86.8311C195.693 86.3666 194.945 85.6356 194.459 84.7359C192.718 81.6591 191.652 75.9883 194.823 73.3542C196.936 71.4992 200.153 71.708 202.008 73.8215C202.597 74.4919 202.999 75.3059 203.175 76.1816Z" fill="#FFC3BD"/>
<path d="M197.904 79.0198C197.993 79.3201 197.9 79.6141 197.699 79.661C197.499 79.7079 197.278 79.5306 197.189 79.2303C197.1 78.93 197.191 78.6314 197.398 78.5868C197.606 78.5428 197.819 78.7178 197.904 79.0198Z" fill="#263238"/>
<path d="M194.528 80.1099C194.616 80.4102 194.528 80.7025 194.323 80.7512C194.118 80.8003 193.902 80.6207 193.811 80.3164C193.72 80.0121 193.815 79.7221 194.02 79.6729C194.225 79.6243 194.441 79.8039 194.528 80.1099Z" fill="#263238"/>
<path d="M198.634 77.5784C198.663 77.5727 198.69 77.5595 198.713 77.5407C198.775 77.4617 198.761 77.3479 198.682 77.2856C198.68 77.2838 198.678 77.2821 198.676 77.281C198.209 76.9126 197.589 76.8011 197.023 76.9835C196.929 77.019 196.882 77.1237 196.918 77.2175C196.918 77.2192 196.919 77.2209 196.92 77.2226C196.955 77.3164 197.06 77.3633 197.154 77.3279C197.156 77.3273 197.157 77.3262 197.159 77.3256C197.6 77.1877 198.08 77.2724 198.447 77.5527C198.499 77.5979 198.572 77.6076 198.634 77.5784Z" fill="#263238"/>
<path d="M192.743 79.4025C192.799 79.3779 192.838 79.3265 192.847 79.2664C192.913 78.7922 193.197 78.3752 193.614 78.1396C193.698 78.0806 193.719 77.9645 193.66 77.8799C193.614 77.8141 193.532 77.7849 193.455 77.8072C192.932 78.0944 192.574 78.6115 192.491 79.2023C192.473 79.3013 192.539 79.3951 192.637 79.4128C192.638 79.4128 192.64 79.4134 192.64 79.4134C192.675 79.4214 192.711 79.4174 192.743 79.4025Z" fill="#263238"/>
<path d="M198.171 83.7855C198.002 83.8347 197.83 83.8696 197.656 83.889C197.6 83.8988 197.548 83.861 197.538 83.805C197.538 83.8038 197.537 83.8027 197.537 83.8015C197.534 83.7438 197.576 83.6934 197.633 83.6866C198.524 83.5916 199.316 83.0797 199.769 82.3069C199.794 82.2548 199.857 82.2337 199.909 82.2583C199.961 82.2834 199.983 82.3458 199.957 82.3978C199.574 83.0825 198.929 83.583 198.171 83.7855Z" fill="#263238"/>
<path d="M195.702 79.9131C195.608 80.9541 195.377 81.978 195.015 82.959C195.683 83.2873 196.523 82.7822 196.523 82.7822L195.702 79.9131Z" fill="#ED893E"/>
<path d="M201.115 70.5145C188.918 68.1733 192.487 78.1044 192.487 78.1044C192.487 78.1044 192.581 76.405 194.169 76.405C195.757 76.405 197.156 75.1586 197.156 75.1586C196.216 76.2911 195.016 76.6315 195.016 76.6315C197.792 76.6767 199.509 75.0322 200.443 73.7086C200.443 73.7086 200.549 74.2531 200.549 74.5545C200.549 75.9519 201.682 76.707 202.249 78.6072C202.815 80.5073 205.081 78.6072 205.081 78.6072C208.252 70.4636 201.115 70.5145 201.115 70.5145Z" fill="#263238"/>
<path d="M205.462 78.8671C205.446 79.7326 205.104 80.5602 204.503 81.1843C203.71 81.9925 202.799 81.3839 202.595 80.3183C202.411 79.3516 202.604 77.7757 203.607 77.3725C204.61 76.9692 205.473 77.7969 205.462 78.8671Z" fill="#FFC3BD"/>
<path d="M201.319 71.0675C201.319 71.0675 198.743 67.9181 196.954 68.7561C195.164 69.594 200.223 69.7982 201.319 71.0675Z" fill="#263238"/>
<path d="M201.122 108.427L197.181 108.805L191.145 106.778L188.353 109.786L189.756 110.504H192.33L195.049 111.645L197.495 111.265L202.142 111.378L201.122 108.427Z" fill="#FFC3BD"/>
<path d="M215.601 88.9262C214.333 88.0614 212.977 88.8999 211.605 96.7969C209.978 106.167 208.892 106.59 199.528 108.276L200.545 111.645C200.545 111.645 208.539 112.632 212.409 110.114C216.279 107.597 219.018 91.2588 215.601 88.9262Z" fill="#2DACD4"/>
<path opacity="0.7" d="M215.601 88.9262C214.333 88.0614 212.977 88.8999 211.605 96.7969C209.978 106.167 208.892 106.59 199.528 108.276L200.545 111.645C200.545 111.645 208.539 112.632 212.409 110.114C216.279 107.597 219.018 91.2588 215.601 88.9262Z" fill="white"/>
<path d="M204.198 112.586H151.932C152.27 113.515 152.742 114.377 153.327 115.151H204.198C204.906 115.151 205.481 114.577 205.481 113.869C205.481 113.16 204.907 112.586 204.198 112.586Z" fill="#263238"/>
<path opacity="0.6" d="M204.198 112.586H151.932C152.27 113.515 152.742 114.377 153.327 115.151H204.198C204.906 115.151 205.481 114.577 205.481 113.869C205.481 113.16 204.907 112.586 204.198 112.586Z" fill="white"/>
<path d="M161.196 119.082H203.003V115.151H153.327C155.128 117.535 157.978 119.082 161.196 119.082Z" fill="#263238"/>
<path opacity="0.4" d="M161.196 119.082H203.003V115.151H153.327C155.128 117.535 157.978 119.082 161.196 119.082Z" fill="white"/>
<path d="M196.145 110.922H165.685C165.226 110.922 164.854 111.294 164.854 111.754C164.854 112.213 165.226 112.586 165.685 112.586H196.145C196.604 112.586 196.977 112.214 196.977 111.754C196.977 111.294 196.605 110.922 196.145 110.922Z" fill="#263238"/>
<path opacity="0.3" d="M196.145 110.922H165.685C165.226 110.922 164.854 111.294 164.854 111.754C164.854 112.213 165.226 112.586 165.685 112.586H196.145C196.604 112.586 196.977 112.214 196.977 111.754C196.977 111.294 196.605 110.922 196.145 110.922Z" fill="white"/>
<path d="M166.138 112.077H176.55C176.821 112.077 177.011 111.809 176.921 111.553L171.212 95.2421C171.054 94.7925 170.63 94.4922 170.154 94.4922H159.742C159.471 94.4922 159.281 94.7599 159.371 95.0161L165.08 111.327C165.238 111.776 165.662 112.077 166.138 112.077Z" fill="#263238"/>
<path opacity="0.5" d="M166.138 112.077H176.55C176.821 112.077 177.011 111.809 176.921 111.553L171.212 95.2421C171.054 94.7925 170.63 94.4922 170.154 94.4922H159.742C159.471 94.4922 159.281 94.7599 159.371 95.0161L165.08 111.327C165.238 111.776 165.662 112.077 166.138 112.077Z" fill="white"/>
<path d="M165.636 112.077H176.047C176.319 112.077 176.509 111.809 176.419 111.553L170.709 95.2421C170.552 94.7925 170.127 94.4922 169.652 94.4922H159.24C158.969 94.4922 158.778 94.7599 158.868 95.0161L164.578 111.327C164.735 111.776 165.159 112.077 165.636 112.077Z" fill="#263238"/>
<path opacity="0.7" d="M165.636 112.077H176.047C176.319 112.077 176.509 111.809 176.419 111.553L170.709 95.2421C170.552 94.7925 170.127 94.4922 169.652 94.4922H159.24C158.969 94.4922 158.778 94.7599 158.868 95.0161L164.578 111.327C164.735 111.776 165.159 112.077 165.636 112.077Z" fill="white"/>
<path d="M166.799 103.284C166.931 103.91 167.364 104.416 167.764 104.416C168.165 104.416 168.382 103.909 168.249 103.284C168.116 102.659 167.684 102.152 167.283 102.152C166.883 102.153 166.666 102.659 166.799 103.284Z" fill="white"/>
<path opacity="0.2" d="M177.887 112.585C177.428 112.585 177.055 112.213 177.055 111.753C177.055 111.294 177.427 110.921 177.887 110.921H196.145C196.604 110.921 196.977 111.293 196.977 111.753C196.977 112.212 196.605 112.585 196.145 112.585H177.887Z" fill="white"/>
<path d="M159.391 85.1553H157.302V89.7038H159.391V85.1553Z" fill="#2DACD4"/>
<path d="M184.398 85.1553H182.31V89.7038H184.398V85.1553Z" fill="#2DACD4"/>
<path d="M171.856 76.3619L171.611 76.3459C172.104 69.042 171.018 66.6694 170.019 65.9652C169.433 65.5511 168.914 65.7685 168.909 65.7708L168.812 65.5454C168.838 65.5345 169.462 65.272 170.16 65.7645C171.21 66.5058 172.357 68.9453 171.856 76.3619Z" fill="#2DACD4"/>
<path d="M170.468 75.6236C170.227 69.4106 171.304 67.0928 172.25 66.2423C172.84 65.7115 173.352 65.7801 173.373 65.7824L173.339 66.0249C173.322 66.0221 172.906 65.9751 172.401 66.4368C171.5 67.2599 170.477 69.5198 170.713 75.6139L170.468 75.6236Z" fill="#2DACD4"/>
<path d="M171.516 75.6268L171.271 75.6102C171.524 71.8779 171.063 69.6568 169.939 69.1872C168.472 68.5746 166.279 71.0285 166.257 71.0531L166.073 70.8906C166.168 70.7837 168.404 68.2806 170.033 68.9607C171.281 69.4818 171.78 71.7246 171.516 75.6268Z" fill="#2DACD4"/>
<path d="M170.897 75.8639C170.895 73.5696 171.372 72.1545 172.314 71.658C173.375 71.0997 174.601 71.9257 174.652 71.9611L174.513 72.1631C174.502 72.1551 173.356 71.384 172.428 71.8753C171.573 72.3261 171.141 73.668 171.143 75.8628L170.897 75.8639Z" fill="#2DACD4"/>
<g opacity="0.2">
<path d="M171.856 76.3619L171.611 76.3459C172.104 69.042 171.018 66.6694 170.019 65.9652C169.433 65.5511 168.914 65.7685 168.909 65.7708L168.812 65.5454C168.838 65.5345 169.462 65.272 170.16 65.7645C171.21 66.5058 172.357 68.9453 171.856 76.3619Z" fill="black"/>
<path d="M170.468 75.6236C170.227 69.4106 171.304 67.0928 172.25 66.2423C172.84 65.7115 173.352 65.7801 173.373 65.7824L173.339 66.0249C173.322 66.0221 172.906 65.9751 172.401 66.4368C171.5 67.2599 170.477 69.5198 170.713 75.6139L170.468 75.6236Z" fill="black"/>
<path d="M171.516 75.6268L171.271 75.6102C171.524 71.8779 171.063 69.6568 169.939 69.1872C168.472 68.5746 166.279 71.0285 166.257 71.0531L166.073 70.8906C166.168 70.7837 168.404 68.2806 170.033 68.9607C171.281 69.4818 171.78 71.7246 171.516 75.6268Z" fill="black"/>
<path d="M170.897 75.8639C170.895 73.5696 171.372 72.1545 172.314 71.658C173.375 71.0997 174.601 71.9257 174.652 71.9611L174.513 72.1631C174.502 72.1551 173.356 71.384 172.428 71.8753C171.573 72.3261 171.141 73.668 171.143 75.8628L170.897 75.8639Z" fill="black"/>
</g>
<path d="M165.354 75.2061L166.408 81.1943C166.65 82.566 167.841 83.5658 169.233 83.5658H173.421C174.814 83.5658 176.005 82.566 176.247 81.1943L177.301 75.2061H165.354Z" fill="#263238"/>
<path opacity="0.3" d="M165.354 75.2061L166.408 81.1943C166.65 82.566 167.841 83.5658 169.233 83.5658H173.421C174.814 83.5658 176.005 82.566 176.247 81.1943L177.301 75.2061H165.354Z" fill="white"/>
<path d="M169.349 65.6104C169.349 65.6104 171.834 61.4348 167.46 61.3736C166.812 61.3645 166.191 61.4663 165.597 61.6304C166.159 62.0177 167.084 62.7253 166.613 62.9043C166.121 63.0919 164.347 62.7344 163.49 62.5439C161.241 63.8796 159.787 65.8798 159.787 65.8798C159.787 65.8798 160.958 67.0038 162.612 68.1352C163.048 67.7022 163.708 67.1565 164.082 67.3733C164.457 67.5907 164.865 68.7541 165.115 69.5824C165.966 69.9771 166.85 70.2757 167.709 70.3861C167.685 69.7191 167.699 68.638 168.019 68.467C168.349 68.2908 169.499 69.3993 170.151 70.0714C173.491 68.6277 169.349 65.6104 169.349 65.6104Z" fill="#2DACD4"/>
<path opacity="0.1" d="M169.349 65.6104C169.349 65.6104 171.834 61.4348 167.46 61.3736C166.812 61.3645 166.191 61.4663 165.597 61.6304C166.159 62.0177 167.084 62.7253 166.613 62.9043C166.121 63.0919 164.347 62.7344 163.49 62.5439C161.241 63.8796 159.787 65.8798 159.787 65.8798C159.787 65.8798 160.958 67.0038 162.612 68.1352C163.048 67.7022 163.708 67.1565 164.082 67.3733C164.457 67.5907 164.865 68.7541 165.115 69.5824C165.966 69.9771 166.85 70.2757 167.709 70.3861C167.685 69.7191 167.699 68.638 168.019 68.467C168.349 68.2908 169.499 69.3993 170.151 70.0714C173.491 68.6277 169.349 65.6104 169.349 65.6104Z" fill="white"/>
<path opacity="0.3" d="M169.349 65.6104C169.349 65.6104 171.834 61.4348 167.46 61.3736C166.812 61.3645 166.191 61.4663 165.597 61.6304C166.159 62.0177 167.084 62.7253 166.613 62.9043C166.121 63.0919 164.347 62.7344 163.49 62.5439C161.241 63.8796 159.787 65.8798 159.787 65.8798C164.556 63.8555 169.349 65.6104 169.349 65.6104Z" fill="white"/>
<path d="M174.521 68.4362C174.983 68.3041 175.554 69.2222 175.85 69.7759C176.792 69.3858 177.692 68.7537 178.478 68.0753C178.265 67.608 178.025 66.9645 178.177 66.7174C178.335 66.4611 179.163 66.6648 179.754 66.8501C180.681 65.8697 181.263 65.0534 181.263 65.0534C181.263 65.0534 180.711 64.5884 179.824 64.0564C178.966 64.1537 177.754 64.2309 177.458 63.9352C177.143 63.62 177.818 63.3895 178.293 63.2728C177.536 62.949 176.683 62.6814 175.786 62.5732C175.673 62.9622 175.423 63.5605 174.958 63.5605C174.525 63.5605 174.01 63.0411 173.688 62.6556C170.105 63.4278 172.949 65.9927 172.949 65.9927C172.949 65.9927 169.864 69.6523 173.53 70.1425C173.724 69.5127 174.085 68.5604 174.521 68.4362Z" fill="#2DACD4"/>
<path opacity="0.2" d="M174.521 68.4362C174.983 68.3041 175.554 69.2222 175.85 69.7759C176.792 69.3858 177.692 68.7537 178.478 68.0753C178.265 67.608 178.025 66.9645 178.177 66.7174C178.335 66.4611 179.163 66.6648 179.754 66.8501C180.681 65.8697 181.263 65.0534 181.263 65.0534C181.263 65.0534 180.711 64.5884 179.824 64.0564C178.966 64.1537 177.754 64.2309 177.458 63.9352C177.143 63.62 177.818 63.3895 178.293 63.2728C177.536 62.949 176.683 62.6814 175.786 62.5732C175.673 62.9622 175.423 63.5605 174.958 63.5605C174.525 63.5605 174.01 63.0411 173.688 62.6556C170.105 63.4278 172.949 65.9927 172.949 65.9927C172.949 65.9927 169.864 69.6523 173.53 70.1425C173.724 69.5127 174.085 68.5604 174.521 68.4362Z" fill="white"/>
<path opacity="0.3" d="M177.458 63.9362C177.143 63.621 177.817 63.3905 178.292 63.2738C177.536 62.95 176.682 62.6823 175.786 62.5742C175.672 62.9632 175.422 63.5615 174.958 63.5615C174.525 63.5615 174.01 63.0421 173.687 62.6566C170.104 63.4288 172.949 65.9936 172.949 65.9936C172.949 65.9936 177.598 64.2977 181.262 65.055C181.262 65.055 180.71 64.5899 179.823 64.058C178.966 64.1547 177.754 64.2319 177.458 63.9362Z" fill="white"/>
<path d="M179.764 71.6487C179.263 71.9187 178.311 72.3511 177.926 71.9667C177.51 71.5503 178.129 69.967 178.416 69.3C177.95 68.7355 177.407 68.2785 176.772 67.9965C172.88 66.2684 174.202 71.8603 174.202 71.8603C174.202 71.8603 169.289 73.0444 172.459 76.0577C172.69 76.2779 172.936 76.4741 173.19 76.652C173.436 76.0662 173.915 75.1173 174.395 75.2477C174.867 75.3764 174.692 76.6211 174.535 77.391C175.386 77.7496 176.277 77.9521 177.12 78.0574C177.234 77.5111 177.451 76.7904 177.802 76.8104C178.171 76.831 178.66 77.6175 178.954 78.1563C180.245 78.1392 181.152 77.9561 181.152 77.9561C181.152 77.9561 180.948 74.5419 179.764 71.6487Z" fill="#2DACD4"/>
<path opacity="0.2" d="M174.202 71.8604C174.202 71.8604 169.289 73.0444 172.459 76.0577C172.691 76.2779 172.937 76.4741 173.191 76.652C173.437 76.0663 173.916 75.1173 174.396 75.2477C174.867 75.3764 174.692 76.6211 174.535 77.391C175.387 77.7497 176.277 77.9522 177.121 78.0574C177.235 77.5111 177.451 76.7904 177.802 76.8104C178.172 76.831 178.661 77.6175 178.954 78.1564C180.245 78.1392 181.153 77.9562 181.153 77.9562C178.94 73.1342 174.202 71.8604 174.202 71.8604Z" fill="white"/>
<path d="M166.572 70.6728C166.572 70.6728 163.939 66.3199 162.006 70.2438C161.692 70.8821 161.502 71.5474 161.402 72.2138C162.21 71.8585 163.934 71.2065 163.958 72.0919C163.984 73.0563 162.131 74.8655 161.513 75.4415C161.916 77.5259 162.783 79.1081 162.783 79.1081C162.783 79.1081 163.799 78.7225 165.116 78.0316C165.186 77.3297 165.39 75.9306 165.912 75.6269C166.461 75.3066 166.827 76.4391 166.962 76.9511C167.775 76.4191 168.583 75.8002 169.262 75.1086C168.757 74.5332 168.067 73.6243 168.271 73.1547C168.495 72.6399 169.914 72.8624 170.703 73.03C170.844 72.6839 170.944 72.327 170.987 71.9604C171.477 67.7304 166.572 70.6728 166.572 70.6728Z" fill="#2DACD4"/>
<path opacity="0.2" d="M162.783 79.108C162.783 79.108 163.799 78.7225 165.116 78.0315C165.186 77.3297 165.39 75.9306 165.912 75.6268C166.461 75.3065 166.827 76.4391 166.962 76.951C167.775 76.419 168.583 75.8001 169.262 75.1086C168.757 74.5332 168.067 73.6242 168.271 73.1546C168.495 72.6398 169.914 72.8623 170.703 73.0299C170.844 72.6839 170.944 72.327 170.987 71.9603C171.477 67.7304 166.573 70.6727 166.573 70.6727C166.573 70.6727 163.67 73.3743 162.783 79.108Z" fill="white"/>
<path d="M186.974 83.0703H154.726V85.6369H186.974V83.0703Z" fill="#2DACD4"/>
<path opacity="0.3" d="M186.974 83.0703H154.726V85.6369H186.974V83.0703Z" fill="white"/>
<path d="M221.308 43.3838H161.196C154.423 43.3838 148.912 48.895 148.912 55.6686V109.214C148.912 115.988 154.423 121.499 161.196 121.499H221.308C228.082 121.499 233.593 115.988 233.593 109.214V55.6686C233.593 48.895 228.082 43.3838 221.308 43.3838ZM231.176 109.214C231.176 114.664 226.758 119.082 221.308 119.082H161.196C155.746 119.082 151.328 114.664 151.328 109.214V55.6686C151.328 50.2186 155.746 45.8005 161.196 45.8005H221.308C226.758 45.8005 231.176 50.2186 231.176 55.6686V109.214Z" fill="#2DACD4"/>
<path opacity="0.4" d="M221.308 43.3838H161.196C154.423 43.3838 148.912 48.895 148.912 55.6686V109.214C148.912 115.988 154.423 121.499 161.196 121.499H221.308C228.082 121.499 233.593 115.988 233.593 109.214V55.6686C233.593 48.895 228.082 43.3838 221.308 43.3838ZM231.176 109.214C231.176 114.664 226.758 119.082 221.308 119.082H161.196C155.746 119.082 151.328 114.664 151.328 109.214V55.6686C151.328 50.2186 155.746 45.8005 161.196 45.8005H221.308C226.758 45.8005 231.176 50.2186 231.176 55.6686V109.214Z" fill="white"/>
<path d="M213.926 67.0964H206.391C205.586 67.0964 204.933 66.4437 204.933 65.6389V64.309C204.933 63.5042 205.586 62.8516 206.391 62.8516H213.926C214.73 62.8516 215.383 63.5042 215.383 64.309V65.6389C215.382 66.4437 214.73 67.0964 213.926 67.0964Z" fill="#2DACD4"/>
<path d="M220.493 61.8444H212.958C212.154 61.8444 211.501 61.1918 211.501 60.387V59.0571C211.501 58.2523 212.154 57.5996 212.958 57.5996H220.493C221.298 57.5996 221.951 58.2523 221.951 59.0571V60.387C221.951 61.1923 221.298 61.8444 220.493 61.8444Z" fill="#2DACD4"/>
<path d="M218.134 72.3473H210.599C209.794 72.3473 209.141 71.6947 209.141 70.8899V69.56C209.141 68.7552 209.794 68.1025 210.599 68.1025H218.134C218.938 68.1025 219.591 68.7552 219.591 69.56V70.8899C219.59 71.6953 218.938 72.3473 218.134 72.3473Z" fill="#2DACD4"/>
<path d="M225.718 67.0964H218.183C217.378 67.0964 216.726 66.4437 216.726 65.6389V64.309C216.726 63.5042 217.378 62.8516 218.183 62.8516H225.718C226.523 62.8516 227.175 63.5042 227.175 64.309V65.6389C227.175 66.4437 226.523 67.0964 225.718 67.0964Z" fill="#2DACD4"/>
<path opacity="0.7" d="M213.926 67.0964H206.391C205.586 67.0964 204.933 66.4437 204.933 65.6389V64.309C204.933 63.5042 205.586 62.8516 206.391 62.8516H213.926C214.73 62.8516 215.383 63.5042 215.383 64.309V65.6389C215.382 66.4437 214.73 67.0964 213.926 67.0964Z" fill="white"/>
<path opacity="0.8" d="M220.493 61.8444H212.958C212.154 61.8444 211.501 61.1918 211.501 60.387V59.0571C211.501 58.2523 212.154 57.5996 212.958 57.5996H220.493C221.298 57.5996 221.951 58.2523 221.951 59.0571V60.387C221.951 61.1923 221.298 61.8444 220.493 61.8444Z" fill="white"/>
<path opacity="0.8" d="M218.134 72.3473H210.599C209.794 72.3473 209.141 71.6947 209.141 70.8899V69.56C209.141 68.7552 209.794 68.1025 210.599 68.1025H218.134C218.938 68.1025 219.591 68.7552 219.591 69.56V70.8899C219.59 71.6953 218.938 72.3473 218.134 72.3473Z" fill="white"/>
<path opacity="0.7" d="M225.718 67.0964H218.183C217.378 67.0964 216.726 66.4437 216.726 65.6389V64.309C216.726 63.5042 217.378 62.8516 218.183 62.8516H225.718C226.523 62.8516 227.175 63.5042 227.175 64.309V65.6389C227.175 66.4437 226.523 67.0964 225.718 67.0964Z" fill="white"/>
<path d="M195.219 57.0964H202.754C203.559 57.0964 204.212 56.4437 204.212 55.6389V54.309C204.212 53.5042 203.559 52.8516 202.754 52.8516H195.219C194.414 52.8516 193.762 53.5042 193.762 54.309V55.6389C193.762 56.4437 194.414 57.0964 195.219 57.0964Z" fill="#2DACD4"/>
<path d="M191.011 62.3473H198.546C199.35 62.3473 200.003 61.6947 200.003 60.8899V59.56C200.003 58.7552 199.35 58.1025 198.546 58.1025H191.011C190.206 58.1025 189.553 58.7552 189.553 59.56V60.8899C189.554 61.6953 190.206 62.3473 191.011 62.3473Z" fill="#2DACD4"/>
<path d="M183.427 57.0964H190.962C191.766 57.0964 192.419 56.4437 192.419 55.6389V54.309C192.419 53.5042 191.766 52.8516 190.962 52.8516H183.427C182.622 52.8516 181.969 53.5042 181.969 54.309V55.6389C181.969 56.4437 182.622 57.0964 183.427 57.0964Z" fill="#2DACD4"/>
<path opacity="0.8" d="M195.219 57.0964H202.754C203.559 57.0964 204.212 56.4437 204.212 55.6389V54.309C204.212 53.5042 203.559 52.8516 202.754 52.8516H195.219C194.414 52.8516 193.762 53.5042 193.762 54.309V55.6389C193.762 56.4437 194.414 57.0964 195.219 57.0964Z" fill="white"/>
<path opacity="0.8" d="M191.011 62.3473H198.546C199.35 62.3473 200.003 61.6947 200.003 60.8899V59.56C200.003 58.7552 199.35 58.1025 198.546 58.1025H191.011C190.206 58.1025 189.553 58.7552 189.553 59.56V60.8899C189.554 61.6953 190.206 62.3473 191.011 62.3473Z" fill="white"/>
<path opacity="0.7" d="M183.427 57.0964H190.962C191.766 57.0964 192.419 56.4437 192.419 55.6389V54.309C192.419 53.5042 191.766 52.8516 190.962 52.8516H183.427C182.622 52.8516 181.969 53.5042 181.969 54.309V55.6389C181.969 56.4437 182.622 57.0964 183.427 57.0964Z" fill="white"/>
<path d="M128.732 67.584H94.4946V106.254H128.732V67.584Z" fill="#263238"/>
<path d="M131.476 106.254H91.751V109.373H131.476V106.254Z" fill="#263238"/>
<g opacity="0.4">
<path d="M131.476 106.254H91.751V109.373H131.476V106.254Z" fill="white"/>
</g>
<path opacity="0.6" d="M128.732 67.584H94.4946V106.254H128.732V67.584Z" fill="white"/>
<path opacity="0.5" d="M126.315 70.001H96.9116V103.838H126.315V70.001Z" fill="white"/>
<g opacity="0.2">
<path d="M96.9116 70.001V103.838H97.1215L105.205 70.001H96.9116Z" fill="white"/>
<path d="M122.133 70.001H120.62L112.537 103.838H114.05L122.133 70.001Z" fill="white"/>
<path d="M118.581 70.001H112.237L104.154 103.838H110.498L118.581 70.001Z" fill="white"/>
</g>
<path d="M74.7104 98.7644C73.5498 98.8485 72.0826 97.9167 71.3705 96.7046C71.1468 96.3243 71.033 96.1349 70.8019 95.758C69.1488 93.0604 65.5252 91.1254 63.0244 91.3067C62.7733 91.325 62.648 91.3341 62.3975 91.3519C62.0966 91.3736 60.9412 91.4577 60.6403 91.4794C60.3898 91.4977 60.2639 91.5069 60.0134 91.5252C57.5126 91.7065 56.9463 93.9453 58.4324 96.6549C58.6406 97.0341 58.7424 97.224 58.9426 97.6061C59.5804 98.8233 59.1056 99.8958 57.945 99.9799C55.9408 100.125 55.0988 101.974 55.8721 104.162C58.4141 113.17 59.1131 120.769 58.1378 128.997C59.8967 130.621 62.2402 131.622 64.8228 131.622H85.1305C85.9159 121.315 84.4361 112.725 80.3406 102.389C79.3207 100.218 76.7141 98.6191 74.7104 98.7644Z" fill="#2DACD4"/>
<path opacity="0.1" d="M74.7104 98.7644C73.5498 98.8485 72.0826 97.9167 71.3705 96.7046C71.1468 96.3243 71.033 96.1349 70.8019 95.758C69.1488 93.0604 65.5252 91.1254 63.0244 91.3067C62.7733 91.325 62.648 91.3341 62.3975 91.3519C62.0966 91.3736 60.9412 91.4577 60.6403 91.4794C60.3898 91.4977 60.2639 91.5069 60.0134 91.5252C57.5126 91.7065 56.9463 93.9453 58.4324 96.6549C58.6406 97.0341 58.7424 97.224 58.9426 97.6061C59.5804 98.8233 59.1056 99.8958 57.945 99.9799C55.9408 100.125 55.0988 101.974 55.8721 104.162C58.4141 113.17 59.1131 120.769 58.1378 128.997C59.8967 130.621 62.2402 131.622 64.8228 131.622H85.1305C85.9159 121.315 84.4361 112.725 80.3406 102.389C79.3207 100.218 76.7141 98.6191 74.7104 98.7644Z" fill="black"/>
<path opacity="0.2" d="M74.7104 98.7644C73.5498 98.8485 72.0827 97.9167 71.3705 96.7046C71.1469 96.3243 71.033 96.1349 70.8019 95.758C69.1489 93.0604 65.5252 91.1254 63.0245 91.3067C62.7739 91.325 62.6481 91.3341 62.3976 91.3519C59.8968 91.5332 59.3568 93.7697 60.876 96.4776C61.0882 96.8562 61.1929 97.0461 61.3977 97.4277C62.0503 98.6437 61.587 99.7157 60.4264 99.7997C58.4222 99.945 57.6008 101.793 58.3993 103.979C61.2433 113.655 61.9422 121.716 60.7113 130.716C61.964 131.292 63.3534 131.622 64.8223 131.622H85.13C85.9153 121.315 84.4356 112.725 80.34 102.389C79.3207 100.218 76.7141 98.6191 74.7104 98.7644Z" fill="black"/>
<path d="M88.4474 108.973C88.4474 108.973 87.5603 120.695 90.5015 120.573C93.4427 120.452 99.2313 120.494 99.2313 120.494L104.011 118.357C104.266 118.244 104.565 118.298 104.763 118.495L106.929 120.642C107.363 121.073 107.047 121.815 106.435 121.799L105.111 121.764C105.111 121.764 102.801 123.207 99.2834 122.88C99.9658 122.67 87.1862 125.045 85.8729 123.233C84.0756 120.752 83.292 110.394 83.292 110.394L88.4474 108.973Z" fill="#B55B52"/>
<path opacity="0.1" d="M88.4474 108.973C88.4474 108.973 87.5603 120.695 90.5015 120.573C93.4427 120.452 99.2313 120.494 99.2313 120.494L104.011 118.357C104.266 118.244 104.565 118.298 104.763 118.495L106.929 120.642C107.363 121.073 107.047 121.815 106.435 121.799L105.111 121.764C105.111 121.764 102.801 123.207 99.2834 122.88C99.9658 122.67 87.1862 125.045 85.8729 123.233C84.0756 120.752 83.292 110.394 83.292 110.394L88.4474 108.973Z" fill="black"/>
<path d="M85.6778 101.675C87.6707 101.614 89.9186 104.2 88.9268 111.072L83.4488 112.129C83.4488 112.129 81.6693 101.797 85.6778 101.675Z" fill="#263238"/>
<path opacity="0.2" d="M85.6778 101.675C87.6707 101.614 89.9186 104.2 88.9268 111.072L83.4488 112.129C83.4488 112.129 81.6693 101.797 85.6778 101.675Z" fill="black"/>
<path d="M65.4491 101.786C62.4524 105.649 62.9437 125.957 63.1353 131.467C63.6844 131.562 64.2462 131.622 64.8222 131.622H82.2384C83.7256 112.101 90.0468 106.322 87.7302 102.64C85.5223 99.1311 68.9234 97.3088 65.4491 101.786Z" fill="#263238"/>
<path d="M79.9062 104.199C79.9062 104.199 84.2471 101.502 82.4854 100.036C80.4038 99.5285 77.9585 99.2105 75.5573 99.1504C74.8474 99.6183 75.3617 100.922 79.9062 104.199Z" fill="#B55B52"/>
<path d="M82.3359 97.4613L78.5041 93.2988C78.1397 96.4912 76.4391 99.1081 76.0977 99.2144L76.5169 100.676C81.1604 105.898 82.2329 100.885 82.2329 100.885C81.1027 99.938 82.3359 97.4613 82.3359 97.4613Z" fill="#B55B52"/>
<path opacity="0.2" d="M80.0393 94.9665L78.2529 94.7881C78.2529 94.7881 78.3313 100.142 81.9944 100.601C81.3148 99.5202 82.3364 97.461 82.3364 97.461L80.0393 94.9665Z" fill="#263238"/>
<path d="M79.0267 88.7216C78.1978 92.5054 77.5177 94.6704 78.8288 97.1718C80.0906 99.648 83.1205 100.633 85.5972 99.3711C86.5084 98.9067 87.2566 98.1756 87.7422 97.2759C89.4834 94.1991 90.5496 88.5289 87.3779 85.8942C85.2649 84.0392 82.048 84.248 80.193 86.3616C79.6038 87.0319 79.2017 87.8459 79.0267 88.7216Z" fill="#B55B52"/>
<path d="M84.2973 91.5589C84.2087 91.8586 84.3013 92.1532 84.5021 92.2001C84.7023 92.247 84.9231 92.0697 85.0118 91.7694C85.1004 91.4691 85.0095 91.1705 84.8024 91.1259C84.5954 91.0818 84.3814 91.2569 84.2973 91.5589Z" fill="#263238"/>
<path d="M87.6734 92.65C87.5848 92.9503 87.6734 93.2426 87.8782 93.2912C88.083 93.3404 88.2992 93.1608 88.3902 92.8565C88.4811 92.5522 88.3861 92.2622 88.1808 92.213C87.976 92.1644 87.7604 92.3434 87.6734 92.65Z" fill="#263238"/>
<path d="M83.5669 90.1175C83.5377 90.1118 83.5103 90.0986 83.4874 90.0797C83.4256 90.0008 83.4393 89.887 83.5183 89.8246C83.5206 89.8229 83.5223 89.8212 83.5246 89.82C83.9913 89.4517 84.6114 89.3401 85.1776 89.5226C85.2714 89.5581 85.3184 89.6627 85.2829 89.7565C85.2823 89.7583 85.2812 89.76 85.2806 89.7617C85.2451 89.8555 85.1405 89.9024 85.0467 89.8669C85.0449 89.8664 85.0432 89.8658 85.0415 89.8647C84.6005 89.7268 84.1206 89.8115 83.7534 90.0923C83.7013 90.1369 83.6281 90.1466 83.5669 90.1175Z" fill="#263238"/>
<path d="M89.4572 91.9416C89.4018 91.917 89.3623 91.8655 89.3537 91.8054C89.2874 91.3313 89.0042 90.9143 88.5872 90.6786C88.5026 90.6197 88.482 90.5036 88.5409 90.4189C88.5867 90.3531 88.669 90.324 88.7457 90.3463C89.2691 90.6334 89.6266 91.1505 89.7101 91.7414C89.7278 91.8403 89.662 91.9341 89.5636 91.9519C89.5625 91.9519 89.5608 91.9525 89.5608 91.9525C89.5259 91.9605 89.4899 91.9565 89.4572 91.9416Z" fill="#263238"/>
<path d="M84.0303 96.3255C84.1985 96.3747 84.3701 96.4096 84.5445 96.4291C84.6006 96.4388 84.6532 96.4011 84.6629 96.345C84.6629 96.3439 84.6635 96.3427 84.6635 96.3416C84.667 96.2838 84.6252 96.2335 84.5674 96.2266C83.6768 96.1316 82.8846 95.6197 82.4316 94.8469C82.4064 94.7949 82.3441 94.7737 82.292 94.7983C82.2399 94.8235 82.2182 94.8858 82.2434 94.9379C82.6278 95.6226 83.2718 96.1231 84.0303 96.3255Z" fill="#263238"/>
<path d="M86.4991 92.4531C86.5929 93.4942 86.824 94.518 87.1861 95.499C86.5186 95.8274 85.6777 95.3223 85.6777 95.3223L86.4991 92.4531Z" fill="#A02724"/>
<path d="M79.1013 90.8317C79.1013 90.8317 82.7764 90.8695 81.7188 88.7548C81.7188 88.7548 86.8164 89.7364 85.9481 87.811C85.9481 87.811 89.4001 90.5257 88.5078 87.962C88.5078 87.962 90.857 89.9634 90.9325 88.6793C91.008 87.3952 89.7147 86.5732 89.7147 86.5732C89.7147 86.5732 92.5833 84.2429 88.4249 84.2474C88.4249 84.2474 89.4116 80.7497 84.6634 83.5439C84.6634 83.5439 85.2943 79.9185 81.7565 83.5439C81.7565 83.5439 76.9597 83.5816 78.0928 85.1678C78.0928 85.1678 75.0727 86.1493 76.9609 87.207C76.9609 87.207 74.662 89.2862 76.3402 90.1345C76.3402 90.1345 74.1666 93.1237 77.339 92.7519C77.339 92.7519 76.2064 95.5141 77.6032 94.9478C79 94.3816 79.1013 90.8317 79.1013 90.8317Z" fill="#263238"/>
<path d="M76.7389 91.4062C76.7549 92.2716 77.0975 93.0993 77.6981 93.7233C78.4915 94.5316 79.4021 93.923 79.6063 92.8573C79.7905 91.8907 79.5977 90.3148 78.5944 89.9115C77.5906 89.5083 76.728 90.336 76.7389 91.4062Z" fill="#B55B52"/>
<path opacity="0.3" d="M82.913 125.474C83.0828 124.309 83.2687 123.207 83.4672 122.161L81.6437 121.796L71.5233 115.83L67.898 107.446L66.3873 104.199L64.9688 104.954C64.9688 104.954 64.9522 121.739 72.0518 124.788C75.04 126.072 78.8272 125.669 82.913 125.474Z" fill="black"/>
<path d="M71.3052 108.354C71.3052 108.354 73.3827 118.715 79.8543 119.878C86.3259 121.042 87.3109 121.02 87.3109 121.02L92.5567 119.309C92.8719 119.206 93.2174 119.312 93.4205 119.573L94.7452 121.274C95.133 121.773 94.8053 122.501 94.1755 122.542L91.9321 122.687C91.9321 122.687 90.3025 124.209 87.5209 123.872C87.5209 123.872 77.0269 125.022 73.3684 122.918C69.7099 120.815 66.8145 112.212 66.8145 112.212L71.3052 108.354Z" fill="#B55B52"/>
<path d="M66.6648 115.075C66.6648 115.075 62.9931 103.313 66.456 101.443C69.9189 99.5722 72.2029 107.825 73.0591 110.946L66.6648 115.075Z" fill="#263238"/>
<path d="M101.177 122.723L88.5083 123.327V125.126H101.177H109.333V122.723H101.177Z" fill="#2DACD4"/>
<path opacity="0.3" d="M101.177 125.126H88.5083V123.327L101.177 122.723V125.126Z" fill="white"/>
<path opacity="0.6" d="M109.333 122.723H101.177V125.126H109.333V122.723Z" fill="white"/>
<path d="M129.021 118.932H102.26L104.961 96.9326H131.723L129.021 118.932Z" fill="#2DACD4"/>
<path opacity="0.3" d="M129.021 118.932H102.26L104.961 96.9326H131.723L129.021 118.932Z" fill="white"/>
<path d="M106.504 96.9326L103.802 118.932H129.021L131.723 96.9326H106.504Z" fill="#2DACD4"/>
<path opacity="0.6" d="M106.504 96.9326L103.802 118.932H129.021L131.723 96.9326H106.504Z" fill="white"/>
<path d="M120.311 125.061H114.618L114.046 115.982H118.654L120.311 125.061Z" fill="#2DACD4"/>
<path opacity="0.3" d="M120.311 125.061H114.618L114.046 115.982H118.654L120.311 125.061Z" fill="white"/>
<path d="M121.325 125.061H115.633L115.061 115.982H119.668L121.325 125.061Z" fill="#2DACD4"/>
<path opacity="0.5" d="M121.325 125.061H115.633L115.061 115.982H119.668L121.325 125.061Z" fill="white"/>
<path d="M117.38 123.479H116.461H108.596V125.127H116.461H117.38H125.245V123.479H117.38Z" fill="#2DACD4"/>
<path opacity="0.3" d="M117.38 123.479H116.461H108.596V125.127H116.461H117.38H125.245V123.479H117.38Z" fill="white"/>
<path d="M125.246 123.479H116.461V125.127H125.246V123.479Z" fill="#2DACD4"/>
<path opacity="0.6" d="M125.246 123.479H116.461V125.127H125.246V123.479Z" fill="white"/>
<path d="M83.3423 127.691V131.622H124.935C128.153 131.622 131.002 130.075 132.803 127.691H83.3423Z" fill="#263238"/>
<path opacity="0.3" d="M83.3423 127.691V131.622H124.935C128.153 131.622 131.002 130.075 132.803 127.691H83.3423Z" fill="white"/>
<path d="M134.199 125.126H80.8643V127.691H132.802C133.388 126.917 133.86 126.055 134.199 125.126Z" fill="#263238"/>
<path opacity="0.5" d="M134.199 125.126H80.8643V127.691H132.802C133.388 126.917 133.86 126.055 134.199 125.126Z" fill="white"/>
<path d="M124.934 55.9238H64.8229C58.0493 55.9238 52.5381 61.4345 52.5381 68.2087V121.754C52.5381 128.528 58.0493 134.039 64.8229 134.039H124.934C131.708 134.039 137.219 128.528 137.219 121.754V68.2087C137.219 61.4345 131.708 55.9238 124.934 55.9238ZM134.802 121.754C134.802 127.204 130.384 131.622 124.934 131.622H64.8224C59.3723 131.622 54.9542 127.204 54.9542 121.754V68.2087C54.9542 62.7587 59.3723 58.3405 64.8224 58.3405H124.934C130.384 58.3405 134.803 62.7587 134.803 68.2087V121.754H134.802Z" fill="#2DACD4"/>
<path opacity="0.4" d="M124.934 55.9238H64.8229C58.0493 55.9238 52.5381 61.4345 52.5381 68.2087V121.754C52.5381 128.528 58.0493 134.039 64.8229 134.039H124.934C131.708 134.039 137.219 128.528 137.219 121.754V68.2087C137.219 61.4345 131.708 55.9238 124.934 55.9238ZM134.802 121.754C134.802 127.204 130.384 131.622 124.934 131.622H64.8224C59.3723 131.622 54.9542 127.204 54.9542 121.754V68.2087C54.9542 62.7587 59.3723 58.3405 64.8224 58.3405H124.934C130.384 58.3405 134.803 62.7587 134.803 68.2087V121.754H134.802Z" fill="white"/>
<path d="M154.326 84.89C160.467 78.7489 160.467 68.7922 154.326 62.6511C148.185 56.51 138.228 56.51 132.087 62.6511C125.946 68.7922 125.946 78.7489 132.087 84.89C138.228 91.0311 148.185 91.0311 154.326 84.89Z" fill="#2DACD4"/>
<path opacity="0.3" d="M154.326 84.89C160.467 78.7489 160.467 68.7922 154.326 62.6511C148.185 56.51 138.228 56.51 132.087 62.6511C125.946 68.7922 125.946 78.7489 132.087 84.89C138.228 91.0311 148.185 91.0311 154.326 84.89Z" fill="black"/>
<path d="M158.515 76.3053C160.51 67.8531 155.277 59.3834 146.824 57.3876C138.372 55.3918 129.902 60.6257 127.907 69.0779C125.911 77.53 131.145 85.9997 139.597 87.9955C148.049 89.9913 156.519 84.7574 158.515 76.3053Z" fill="#2DACD4"/>
<path opacity="0.9" d="M156.174 75.7525C157.864 68.5931 153.431 61.4189 146.272 59.7284C139.112 58.0378 131.938 62.4712 130.247 69.6306C128.557 76.7899 132.99 83.9642 140.15 85.6547C147.309 87.3453 154.483 82.9119 156.174 75.7525Z" fill="white"/>
<path d="M142.663 63.3064C142.663 66.2562 142.564 69.2231 142.663 72.1707C142.695 73.1127 143.134 73.377 143.817 74.0594C144.856 75.0993 145.896 76.1386 146.935 77.1779C147.431 77.6739 148.201 76.9045 147.705 76.408C146.739 75.4419 145.773 74.4764 144.808 73.5103C144.437 73.1396 143.901 72.7541 143.612 72.3142C143.977 72.8685 143.752 72.2399 143.752 71.7703C143.752 68.9486 143.752 66.1269 143.752 63.3052C143.752 62.6057 142.663 62.6045 142.663 63.3064Z" fill="#263238"/>
<path d="M168.125 233.795C167.397 233.795 166.788 233.242 166.719 232.517L166.27 227.803V188.671H169.98V227.803L169.531 232.517C169.462 233.242 168.853 233.795 168.125 233.795Z" fill="#263238"/>
<path opacity="0.3" d="M168.125 233.795C167.397 233.795 166.788 233.242 166.719 232.517L166.27 227.803V188.671H169.98V227.803L169.531 232.517C169.462 233.242 168.853 233.795 168.125 233.795Z" fill="white"/>
<path opacity="0.1" d="M169.98 193.088H166.271V197.644H169.98V193.088Z" fill="black"/>
<path d="M171.296 228.459V226.988C171.296 226.413 170.83 225.947 170.255 225.947H165.996C165.421 225.947 164.955 226.413 164.955 226.988V228.459L154.482 231.338C153.211 231.687 152.331 232.843 152.331 234.161H183.92C183.92 232.843 183.04 231.687 181.769 231.338L171.296 228.459Z" fill="#263238"/>
<path opacity="0.2" d="M171.296 228.459V226.988C171.296 226.413 170.83 225.947 170.255 225.947H165.996C165.421 225.947 164.955 226.413 164.955 226.988V228.459L154.482 231.338C153.211 231.687 152.331 232.843 152.331 234.161H183.92C183.92 232.843 183.04 231.687 181.769 231.338L171.296 228.459Z" fill="white"/>
<path opacity="0.1" d="M171.296 228.419V226.988C171.296 226.938 171.288 226.89 171.281 226.842H164.97C164.963 226.89 164.955 226.938 164.955 226.988V228.419H171.296Z" fill="black"/>
<path d="M184.937 150.453C177.959 150.7 171.927 156.626 171.195 163.582L168.591 188.363C168.353 190.624 169.993 192.456 172.254 192.456H175.829H189.727H193.303C195.563 192.456 197.589 190.624 197.827 188.363L200.464 163.275C201.225 156.034 195.84 150.194 188.513 150.453H184.937V150.453Z" fill="#263238"/>
<path opacity="0.2" d="M184.937 150.453C177.959 150.7 171.927 156.626 171.195 163.582L168.591 188.363C168.353 190.624 169.993 192.456 172.254 192.456H175.829H189.727H193.303C195.563 192.456 197.589 190.624 197.827 188.363L200.464 163.275C201.225 156.034 195.84 150.194 188.513 150.453H184.937V150.453Z" fill="white"/>
<path d="M196.888 163.275C197.649 156.034 192.263 150.194 184.937 150.453C177.959 150.7 171.927 156.625 171.195 163.582L168.591 188.363C168.353 190.623 169.993 192.456 172.254 192.456H189.727C191.988 192.456 194.013 190.623 194.251 188.363L196.888 163.275Z" fill="#263238"/>
<path d="M138.817 188.469C143.014 187.309 147.327 186.67 151.651 186.552C156.108 186.431 172.79 186.534 176.752 186.532C181.574 186.53 186.396 187.175 191.075 188.469C194.016 189.282 193.109 193.885 190.453 193.938C190.218 193.943 139.79 193.926 139.604 193.935C136.825 194.072 135.811 189.3 138.817 188.469Z" fill="#263238"/>
<path d="M189.709 193.84C181.238 191.497 172.266 191.497 163.794 193.84C160.59 194.726 159.223 189.356 162.429 188.469C171.786 185.881 181.718 185.881 191.075 188.469C194.276 189.354 192.919 194.728 189.709 193.84Z" fill="#263238"/>
<g opacity="0.2">
<path d="M189.709 193.84C181.238 191.497 172.266 191.497 163.794 193.84C160.59 194.726 159.223 189.356 162.429 188.469C171.786 185.881 181.718 185.881 191.075 188.469C194.276 189.354 192.919 194.728 189.709 193.84Z" fill="white"/>
</g>
<path d="M132.464 206.744L128.897 217.16L125.9 216.303L128.326 205.317L132.464 206.744Z" fill="#B97964"/>
<path d="M125.953 215.503L129.637 216.614C129.798 216.656 129.908 216.804 129.902 216.969L129.767 220.632C129.757 220.957 129.486 221.213 129.161 221.203C129.12 221.202 129.078 221.196 129.038 221.186C127.51 220.758 126.169 220.318 124.258 219.822C122.004 219.234 122.505 219.653 119.846 218.998C118.244 218.603 118.426 216.712 119.127 216.799C122.326 217.218 123.464 216.367 124.948 215.57C125.263 215.426 125.621 215.402 125.953 215.503Z" fill="#263238"/>
<path opacity="0.1" d="M130.519 212.423L126.958 211.51L128.326 205.317L132.463 206.744L130.519 212.423Z" fill="black"/>
<path d="M133.105 209.526L132.106 211.452L126.399 209.526V207.314L133.105 209.526Z" fill="#2DACD4"/>
<path opacity="0.3" d="M133.105 209.526L132.106 211.452L126.399 209.526V207.314L133.105 209.526Z" fill="white"/>
<path d="M155.436 219.513L156.624 228.732L153.271 228.819L150.85 219.926L155.436 219.513Z" fill="#B97964"/>
<path d="M153.228 228.307L157.056 228.318C157.222 228.319 157.365 228.434 157.401 228.596L158.186 232.176C158.258 232.493 158.06 232.809 157.742 232.881C157.701 232.89 157.66 232.895 157.618 232.896C156.032 232.864 154.623 232.773 152.649 232.771C150.32 232.766 150.91 233.045 148.171 233.077C146.521 233.095 146.224 231.218 146.924 231.128C150.128 230.733 151.033 229.767 152.271 228.624C152.541 228.405 152.881 228.292 153.228 228.307Z" fill="#263238"/>
<path opacity="0.1" d="M152.254 225.085L150.85 219.926L155.436 219.513L156.123 224.842L152.254 225.085Z" fill="black"/>
<path d="M166.986 164.174H161.57C161.57 164.174 160.143 167.864 159.858 171.717C159.572 175.569 166.986 172.716 166.986 172.716L167.633 167.437L166.986 164.174Z" fill="#2DACD4"/>
<path opacity="0.1" d="M166.986 164.174H161.57C161.57 164.174 160.143 167.864 159.858 171.717C159.572 175.569 166.986 172.716 166.986 172.716L167.633 167.437L166.986 164.174Z" fill="black"/>
<path opacity="0.1" d="M163.838 164.174C165.341 172.072 162.445 171.671 162.445 171.671L164.086 172.813L167.064 172.082L167.633 167.437L166.986 164.174H163.838Z" fill="black"/>
<path d="M177.788 163.679C177.788 163.679 183.305 172.905 182.353 180.61C181.402 188.315 174.275 192.39 146.881 179.263C146.881 179.263 141.262 185.081 131.94 210.002L127.185 208.574C127.185 208.574 132.559 179.767 137.362 171.573C142.213 163.298 163.52 172.999 165.137 171.383C166.577 169.943 165.328 164.249 165.328 164.249L177.788 163.679Z" fill="#2DACD4"/>
<path opacity="0.2" d="M143.754 181.849L142.256 180.69C142.256 180.69 136.976 183.549 139.604 191.688V191.688C141.513 187.704 143.081 184.896 144.266 182.972L143.754 181.849Z" fill="black"/>
<path d="M166.636 186.84C161.657 185.648 155.211 183.255 146.881 179.264C146.881 179.264 140.453 179.35 140.026 184.13C139.598 188.909 150.869 221.965 150.869 221.965L156.077 221.512C156.077 221.512 153.009 188.553 152.296 186.84H166.636Z" fill="#2DACD4"/>
<path opacity="0.1" d="M166.636 186.84C161.657 185.648 155.211 183.255 146.881 179.264C146.881 179.264 140.453 179.35 140.026 184.13C139.598 188.909 150.869 221.965 150.869 221.965L156.077 221.512C156.077 221.512 153.009 188.553 152.296 186.84H166.636Z" fill="black"/>
<path opacity="0.1" d="M146.881 179.264C146.881 179.264 145.899 179.278 144.678 179.579C145.855 180.623 150.008 184.076 156.296 186.84H166.636C161.657 185.648 155.211 183.255 146.881 179.264Z" fill="black"/>
<path d="M156.701 220.657L156.842 222.796L150.779 223.272L149.917 221.236L156.701 220.657Z" fill="#2DACD4"/>
<path opacity="0.3" d="M156.701 220.657L156.842 222.796L150.779 223.272L149.917 221.236L156.701 220.657Z" fill="white"/>
<path d="M153.988 154.463L147.869 157.899L143.774 157.701C143.406 157.683 143.057 157.863 142.858 158.173L141.686 160.006C141.524 160.26 141.481 160.572 141.57 160.861L141.598 160.951C141.757 161.471 142.294 161.777 142.822 161.649L144.609 161.216L148.16 160.538L156.85 156.747L153.988 154.463Z" fill="#B97964"/>
<path d="M152.784 154.655C152.784 154.655 154.965 155.298 155.459 157.899C155.459 157.899 159.921 156.349 160.699 153.858C161.476 151.367 163.55 139.051 160.192 139.03C156.834 139.01 158.657 153.764 152.784 154.655Z" fill="#263238"/>
<path opacity="0.6" d="M152.784 154.655C152.784 154.655 154.965 155.298 155.459 157.899C155.459 157.899 159.921 156.349 160.699 153.858C161.476 151.367 163.55 139.051 160.192 139.03C156.834 139.01 158.657 153.764 152.784 154.655Z" fill="white"/>
<path d="M151.648 154.848C151.648 154.848 153.25 156.288 154.257 158.753L156.614 157.589C156.614 157.589 155.666 154.906 153.743 153.824L151.648 154.848Z" fill="#263238"/>
<path opacity="0.7" d="M151.648 154.848C151.648 154.848 153.25 156.288 154.257 158.753L156.614 157.589C156.614 157.589 155.666 154.906 153.743 153.824L151.648 154.848Z" fill="white"/>
<path d="M161.119 164.762C161.119 164.762 169.582 165.525 178.549 164.25C178.549 164.25 176.579 157.663 177.998 149.67C179.418 141.678 186.937 136.935 168.27 137.261C165.568 137.308 157.56 136.948 158.478 142.65C159.459 148.741 161.119 164.762 161.119 164.762Z" fill="#263238"/>
<path opacity="0.5" d="M161.119 164.762C161.119 164.762 169.582 165.525 178.549 164.25C178.549 164.25 176.579 157.663 177.998 149.67C179.418 141.678 186.937 136.935 168.27 137.261C165.568 137.308 157.56 136.948 158.478 142.65C159.459 148.741 161.119 164.762 161.119 164.762Z" fill="white"/>
<path d="M172.246 155.415L163.534 157.989L159.808 157.336C159.415 157.268 159.016 157.427 158.778 157.748L157.524 159.441C157.34 159.69 157.274 160.006 157.344 160.308L157.357 160.363C157.483 160.907 158.012 161.258 158.562 161.164L160.349 160.859L163.938 160.425L174.943 157.891L172.246 155.415Z" fill="#B97964"/>
<path d="M170.96 155.27C170.96 155.27 173.127 156.084 173.442 158.713C173.442 158.713 178.037 157.702 178.983 155.27C179.93 152.838 182.925 139.231 179.576 138.98C176.227 138.73 176.88 154.784 170.96 155.27Z" fill="#263238"/>
<path opacity="0.6" d="M170.96 155.27C170.96 155.27 173.127 156.084 173.442 158.713C173.442 158.713 178.037 157.702 178.983 155.27C179.93 152.838 182.925 139.231 179.576 138.98C176.227 138.73 176.88 154.784 170.96 155.27Z" fill="white"/>
<path d="M169.663 155.493C169.663 155.493 171.545 157.237 172.246 159.397L174.652 158.714C174.652 158.714 173.669 155.827 171.824 154.615L169.663 155.493Z" fill="#263238"/>
<path opacity="0.7" d="M169.663 155.493C169.663 155.493 171.545 157.237 172.246 159.397L174.652 158.714C174.652 158.714 173.669 155.827 171.824 154.615L169.663 155.493Z" fill="white"/>
<path d="M171.856 120.599C171.856 120.599 169.249 115.387 173.246 116.071C177.242 116.754 174.877 127.123 178.557 128.538C178.557 128.538 174.304 129.596 171.856 120.599Z" fill="#263238"/>
<path opacity="0.6" d="M171.105 118.406C171.317 119.518 171.856 120.598 171.856 120.598C172.525 123.057 173.329 124.761 174.144 125.944C174.744 124.047 174.985 120.953 173.21 119.178C172.525 118.494 171.813 118.68 171.105 118.406Z" fill="black"/>
<path d="M170.46 119.49C170.46 119.49 171.769 118.016 172.892 119.909C174.014 121.802 172.162 122.253 172.162 122.253L170.46 119.49Z" fill="#2DACD4"/>
<path d="M171.395 129.379C171.395 129.379 171.985 131.516 173.51 130.05C175.035 128.584 172.277 130.121 171.395 129.379Z" fill="#263238"/>
<path d="M168.265 137.075C168.265 137.075 164.528 135.786 162.934 138.962L164.412 139.545L163.601 140.54L166.65 142.752L171.858 140.968L171.571 140.232L174.079 139.549C174.079 139.549 174.733 135.892 168.265 137.075Z" fill="#263238"/>
<path opacity="0.7" d="M168.265 137.075C168.265 137.075 164.528 135.786 162.934 138.962L164.412 139.545L163.601 140.54L166.65 142.752L171.858 140.968L171.571 140.232L174.079 139.549C174.079 139.549 174.733 135.892 168.265 137.075Z" fill="white"/>
<path d="M168.375 137.366C168.375 137.366 162.147 135.999 166.523 142.204C166.523 142.204 178.978 137.238 168.375 137.366Z" fill="#B97964"/>
<path d="M170.849 130.219L166.614 134.38C166.991 136.192 166.463 137.13 165.883 137.615V138.963C166.368 139.116 167.067 139.214 168.088 139.16C171.159 138.996 172.162 138.67 172.162 138.67C170.316 137.193 170.579 132.696 170.849 130.219Z" fill="#B97964"/>
<path opacity="0.1" d="M166.652 136.306C166.766 135.809 166.781 135.182 166.614 134.38L170.392 130.667L170.764 131.097C170.764 131.097 170.003 135.828 166.652 136.306Z" fill="black"/>
<path d="M171.203 124.711C171.512 128.79 171.732 130.509 169.977 132.866C167.336 136.414 162.26 135.903 160.736 132C159.364 128.486 159.087 122.411 162.821 120.254C165.481 118.699 168.897 119.595 170.452 122.255C170.89 123.004 171.147 123.845 171.203 124.711Z" fill="#B97964"/>
<path d="M162.879 128.835C162.691 129.627 162.394 130.39 161.997 131.101C162.369 131.298 162.809 131.321 163.199 131.163L162.879 128.835Z" fill="#A24E3F"/>
<path d="M165.965 126.052C165.991 126.042 166.015 126.026 166.034 126.005C166.092 125.936 166.083 125.834 166.015 125.776C166.015 125.776 166.013 125.775 166.012 125.774C165.549 125.366 164.916 125.209 164.315 125.354C164.231 125.382 164.185 125.471 164.209 125.557C164.235 125.641 164.323 125.688 164.408 125.664C164.906 125.553 165.427 125.687 165.808 126.025C165.852 126.061 165.912 126.071 165.965 126.052Z" fill="#2E353A"/>
<path d="M159.937 126.613C159.963 126.603 159.987 126.587 160.006 126.566C160.334 126.178 160.828 125.972 161.334 126.009C161.422 126.023 161.506 125.964 161.52 125.876V125.873C161.532 125.784 161.47 125.702 161.381 125.688C160.766 125.634 160.163 125.881 159.761 126.35C159.699 126.415 159.701 126.517 159.766 126.58C159.811 126.624 159.878 126.637 159.937 126.613Z" fill="#2E353A"/>
<path d="M165.129 127.971C165.174 128.298 165.037 128.588 164.819 128.62C164.601 128.653 164.394 128.409 164.35 128.077C164.307 127.744 164.442 127.459 164.656 127.428C164.87 127.398 165.081 127.639 165.129 127.971Z" fill="#2E353A"/>
<path d="M161.405 128.485C161.451 128.812 161.313 129.103 161.1 129.133C160.887 129.164 160.675 128.922 160.627 128.591C160.58 128.26 160.72 127.973 160.933 127.943C161.146 127.913 161.362 128.152 161.405 128.485Z" fill="#2E353A"/>
<path d="M161.03 127.947L160.209 127.83C160.209 127.83 160.701 128.389 161.03 127.947Z" fill="#2E353A"/>
<path d="M164.753 127.433L163.932 127.315C163.932 127.315 164.424 127.875 164.753 127.433Z" fill="#2E353A"/>
<path d="M165.387 131.308C165.454 131.192 165.51 131.071 165.556 130.945C165.573 130.906 165.554 130.859 165.514 130.843L165.511 130.841C165.469 130.829 165.425 130.851 165.409 130.892C165.18 131.536 164.66 132.033 164.006 132.231C163.963 132.241 163.936 132.283 163.945 132.326C163.955 132.369 163.997 132.396 164.04 132.387C164.617 132.224 165.103 131.834 165.387 131.308Z" fill="#263238"/>
<path d="M171.395 129.379C171.395 129.379 169.163 128.164 169.022 124.799C168.882 121.434 163.768 120.752 160.62 122.723C160.62 122.723 159.718 119.755 163.012 119.49C163.012 119.49 167.83 115.966 171.774 119.909C175.255 123.389 171.395 129.379 171.395 129.379Z" fill="#263238"/>
<path d="M172.601 127.776C172.48 128.558 172.054 129.26 171.415 129.727C170.564 130.339 169.78 129.667 169.715 128.675C169.657 127.786 170.028 126.39 171.029 126.17C171.762 126.032 172.468 126.514 172.607 127.247C172.639 127.422 172.638 127.602 172.601 127.776Z" fill="#B97964"/>
<path d="M160.894 122.202C160.894 122.202 159.891 124.443 159.05 122.202C158.208 119.962 160.056 122.707 160.894 122.202Z" fill="#263238"/>
<path d="M163.467 160.739H134.243C133.769 160.739 133.385 161.124 133.385 161.598C133.385 162.072 133.769 162.456 134.243 162.456H163.467C163.941 162.456 164.325 162.072 164.325 161.598C164.325 161.124 163.941 160.739 163.467 160.739Z" fill="#2DACD4"/>
<path opacity="0.3" d="M163.467 160.739H134.243C133.769 160.739 133.385 161.124 133.385 161.598C133.385 162.072 133.769 162.456 134.243 162.456H163.467C163.941 162.456 164.325 162.072 164.325 161.598C164.325 161.124 163.941 160.739 163.467 160.739Z" fill="white"/>
<path opacity="0.2" d="M146.837 162.456C146.362 162.456 145.978 162.072 145.978 161.598C145.978 161.124 146.362 160.739 146.837 160.739H163.467C163.941 160.739 164.326 161.124 164.326 161.598C164.326 162.072 163.941 162.456 163.467 162.456H146.837Z" fill="white"/>
<path d="M134.71 161.931H145.457C145.737 161.931 145.933 161.655 145.84 161.39L139.948 144.556C139.785 144.092 139.348 143.781 138.856 143.781H128.111C127.83 143.781 127.634 144.058 127.727 144.322L133.62 161.157C133.781 161.621 134.219 161.931 134.71 161.931Z" fill="#2DACD4"/>
<path d="M134.191 161.931H144.938C145.218 161.931 145.414 161.655 145.321 161.39L139.429 144.556C139.266 144.092 138.829 143.781 138.337 143.781H127.591C127.311 143.781 127.115 144.058 127.207 144.322L133.1 161.157C133.262 161.621 133.7 161.931 134.191 161.931Z" fill="#2DACD4"/>
<path opacity="0.5" d="M134.191 161.931H144.938C145.218 161.931 145.414 161.655 145.321 161.39L139.429 144.556C139.266 144.092 138.829 143.781 138.337 143.781H127.591C127.311 143.781 127.115 144.058 127.207 144.322L133.1 161.157C133.262 161.621 133.7 161.931 134.191 161.931Z" fill="white"/>
<path d="M135.392 152.856C135.53 153.502 135.976 154.025 136.389 154.025C136.802 154.025 137.026 153.502 136.889 152.856C136.751 152.211 136.305 151.688 135.892 151.688C135.479 151.688 135.255 152.211 135.392 152.856Z" fill="white"/>
<path d="M113.369 152.39C113.369 152.39 109.699 148.987 111.624 147.516C113.55 146.044 109.337 143.768 110.855 142.662C112.374 141.556 110.108 138.699 111.433 138.222C112.759 137.745 111.109 136.079 112.069 135.274C113.327 134.221 113.07 139.609 114.32 139.698C115.569 139.787 113.085 142.757 114.639 143.136C116.192 143.516 114.078 146.88 115.533 146.941C116.988 147.002 115.669 150.658 113.369 152.39Z" fill="#2DACD4"/>
<path opacity="0.5" d="M113.369 152.39C113.369 152.39 109.699 148.987 111.624 147.516C113.55 146.044 109.337 143.768 110.855 142.662C112.374 141.556 110.108 138.699 111.433 138.222C112.759 137.745 111.109 136.079 112.069 135.274C113.327 134.221 113.07 139.609 114.32 139.698C115.569 139.787 113.085 142.757 114.639 143.136C116.192 143.516 114.078 146.88 115.533 146.941C116.988 147.002 115.669 150.658 113.369 152.39Z" fill="white"/>
<g opacity="0.2">
<path d="M112.149 136.655C112.519 138.886 112.824 141.13 113.07 143.378C113.37 146.133 114.008 149.62 113.141 152.328C113.048 152.618 113.505 152.743 113.598 152.453C114.49 149.665 113.853 146.211 113.543 143.378C113.293 141.088 112.983 138.802 112.606 136.53C112.556 136.23 112.1 136.357 112.149 136.655Z" fill="black"/>
</g>
<path d="M112.146 151.799C112.146 151.799 108.36 149.971 109.544 148.315C110.727 146.659 106.783 145.87 107.729 144.608C108.676 143.346 106.152 141.611 107.098 140.901C108.045 140.191 106.021 138.485 106.882 138.377C108.26 138.205 108.755 141.611 109.78 141.375C110.806 141.138 109.543 144.135 110.884 144.056C112.225 143.977 111.357 147.2 112.54 146.89C113.724 146.58 113.566 149.84 112.146 151.799Z" fill="#2DACD4"/>
<g opacity="0.2">
<path d="M107.671 139.985C109.484 143.704 111.32 147.738 111.918 151.862C111.961 152.162 112.417 152.034 112.374 151.736C111.772 147.58 109.91 143.501 108.079 139.746C107.946 139.472 107.538 139.712 107.671 139.985Z" fill="black"/>
</g>
<path d="M115.328 151.798C115.328 151.798 119.114 149.971 117.93 148.315C116.747 146.658 120.691 145.87 119.744 144.608C118.797 143.346 121.322 141.611 120.375 140.901C119.428 140.191 121.164 139.55 120.591 138.377C119.982 137.129 118.718 141.611 117.693 141.374C116.668 141.137 117.93 144.135 116.589 144.056C115.249 143.977 116.116 147.2 114.933 146.89C113.751 146.579 113.908 149.84 115.328 151.798Z" fill="#2DACD4"/>
<path opacity="0.2" d="M115.328 151.798C115.328 151.798 119.114 149.971 117.93 148.315C116.747 146.658 120.691 145.87 119.744 144.608C118.797 143.346 121.322 141.611 120.375 140.901C119.428 140.191 121.164 139.55 120.591 138.377C119.982 137.129 118.718 141.611 117.693 141.374C116.668 141.137 117.93 144.135 116.589 144.056C115.249 143.977 116.116 147.2 114.933 146.89C113.751 146.579 113.908 149.84 115.328 151.798Z" fill="white"/>
<g opacity="0.2">
<path d="M119.767 139.985C117.954 143.704 116.118 147.738 115.52 151.862C115.477 152.162 115.021 152.034 115.064 151.736C115.667 147.58 117.529 143.501 119.359 139.746C119.492 139.472 119.901 139.712 119.767 139.985Z" fill="black"/>
</g>
<path d="M117.327 162.555H110.596L109.334 151.219H118.589L117.327 162.555Z" fill="#2DACD4"/>
<path opacity="0.3" d="M117.327 162.555H110.596L109.334 151.219H118.589L117.327 162.555Z" fill="white"/>
<path d="M134.466 233.795C133.738 233.795 133.129 233.241 133.06 232.517L132.611 227.802V163.204H136.32V227.802L135.871 232.517C135.803 233.242 135.194 233.795 134.466 233.795Z" fill="#263238"/>
<path opacity="0.3" d="M134.466 233.795C133.738 233.795 133.129 233.241 133.06 232.517L132.611 227.802V163.204H136.32V227.802L135.871 232.517C135.803 233.242 135.194 233.795 134.466 233.795Z" fill="white"/>
<path opacity="0.1" d="M136.32 163.835H132.611V168.392H136.32V163.835Z" fill="black"/>
<path d="M137.636 228.459V226.988C137.636 226.413 137.17 225.947 136.595 225.947H132.335C131.761 225.947 131.295 226.413 131.295 226.988V228.459L120.822 231.338C119.551 231.687 118.67 232.843 118.67 234.161H150.26C150.26 232.843 149.379 231.687 148.108 231.338L137.636 228.459Z" fill="#2DACD4"/>
<path opacity="0.1" d="M137.636 228.419V226.988C137.636 226.938 137.628 226.89 137.621 226.842H131.31C131.303 226.89 131.295 226.938 131.295 226.988V228.419H137.636Z" fill="black"/>
<path opacity="0.2" d="M137.636 228.459V226.988C137.636 226.413 137.17 225.947 136.595 225.947H132.335C131.761 225.947 131.295 226.413 131.295 226.988V228.459L120.822 231.338C119.551 231.687 118.67 232.843 118.67 234.161H150.26C150.26 232.843 149.379 231.687 148.108 231.338L137.636 228.459Z" fill="black"/>
<path d="M174.675 164.626H94.2568V166.796H174.675V164.626Z" fill="#263238"/>
<path opacity="0.3" d="M174.675 164.626H94.2568V166.796H174.675V164.626Z" fill="white"/>
<path opacity="0.2" d="M174.675 164.626H134.576V166.796H174.675V164.626Z" fill="black"/>
<path d="M179.526 162.456H89.4058V164.626H179.526V162.456Z" fill="#2DACD4"/>
<path opacity="0.3" d="M179.526 162.456H129.725V164.626H179.526V162.456Z" fill="black"/>
</svg>
