<?xml version="1.0" encoding="UTF-8"?>
<svg version="1.1" xmlns="http://www.w3.org/2000/svg" width="64" height="64">
<path d="M0 0 C17.82 0 35.64 0 54 0 C54 13.2 54 26.4 54 40 C55.65 40 57.3 40 59 40 C59.1953125 46.0546875 59.1953125 46.0546875 59 48 C56.32806098 50.67193902 55.02973245 50.25316128 51.296875 50.25878906 C50.10223633 50.26509338 48.90759766 50.27139771 47.67675781 50.27789307 C46.38092773 50.2738446 45.08509766 50.26979614 43.75 50.265625 C42.41243418 50.26697178 41.07486883 50.26891243 39.73730469 50.27142334 C36.93289534 50.274374 34.12861331 50.27007894 31.32421875 50.26074219 C27.72595078 50.24934754 24.12798114 50.25590734 20.52972412 50.26788712 C17.76739242 50.27510736 15.00513167 50.27281706 12.24279785 50.26763153 C10.26961067 50.26564475 8.29642074 50.27172842 6.32324219 50.27789307 C5.12860352 50.27158875 3.93396484 50.26528442 2.703125 50.25878906 C1.64770508 50.25719788 0.59228516 50.25560669 -0.49511719 50.25396729 C-3 50 -3 50 -5 48 C-5.26991906 45.31160615 -5.08737357 42.70858064 -5 40 C-3.35 40 -1.7 40 0 40 C0 26.8 0 13.6 0 0 Z " fill="#C7C6CB" transform="translate(5,7)"/>
<path d="M0 0 C21.12 0 42.24 0 64 0 C64 2.64 64 5.28 64 8 C61.32806098 10.67193902 60.02973245 10.25316128 56.296875 10.25878906 C55.10223633 10.26509338 53.90759766 10.27139771 52.67675781 10.27789307 C51.38092773 10.2738446 50.08509766 10.26979614 48.75 10.265625 C47.41243418 10.26697178 46.07486883 10.26891243 44.73730469 10.27142334 C41.93289534 10.274374 39.12861331 10.27007894 36.32421875 10.26074219 C32.72595078 10.24934754 29.12798114 10.25590734 25.52972412 10.26788712 C22.76739242 10.27510736 20.00513167 10.27281706 17.24279785 10.26763153 C15.26961067 10.26564475 13.29642074 10.27172842 11.32324219 10.27789307 C10.12860352 10.27158875 8.93396484 10.26528442 7.703125 10.25878906 C6.64770508 10.25719788 5.59228516 10.25560669 4.50488281 10.25396729 C2 10 2 10 0 8 C0 5.36 0 2.72 0 0 Z " fill="#D7D7D9" transform="translate(0,47)"/>
<path d="M0 0 C5.28 0 10.56 0 16 0 C15.93489583 2.734375 15.86979167 5.46875 15.8046875 8.203125 C16.00430847 11.06169722 16.6569378 12.52538147 18 15 C18 15.99 18 16.98 18 18 C17.34 18 16.68 18 16 18 C17.08784968 21.24983135 17.08784968 21.24983135 19 24 C19.04080783 25.99958364 19.04254356 28.00045254 19 30 C18.34 30 17.68 30 17 30 C16.505 27.525 16.505 27.525 16 25 C15.34 25 14.68 25 14 25 C13.67 26.65 13.34 28.3 13 30 C12.34 30 11.68 30 11 30 C10.67386382 25.32538149 11.29417212 22.83325617 14 19 C11.69 19.99 9.38 20.98 7 22 C6.67 25.96 6.34 29.92 6 34 C4.02 34 2.04 34 0 34 C0 22.78 0 11.56 0 0 Z " fill="#80C6F0" transform="translate(9,11)"/>
<path d="M0 0 C4.95 0 9.9 0 15 0 C15 11.22 15 22.44 15 34 C13.02 34 11.04 34 9 34 C8.67 30.04 8.34 26.08 8 22 C5.69 21.01 3.38 20.02 1 19 C1.5259375 20.0828125 1.5259375 20.0828125 2.0625 21.1875 C3.10409017 24.3122705 2.89096572 25.88161996 2 29 C0.35 28.67 -1.3 28.34 -3 28 C-2.33333333 24.66666667 -1.66666667 21.33333333 -1 18 C-1.66 18 -2.32 18 -3 18 C-2.49396008 15.83125748 -2.00016187 14.00032373 -1 12 C-0.77141886 9.9625237 -0.58975722 7.91959697 -0.4375 5.875 C-0.293125 3.93625 -0.14875 1.9975 0 0 Z " fill="#7FC6F0" transform="translate(40,11)"/>
<path d="M0 0 C2.875 1.8125 2.875 1.8125 5 5 C5.99100158 11.15168907 5.64786729 16.78876102 2 22 C-0.1875 23.875 -0.1875 23.875 -2 25 C-8.5625 21.71875 -8.5625 21.71875 -10.3828125 17.16796875 C-11.54376385 13.08994343 -11.74737688 9.17402938 -11 5 C-7.95429006 0.52101479 -5.40517683 -1.12607851 0 0 Z " fill="#FC9578" transform="translate(35,7)"/>
<path d="M0 0 C4.875 0.875 4.875 0.875 6 2 C6.14426614 6.66845228 6.04208415 11.32865953 6 16 C0.72 16 -4.56 16 -10 16 C-10 12.04 -10 8.08 -10 4 C-4.25 1 -4.25 1 -2 1 C-2.88776002 4.69900008 -3.94581864 8.34550461 -5 12 C-4.34 12 -3.68 12 -3 12 C-3 10.35 -3 8.7 -3 7 C-1.68 7 -0.36 7 1 7 C1 8.65 1 10.3 1 12 C1.66 12 2.32 12 3 12 C2.690625 10.948125 2.38125 9.89625 2.0625 8.8125 C1.24314906 5.87247604 0.54516069 2.99838377 0 0 Z " fill="#D6D6D9" transform="translate(25,29)"/>
<path d="M0 0 C-0.33 2.97 -0.66 5.94 -1 9 C0.32 9 1.64 9 3 9 C2.67 6.03 2.34 3.06 2 0 C5 0 5 0 6.67578125 1.640625 C9.05234073 5.87496697 8.16992816 10.24201147 8 15 C3.38 15 -1.24 15 -6 15 C-6.37008734 3.52729258 -6.37008734 3.52729258 -4.67578125 1.11328125 C-3 0 -3 0 0 0 Z " fill="#D7D7D9" transform="translate(39,30)"/>
<path d="M0 0 C0.66 0 1.32 0 2 0 C2.1953125 6.0546875 2.1953125 6.0546875 2 8 C-0 10 -0 10 -2.51834106 10.24050903 C-4.11051956 10.2338472 -4.11051956 10.2338472 -5.73486328 10.22705078 C-6.93595734 10.22689972 -8.13705139 10.22674866 -9.37454224 10.22659302 C-10.67664642 10.21627045 -11.97875061 10.20594788 -13.3203125 10.1953125 C-14.66266673 10.19158276 -16.00502367 10.18873561 -17.34738159 10.18673706 C-20.882014 10.17909744 -24.41648228 10.1594463 -27.9510498 10.1373291 C-31.5571877 10.11687765 -35.16335209 10.10773685 -38.76953125 10.09765625 C-45.84642135 10.0762006 -52.92319997 10.04206079 -60 10 C-60.33 9.34 -60.66 8.68 -61 8 C-41.2 7.67 -21.4 7.34 -1 7 C-0.67 4.69 -0.34 2.38 0 0 Z " fill="#C7C6CC" transform="translate(62,47)"/>
<path d="M0 0 C2.95237189 0.31917534 4.55063725 0.53249196 6.64453125 2.7109375 C9.08858715 6.83836331 8.52305685 11.35284103 8 16 C6.5 19.6875 6.5 19.6875 5 22 C4.34 22 3.68 22 3 22 C3.875 17.125 3.875 17.125 5 16 C5.54273835 11.88294195 5.95838873 7.71236587 3.8828125 4.00390625 C2.38624745 2.18214595 2.38624745 2.18214595 0 0 Z " fill="#FB7F5C" transform="translate(32,7)"/>
<path d="M0 0 C1.65 0.33 3.3 0.66 5 1 C4.67 2.65 4.34 4.3 4 6 C2.35 5.67 0.7 5.34 -1 5 C-0.67 3.35 -0.34 1.7 0 0 Z " fill="#8AC9ED" transform="translate(38,34)"/>
<path d="M0 0 C1.32 0.33 2.64 0.66 4 1 C4 3.31 4 5.62 4 8 C3.34 8 2.68 8 2 8 C2 6.35 2 4.7 2 3 C1.34 3 0.68 3 0 3 C0 2.01 0 1.02 0 0 Z " fill="#51BCEF" transform="translate(37,26)"/>
<path d="M0 0 C0.99 0 1.98 0 3 0 C3 0.99 3 1.98 3 3 C2.34 3 1.68 3 1 3 C1 4.32 1 5.64 1 7 C0.34 7 -0.32 7 -1 7 C-1.04254356 5.00045254 -1.04080783 2.99958364 -1 1 C-0.67 0.67 -0.34 0.34 0 0 Z " fill="#52BCEF" transform="translate(24,26)"/>
</svg>
