<svg width="57" height="57" viewBox="0 0 57 57" fill="none" xmlns="http://www.w3.org/2000/svg">
<path d="M26.8025 53.9531C26.7593 50.836 25.4864 47.8611 23.2592 45.672C21.032 43.483 18.0295 42.2557 14.9012 42.2557C11.773 42.2557 8.77053 43.483 6.54331 45.672C4.31609 47.8611 3.0432 50.836 3 53.9531M43.8014 13.2906V40.3997M14.9024 38.9857C17.0067 38.9857 19.0247 38.1527 20.5127 36.6699C22.0006 35.1871 22.8365 33.176 22.8365 31.079C22.8365 28.982 22.0006 26.9709 20.5127 25.4881C19.0247 24.0053 17.0067 23.1723 14.9024 23.1723C12.7981 23.1723 10.78 24.0053 9.29208 25.4881C7.80414 26.9709 6.96822 28.982 6.96822 31.079C6.96822 33.176 7.80414 35.1871 9.29208 36.6699C10.78 38.1527 12.7981 38.9857 14.9024 38.9857ZM50.6005 36.2597V9.90166C50.617 9.00131 50.4533 8.10671 50.1189 7.27012C49.7846 6.43352 49.2863 5.6717 48.6532 5.02916C48.0201 4.38662 47.2649 3.87625 46.4317 3.52784C45.5984 3.17944 44.7038 3 43.8002 3C42.8966 3 42.002 3.17944 41.1688 3.52784C40.3355 3.87625 39.5803 4.38662 38.9472 5.02916C38.3141 5.6717 37.8158 6.43352 37.4815 7.27012C37.1472 8.10671 36.9835 9.00131 37 9.90166V36.2597C35.4604 37.6321 34.3753 39.438 33.8881 41.4385C33.401 43.4389 33.5348 45.5397 34.272 47.4627C35.0091 49.3857 36.3147 51.0403 38.0162 52.2076C39.7176 53.375 41.7346 54 43.8002 54C45.8659 54 47.8829 53.375 49.5843 52.2076C51.2857 51.0403 52.5914 49.3857 53.3285 47.4627C54.0656 45.5397 54.1995 43.4389 53.7123 41.4385C53.2252 39.438 52.14 37.6321 50.6005 36.2597Z" stroke="#44AECA" stroke-width="5" stroke-linecap="round" stroke-linejoin="round"/>
<path d="M5.83198 18.937C5.31065 18.418 4.89708 17.8018 4.61491 17.1234C4.33274 16.4451 4.1875 15.7179 4.1875 14.9836C4.1875 14.2493 4.33274 13.5222 4.61491 12.8438C4.89708 12.1655 5.31065 11.5492 5.83198 11.0303C6.88375 9.98157 7.47458 8.55957 7.47458 7.0769C7.47458 5.59422 6.88375 4.17223 5.83198 3.12354M14.2792 18.937C13.7579 18.418 13.3443 17.8018 13.0621 17.1234C12.78 16.4451 12.6347 15.7179 12.6347 14.9836C12.6347 14.2493 12.78 13.5222 13.0621 12.8438C13.3443 12.1655 13.7579 11.5492 14.2792 11.0303C15.331 9.98157 15.9218 8.55957 15.9218 7.0769C15.9218 5.59422 15.331 4.17223 14.2792 3.12354M23.3484 18.937C22.8271 18.418 22.4135 17.8018 22.1314 17.1234C21.8492 16.4451 21.704 15.7179 21.704 14.9836C21.704 14.2493 21.8492 13.5222 22.1314 12.8438C22.4135 12.1655 22.8271 11.5492 23.3484 11.0303C24.3996 9.98127 24.9901 8.55939 24.9901 7.0769C24.9901 5.5944 24.3996 4.17252 23.3484 3.12354M43.8025 47.175C44.2563 47.1866 44.7079 47.1077 45.1306 46.9427C45.5533 46.7777 45.9386 46.53 46.2637 46.2143C46.5888 45.8985 46.8472 45.5211 47.0237 45.1043C47.2001 44.6874 47.291 44.2396 47.291 43.7872C47.291 43.3348 47.2001 42.8869 47.0237 42.4701C46.8472 42.0532 46.5888 41.6758 46.2637 41.3601C45.9386 41.0443 45.5533 40.7967 45.1306 40.6317C44.7079 40.4667 44.2563 40.3877 43.8025 40.3994C42.9161 40.4222 42.0737 40.7892 41.4548 41.422C40.836 42.0548 40.4896 42.9035 40.4896 43.7872C40.4896 44.6708 40.836 45.5195 41.4548 46.1523C42.0737 46.7852 42.9161 47.1521 43.8025 47.175Z" stroke="#44AECA" stroke-width="5" stroke-linecap="round" stroke-linejoin="round"/>
</svg>
