<?xml version="1.0" encoding="UTF-8"?>
<svg version="1.1" xmlns="http://www.w3.org/2000/svg" width="64" height="64">
<path d="M0 0 C15.18 0 30.36 0 46 0 C46 15.18 46 30.36 46 46 C30.82 46 15.64 46 0 46 C0 30.82 0 15.64 0 0 Z " fill="#28346E" transform="translate(9,9)"/>
<path d="M0 0 C14.19 0 28.38 0 43 0 C43 14.19 43 28.38 43 43 C39.43954823 44.18681726 36.56191663 44.09689832 32.8125 44.0625 C31.54019531 44.05347656 30.26789062 44.04445312 28.95703125 44.03515625 C27.49330078 44.01775391 27.49330078 44.01775391 26 44 C27.30078125 42.51171875 27.30078125 42.51171875 29 41 C32.1875 40.8125 32.1875 40.8125 35 41 C36.69021815 31.28124566 35.94054266 21.77492546 35 12 C34.01 12 33.02 12 32 12 C32 11.34 32 10.68 32 10 C34.76276177 10.52268466 37.3260876 11.10869587 40 12 C37.655481 9.01902698 36.48131996 8.07485316 32.671875 7.48242188 C31.37765625 7.47791016 30.0834375 7.47339844 28.75 7.46875 C27.70730957 7.46300964 27.70730957 7.46300964 26.64355469 7.45715332 C25.17771959 7.4544382 23.71183572 7.46177165 22.24609375 7.47851562 C20.00671025 7.49993581 17.77053413 7.47870557 15.53125 7.453125 C14.10415961 7.45576835 12.67707121 7.4608935 11.25 7.46875 C9.30867188 7.47551758 9.30867188 7.47551758 7.328125 7.48242188 C3.51868004 8.07485316 2.344519 9.01902698 0 12 C1.32 12 2.64 12 4 12 C4 20.91 4 29.82 4 39 C6.64 39.66 9.28 40.32 12 41 C12.33 41.99 12.66 42.98 13 44 C10.85423363 44.02685938 8.70837355 44.04633088 6.5625 44.0625 C5.36753906 44.07410156 4.17257813 44.08570313 2.94140625 44.09765625 C0 44 0 44 -1 43 C-1.10115294 40.07801607 -1.139688 37.18017246 -1.1328125 34.2578125 C-1.13376923 33.37850067 -1.13472595 32.49918884 -1.13571167 31.5932312 C-1.13639366 29.72865732 -1.13453809 27.86408107 -1.13037109 25.99951172 C-1.12503578 23.14415132 -1.13030887 20.28894914 -1.13671875 17.43359375 C-1.13605772 15.62499965 -1.13477605 13.81640565 -1.1328125 12.0078125 C-1.13483673 11.15148224 -1.13686096 10.29515198 -1.13894653 9.41287231 C-1.12556957 6.02901304 -1.07745133 3.232354 0 0 Z " fill="#283768" transform="translate(12,9)"/>
<path d="M0 0 C2.12043885 -0.00967905 4.23989743 -0.04067595 6.36010742 -0.07226562 C7.70971104 -0.07879828 9.05932159 -0.08404772 10.40893555 -0.08789062 C11.63845947 -0.09723633 12.8679834 -0.10658203 14.13476562 -0.11621094 C17.53524202 0.26349809 18.95519813 0.81275378 21.3269043 3.24023438 C21.3269043 3.90023438 21.3269043 4.56023438 21.3269043 5.24023438 C18.6869043 4.91023438 16.0469043 4.58023437 13.3269043 4.24023438 C12.3369043 5.72523437 12.3369043 5.72523437 11.3269043 7.24023438 C12.6469043 7.24023438 13.9669043 7.24023438 15.3269043 7.24023438 C15.1394043 9.11523438 15.1394043 9.11523438 14.3269043 11.24023438 C11.7644043 12.49023438 11.7644043 12.49023438 9.3269043 13.24023438 C10.6469043 14.23023438 11.9669043 15.22023438 13.3269043 16.24023438 C10.6869043 16.24023438 8.0469043 16.24023438 5.3269043 16.24023438 C7.9669043 17.56023438 10.6069043 18.88023438 13.3269043 20.24023438 C13.3269043 20.90023437 13.3269043 21.56023438 13.3269043 22.24023438 C7.5769043 21.36523438 7.5769043 21.36523438 5.3269043 20.24023438 C6.96102873 21.94863719 8.19596523 23.17476484 10.3269043 24.24023438 C10.3269043 24.90023437 10.3269043 25.56023438 10.3269043 26.24023438 C9.3369043 26.24023438 8.3469043 26.24023438 7.3269043 26.24023438 C7.3269043 26.90023437 7.3269043 27.56023438 7.3269043 28.24023438 C6.6669043 28.24023438 6.0069043 28.24023438 5.3269043 28.24023438 C3.7019043 26.24023438 3.7019043 26.24023438 2.3269043 24.24023438 C1.5431543 24.44648437 0.7594043 24.65273438 -0.0480957 24.86523438 C-0.9143457 24.98898438 -1.7805957 25.11273438 -2.6730957 25.24023438 C-3.3330957 24.58023438 -3.9930957 23.92023437 -4.6730957 23.24023438 C-4.0130957 22.25023438 -3.3530957 21.26023437 -2.6730957 20.24023438 C-3.3330957 19.91023438 -3.9930957 19.58023438 -4.6730957 19.24023438 C-4.0130957 18.25023438 -3.3530957 17.26023437 -2.6730957 16.24023438 C-4.6530957 16.24023438 -6.6330957 16.24023438 -8.6730957 16.24023438 C-8.0130957 15.25023437 -7.3530957 14.26023437 -6.6730957 13.24023438 C-7.3330957 12.78648438 -7.9930957 12.33273438 -8.6730957 11.86523438 C-9.3330957 11.32898437 -9.9930957 10.79273438 -10.6730957 10.24023438 C-10.6730957 9.58023437 -10.6730957 8.92023437 -10.6730957 8.24023438 C-10.0130957 7.91023438 -9.3530957 7.58023437 -8.6730957 7.24023438 C-9.45439642 4.74470953 -9.45439642 4.74470953 -10.6730957 2.24023438 C-11.6630957 1.91023438 -12.6530957 1.58023437 -13.6730957 1.24023438 C-11.06121566 -1.37164567 -3.74634294 0.0103717 0 0 Z " fill="#637CA3" transform="translate(30.673095703125,15.759765625)"/>
<path d="M0 0 C2.62864939 0.90359823 3.74836769 1.55265366 5.125 4 C5.41375 4.66 5.7025 5.32 6 6 C6.66 6.66 7.32 7.32 8 8 C6.68 8 5.36 8 4 8 C6.0072908 11.0109362 6.83884224 11.63016497 10 13 C9.01 13.66 8.02 14.32 7 15 C8.98 15 10.96 15 13 15 C12.835 15.598125 12.67 16.19625 12.5 16.8125 C11.8885876 19.11344336 11.8885876 19.11344336 12 22 C12 22.66 12 23.32 12 24 C13.65 23.67 15.3 23.34 17 23 C17.99 24.32 18.98 25.64 20 27 C19.34 27 18.68 27 18 27 C17.67 28.98 17.34 30.96 17 33 C16.34 33 15.68 33 15 33 C14.67 31.02 14.34 29.04 14 27 C13.23816406 27.66708984 13.23816406 27.66708984 12.4609375 28.34765625 C6.76843911 33.02744425 6.76843911 33.02744425 2.5 32.875 C1.675 32.58625 0.85 32.2975 0 32 C-1.29227031 26.31401066 -0.90242274 20.89196518 -0.5625 15.125 C-0.51029297 14.15046875 -0.45808594 13.1759375 -0.40429688 12.171875 C-0.27536992 9.78086598 -0.14044056 7.39035574 0 5 C-1.32 5 -2.64 5 -4 5 C-2.25 1.125 -2.25 1.125 0 0 Z " fill="#446491" transform="translate(16,16)"/>
<path d="M0 0 C1.93166016 0.01740234 1.93166016 0.01740234 3.90234375 0.03515625 C5.19269531 0.04417969 6.48304687 0.05320312 7.8125 0.0625 C8.81152344 0.07410156 9.81054688 0.08570313 10.83984375 0.09765625 C8.19208724 4.06929102 5.53390579 4.50670438 1.15234375 6.03515625 C-1.47092614 6.99562723 -1.47092614 6.99562723 -3.16015625 10.09765625 C-1.84015625 10.09765625 -0.52015625 10.09765625 0.83984375 10.09765625 C0.83984375 19.00765625 0.83984375 27.91765625 0.83984375 37.09765625 C3.47984375 37.75765625 6.11984375 38.41765625 8.83984375 39.09765625 C9.16984375 40.08765625 9.49984375 41.07765625 9.83984375 42.09765625 C7.69407738 42.12451563 5.5482173 42.14398713 3.40234375 42.16015625 C2.20738281 42.17175781 1.01242188 42.18335938 -0.21875 42.1953125 C-3.16015625 42.09765625 -3.16015625 42.09765625 -4.16015625 41.09765625 C-4.26125978 38.15230055 -4.29984904 35.23088065 -4.29296875 32.28515625 C-4.29392548 31.40110107 -4.2948822 30.5170459 -4.29586792 29.60620117 C-4.29654976 27.73323496 -4.29469518 25.86026639 -4.29052734 23.98730469 C-4.28517914 21.10997237 -4.29047218 18.23279617 -4.296875 15.35546875 C-4.29621422 13.54036424 -4.29493306 11.72525982 -4.29296875 9.91015625 C-4.29499298 9.04350342 -4.29701721 8.17685059 -4.29910278 7.28393555 C-4.27083525 0.13197884 -4.27083525 0.13197884 0 0 Z " fill="#232F5F" transform="translate(15.16015625,10.90234375)"/>
<path d="M0 0 C14.19 0 28.38 0 43 0 C43 14.19 43 28.38 43 43 C42.67 43 42.34 43 42 43 C41.97494385 42.1435791 41.9498877 41.2871582 41.92407227 40.40478516 C41.82805946 37.1804097 41.72888907 33.95614999 41.62768555 30.73193359 C41.58478359 29.34525251 41.54308451 27.9585336 41.50268555 26.57177734 C41.27180869 18.67635907 40.90705673 10.85099526 40 3 C36.04 2.67 32.08 2.34 28 2 C28 2.99 28 3.98 28 5 C28.66 5 29.32 5 30 5 C30 5.66 30 6.32 30 7 C22.50280391 8.14364008 15.53181418 7.75667376 8 7 C9 5 9 5 13 3 C8.71 2.34 4.42 1.68 0 1 C0 0.67 0 0.34 0 0 Z " fill="#2A3772" transform="translate(12,9)"/>
<path d="M0 0 C1.32 0.33 2.64 0.66 4 1 C5.7173934 9.92431215 7.38953183 19.03925565 5 28 C1.75 28.75 1.75 28.75 -2 29 C-4.4375 27.0625 -4.4375 27.0625 -6 25 C-5.67 24.01 -5.34 23.02 -5 22 C-4.01 22 -3.02 22 -2 22 C-2 21.34 -2 20.68 -2 20 C-4.475 19.01 -4.475 19.01 -7 18 C-7 17.34 -7 16.68 -7 16 C-4.36 16.66 -1.72 17.32 1 18 C1 17.34 1 16.68 1 16 C0.1646875 15.8453125 0.1646875 15.8453125 -0.6875 15.6875 C-3.44176578 14.86866423 -5.58727657 13.54146219 -8 12 C-6 11 -6 11 -2 11 C-2.99 10.01 -3.98 9.02 -5 8 C-3.865625 7.731875 -2.73125 7.46375 -1.5625 7.1875 C-0.386875 6.795625 0.78875 6.40375 2 6 C2.33 5.01 2.66 4.02 3 3 C1.02 3.33 -0.96 3.66 -3 4 C-2.01 2.68 -1.02 1.36 0 0 Z " fill="#456490" transform="translate(43,20)"/>
<path d="M0 0 C3.96 0 7.92 0 12 0 C11.67 0.66 11.34 1.32 11 2 C9.35 2 7.7 2 6 2 C6 2.66 6 3.32 6 4 C6.99 4 7.98 4 9 4 C8.814375 4.721875 8.62875 5.44375 8.4375 6.1875 C7.93936293 9.38980971 7.69633422 11.00923734 9 14 C11.53982353 15.65034947 14.19960901 16.85815493 17 18 C17 18.66 17 19.32 17 20 C11.25 19.125 11.25 19.125 9 18 C10.63412443 19.70840281 11.86906094 20.93453047 14 22 C14 22.66 14 23.32 14 24 C13.01 24 12.02 24 11 24 C11 24.66 11 25.32 11 26 C10.34 26 9.68 26 9 26 C7.375 24 7.375 24 6 22 C5.21625 22.20625 4.4325 22.4125 3.625 22.625 C2.75875 22.74875 1.8925 22.8725 1 23 C0.34 22.34 -0.32 21.68 -1 21 C-0.01 19.515 -0.01 19.515 1 18 C0.34 17.67 -0.32 17.34 -1 17 C-0.690625 16.278125 -0.38125 15.55625 -0.0625 14.8125 C1.46672409 10.76455389 2.39034114 8.17102342 1 4 C1.99 4 2.98 4 4 4 C4 3.34 4 2.68 4 2 C2.68 2 1.36 2 0 2 C0 1.34 0 0.68 0 0 Z " fill="#A4BED7" transform="translate(27,18)"/>
<path d="M0 0 C2.18703385 -0.37907282 2.18703385 -0.37907282 4 -1 C4.99 0.32 5.98 1.64 7 3 C6.34 3 5.68 3 5 3 C4.67 4.98 4.34 6.96 4 9 C3.34 9 2.68 9 2 9 C1.67 7.02 1.34 5.04 1 3 C0.113125 3.825 -0.77375 4.65 -1.6875 5.5 C-4.01307407 7.46099476 -4.74787194 7.97259478 -7.875 8.3125 C-8.926875 8.1578125 -8.926875 8.1578125 -10 8 C-9.01 7.01 -8.02 6.02 -7 5 C-8.32 4.67 -9.64 4.34 -11 4 C-11 3.34 -11 2.68 -11 2 C-3.98313253 -1.37349398 -3.98313253 -1.37349398 0 0 Z " fill="#5C779F" transform="translate(29,40)"/>
<path d="M0 0 C0.66 0 1.32 0 2 0 C2 3.3 2 6.6 2 10 C3.32 10 4.64 10 6 10 C6.33 8.02 6.66 6.04 7 4 C11.455 5.98 11.455 5.98 16 8 C16 8.66 16 9.32 16 10 C10.25 9.125 10.25 9.125 8 8 C9.63412443 9.70840281 10.86906094 10.93453047 13 12 C13 12.66 13 13.32 13 14 C12.01 14 11.02 14 10 14 C10 14.66 10 15.32 10 16 C9.34 16 8.68 16 8 16 C6.375 14 6.375 14 5 12 C4.21625 12.20625 3.4325 12.4125 2.625 12.625 C1.75875 12.74875 0.8925 12.8725 0 13 C-0.66 12.34 -1.32 11.68 -2 11 C-1.34 10.01 -0.68 9.02 0 8 C-0.66 7.67 -1.32 7.34 -2 7 C-1.67 6.21625 -1.34 5.4325 -1 4.625 C0.11866511 2.15667503 0.11866511 2.15667503 0 0 Z " fill="#8AA5C3" transform="translate(28,28)"/>
<path d="M0 0 C0.02687279 1.81242052 0.04633715 3.62495233 0.0625 5.4375 C0.07410156 6.44683594 0.08570313 7.45617188 0.09765625 8.49609375 C0 11 0 11 -1 12 C-3.35313555 12.07271741 -5.70833668 12.08370868 -8.0625 12.0625 C-9.35285156 12.05347656 -10.64320312 12.04445313 -11.97265625 12.03515625 C-12.97167969 12.02355469 -13.97070312 12.01195312 -15 12 C-13.69921875 10.51171875 -13.69921875 10.51171875 -12 9 C-8.8125 8.8125 -8.8125 8.8125 -6 9 C-5.896875 7.88625 -5.79375 6.7725 -5.6875 5.625 C-5.460625 4.42875 -5.23375 3.2325 -5 2 C-2 0 -2 0 0 0 Z " fill="#1E2756" transform="translate(53,41)"/>
<path d="M0 0 C2.62864939 0.90359823 3.74836769 1.55265366 5.125 4 C5.41375 4.66 5.7025 5.32 6 6 C6.66 6.66 7.32 7.32 8 8 C6.68 8 5.36 8 4 8 C6.0072908 11.0109362 6.83884224 11.63016497 10 13 C3.375 14.25 3.375 14.25 0 12 C-0.1875 8.375 -0.1875 8.375 0 5 C-1.32 5 -2.64 5 -4 5 C-2.25 1.125 -2.25 1.125 0 0 Z " fill="#3D5481" transform="translate(16,16)"/>
<path d="M0 0 C0.33 1.32 0.66 2.64 1 4 C5.87664009 4.34833144 8.77050005 3.41685712 13 1 C11.99382318 3.67576692 11.45785454 4.7785108 8.8359375 6.046875 C8.02382813 6.27890625 7.21171875 6.5109375 6.375 6.75 C5.14910156 7.11351562 5.14910156 7.11351562 3.8984375 7.484375 C3.27195312 7.65453125 2.64546875 7.8246875 2 8 C2 8.66 2 9.32 2 10 C3.65 10 5.3 10 7 10 C6.01 11.485 6.01 11.485 5 13 C5.33 13.66 5.66 14.32 6 15 C3.03 14.505 3.03 14.505 0 14 C-0.19393875 11.85473901 -0.37998676 9.70876323 -0.5625 7.5625 C-0.71912109 5.77005859 -0.71912109 5.77005859 -0.87890625 3.94140625 C-0.91886719 2.97074219 -0.95882813 2.00007813 -1 1 C-0.67 0.67 -0.34 0.34 0 0 Z " fill="#486792" transform="translate(16,34)"/>
<path d="M0 0 C1.93166016 0.01740234 1.93166016 0.01740234 3.90234375 0.03515625 C5.19269531 0.04417969 6.48304687 0.05320312 7.8125 0.0625 C8.81152344 0.07410156 9.81054688 0.08570313 10.83984375 0.09765625 C8.19073927 4.07131297 5.56732769 4.41524137 1.15234375 5.83984375 C-1.39512603 6.93927588 -1.39512603 6.93927588 -2.47265625 9.73046875 C-2.69953125 10.51164062 -2.92640625 11.2928125 -3.16015625 12.09765625 C-3.49015625 12.09765625 -3.82015625 12.09765625 -4.16015625 12.09765625 C-4.18702904 10.28523573 -4.2064934 8.47270392 -4.22265625 6.66015625 C-4.23425781 5.65082031 -4.24585938 4.64148438 -4.2578125 3.6015625 C-4.11172173 -0.14420474 -3.82636297 0.1182436 0 0 Z " fill="#1E2857" transform="translate(15.16015625,10.90234375)"/>
<path d="M0 0 C1.97909398 -0.02686553 3.95828971 -0.04633375 5.9375 -0.0625 C7.03964844 -0.07410156 8.14179687 -0.08570313 9.27734375 -0.09765625 C12 0 12 0 13 1 C13.07205511 2.68608966 13.08386068 4.37500659 13.0625 6.0625 C13.05347656 6.98160156 13.04445313 7.90070312 13.03515625 8.84765625 C13.02355469 9.55792969 13.01195312 10.26820312 13 11 C12.29875 10.195625 11.5975 9.39125 10.875 8.5625 C7.73708407 5.76566189 6.11241237 5.28691249 2 5 C2 4.34 2 3.68 2 3 C1.34 3 0.68 3 0 3 C0 2.01 0 1.02 0 0 Z " fill="#1E2857" transform="translate(40,11)"/>
<path d="M0 0 C0.33 1.98 0.66 3.96 1 6 C1.66 6 2.32 6 3 6 C3 6.99 3 7.98 3 9 C0.36 9.33 -2.28 9.66 -5 10 C-5.33 9.01 -5.66 8.02 -6 7 C-7.65 7 -9.3 7 -11 7 C-10.01 6.34 -9.02 5.68 -8 5 C-6.97034205 4.13540172 -5.9495124 3.26018732 -4.9375 2.375 C-2 0 -2 0 0 0 Z " fill="#2F4070" transform="translate(30,43)"/>
<path d="M0 0 C2.64 0.33 5.28 0.66 8 1 C7.01 1.33 6.02 1.66 5 2 C5 2.66 5 3.32 5 4 C5.66 4.33 6.32 4.66 7 5 C7 5.99 7 6.98 7 8 C6.34 8 5.68 8 5 8 C5.33 8.99 5.66 9.98 6 11 C3.69 11.33 1.38 11.66 -1 12 C-0.34 11.01 0.32 10.02 1 9 C0.34 8.54625 -0.32 8.0925 -1 7.625 C-1.66 7.08875 -2.32 6.5525 -3 6 C-3 5.34 -3 4.68 -3 4 C-1.68 4 -0.36 4 1 4 C0.67 2.68 0.34 1.36 0 0 Z " fill="#718EB2" transform="translate(23,20)"/>
<path d="M0 0 C2.31 0 4.62 0 7 0 C7 0.66 7 1.32 7 2 C8.65 2 10.3 2 12 2 C12 2.66 12 3.32 12 4 C-2.7 5.86666667 -2.7 5.86666667 -7 3 C-5.5459375 2.814375 -5.5459375 2.814375 -4.0625 2.625 C-2.5465625 2.315625 -2.5465625 2.315625 -1 2 C-0.67 1.34 -0.34 0.68 0 0 Z " fill="#2D4371" transform="translate(30,12)"/>
<path d="M0 0 C1.32 0.66 2.64 1.32 4 2 C4 2.66 4 3.32 4 4 C6.97 4.33 9.94 4.66 13 5 C13 5.66 13 6.32 13 7 C9.01939223 8.17076699 5.08378283 9.25749403 1 10 C-0.80411967 7.24075815 -1.0127245 6.11027897 -0.625 2.75 C-0.41875 1.8425 -0.2125 0.935 0 0 Z " fill="#29386A" transform="translate(34,43)"/>
<path d="M0 0 C1.98 0 3.96 0 6 0 C5.34 3.3 4.68 6.6 4 10 C2.68 10 1.36 10 0 10 C0 6.7 0 3.4 0 0 Z " fill="#BCD5E9" transform="translate(30,28)"/>
<path d="M0 0 C3.3 0.33 6.6 0.66 10 1 C8.68 2.32 7.36 3.64 6 5 C7.32 5.99 8.64 6.98 10 8 C6.625 8.125 6.625 8.125 3 8 C2.34 7.34 1.68 6.68 1 6 C1.33 5.34 1.66 4.68 2 4 C1.34 3.67 0.68 3.34 0 3 C0 2.01 0 1.02 0 0 Z " fill="#6F8DB1" transform="translate(34,24)"/>
<path d="M0 0 C1.25425781 0.02707031 2.50851563 0.05414063 3.80078125 0.08203125 C4.75339844 0.11683594 5.70601562 0.15164063 6.6875 0.1875 C6.6875 1.1775 6.6875 2.1675 6.6875 3.1875 C5.6975 3.1875 4.7075 3.1875 3.6875 3.1875 C3.6875 2.5275 3.6875 1.8675 3.6875 1.1875 C1.3775 1.1875 -0.9325 1.1875 -3.3125 1.1875 C-3.6425 2.1775 -3.9725 3.1675 -4.3125 4.1875 C-8.7675 4.6825 -8.7675 4.6825 -13.3125 5.1875 C-10.6205385 -0.196423 -5.38490765 -0.15097872 0 0 Z " fill="#263465" transform="translate(33.3125,10.8125)"/>
<path d="M0 0 C1.32 0.33 2.64 0.66 4 1 C4.87890625 7.15234375 4.87890625 7.15234375 5 9 C4.67 9.33 4.34 9.66 4 10 C2.47480724 9.91062197 0.95318071 9.75462854 -0.5625 9.5625 C-1.38878906 9.46066406 -2.21507812 9.35882813 -3.06640625 9.25390625 C-3.70449219 9.17011719 -4.34257813 9.08632813 -5 9 C-2.66785852 7.79371992 -0.50357861 6.8345262 2 6 C2.33 5.01 2.66 4.02 3 3 C1.02 3.33 -0.96 3.66 -3 4 C-2.01 2.68 -1.02 1.36 0 0 Z " fill="#3E5C8B" transform="translate(43,20)"/>
<path d="M0 0 C3.73584906 1.47169811 3.73584906 1.47169811 5 4 C4.34 4 3.68 4 3 4 C2.67 5.98 2.34 7.96 2 10 C1.34 10 0.68 10 0 10 C-0.66 7.03 -1.32 4.06 -2 1 C-1.34 0.67 -0.68 0.34 0 0 Z " fill="#53688D" transform="translate(31,39)"/>
<path d="M0 0 C0.66 0 1.32 0 2 0 C2 3.3 2 6.6 2 10 C3.32 10 4.64 10 6 10 C6.33 9.01 6.66 8.02 7 7 C7 8.32 7 9.64 7 11 C4.69 11.66 2.38 12.32 0 13 C-0.66 12.34 -1.32 11.68 -2 11 C-1.34 10.01 -0.68 9.02 0 8 C-0.66 7.67 -1.32 7.34 -2 7 C-1.67 6.21625 -1.34 5.4325 -1 4.625 C0.11866511 2.15667503 0.11866511 2.15667503 0 0 Z " fill="#9FBAD3" transform="translate(28,28)"/>
<path d="M0 0 C0.99 0 1.98 0 3 0 C3.2475 0.78375 3.495 1.5675 3.75 2.375 C5.15389099 5.32317108 6.00675737 5.9024777 9 7 C2.58805513 8.33078101 2.58805513 8.33078101 0 6.875 C-1.38344734 4.28103624 -0.81714464 2.74857743 0 0 Z " fill="#436290" transform="translate(17,22)"/>
<path d="M0 0 C0 1.65 0 3.3 0 5 C-2.31 5.33 -4.62 5.66 -7 6 C-7 4.33333333 -7 2.66666667 -7 1 C-1.125 0 -1.125 0 0 0 Z " fill="#435C89" transform="translate(48,43)"/>
<path d="M0 0 C0.99 0.66 1.98 1.32 3 2 C3 2.66 3 3.32 3 4 C2.01 4 1.02 4 0 4 C0.99 5.32 1.98 6.64 3 8 C0.03 7.505 0.03 7.505 -3 7 C-3.33 6.01 -3.66 5.02 -4 4 C-3.67 3.34 -3.34 2.68 -3 2 C-2.01 2 -1.02 2 0 2 C0 1.34 0 0.68 0 0 Z " fill="#627DA4" transform="translate(41,40)"/>
<path d="M0 0 C0.66 0.33 1.32 0.66 2 1 C-0.125 3.5625 -0.125 3.5625 -3 6 C-6.3125 5.8125 -6.3125 5.8125 -9 5 C-9 4.34 -9 3.68 -9 3 C-7.88625 2.690625 -6.7725 2.38125 -5.625 2.0625 C-2.2054845 1.17673517 -2.2054845 1.17673517 0 0 Z " fill="#6A88AD" transform="translate(26,33)"/>
<path d="M0 0 C2.64 0.33 5.28 0.66 8 1 C8 2.33333333 8 3.66666667 8 5 C5.69 5 3.38 5 1 5 C0.67 3.35 0.34 1.7 0 0 Z " fill="#56759F" transform="translate(16,28)"/>
<path d="M0 0 C1.32 0.66 2.64 1.32 4 2 C4 2.66 4 3.32 4 4 C4.66 4.33 5.32 4.66 6 5 C3.625 6.0625 3.625 6.0625 1 7 C0.34 6.67 -0.32 6.34 -1 6 C-0.67 4.02 -0.34 2.04 0 0 Z " fill="#35497A" transform="translate(34,43)"/>
<path d="M0 0 C2.31 0.33 4.62 0.66 7 1 C6.01 2.485 6.01 2.485 5 4 C5.33 4.66 5.66 5.32 6 6 C3.03 5.505 3.03 5.505 0 5 C0 3.35 0 1.7 0 0 Z " fill="#425B88" transform="translate(16,43)"/>
<path d="M0 0 C2.64 0.66 5.28 1.32 8 2 C8 1.34 8 0.68 8 0 C9.32 0 10.64 0 12 0 C12 0.99 12 1.98 12 3 C10.56465159 3.2226746 9.12654475 3.42761906 7.6875 3.625 C6.88699219 3.74101563 6.08648437 3.85703125 5.26171875 3.9765625 C3 4 3 4 0 2 C0 1.34 0 0.68 0 0 Z " fill="#527199" transform="translate(36,36)"/>
<path d="M0 0 C4.455 1.98 4.455 1.98 9 4 C9 4.66 9 5.32 9 6 C6.03 5.67 3.06 5.34 0 5 C0 3.35 0 1.7 0 0 Z " fill="#7B98BA" transform="translate(35,32)"/>
<path d="M0 0 C0 0.33 0 0.66 0 1 C-3.3 1 -6.6 1 -10 1 C-10 1.66 -10 2.32 -10 3 C-12.97 2.505 -12.97 2.505 -16 2 C-16 1.34 -16 0.68 -16 0 C-10.47032059 -0.71033431 -5.50016964 -1.30267176 0 0 Z " fill="#738CAD" transform="translate(37,17)"/>
<path d="M0 0 C0.99 0 1.98 0 3 0 C3 1.32 3 2.64 3 4 C-3.625 5.25 -3.625 5.25 -7 3 C-5.5459375 2.814375 -5.5459375 2.814375 -4.0625 2.625 C-2.5465625 2.315625 -2.5465625 2.315625 -1 2 C-0.67 1.34 -0.34 0.68 0 0 Z " fill="#344B74" transform="translate(30,12)"/>
<path d="M0 0 C2.125 0.9375 2.125 0.9375 4 2 C3.1875 3.9375 3.1875 3.9375 2 6 C1.01 6.33 0.02 6.66 -1 7 C-0.67 5.68 -0.34 4.36 0 3 C-0.66 3 -1.32 3 -2 3 C-2 2.34 -2 1.68 -2 1 C-1.34 0.67 -0.68 0.34 0 0 Z " fill="#7C97B9" transform="translate(25,39)"/>
<path d="M0 0 C3.96 0 7.92 0 12 0 C11.67 0.66 11.34 1.32 11 2 C7.08234111 2.81309902 3.82092412 3.37553268 0 2 C0 1.34 0 0.68 0 0 Z " fill="#90A8C4" transform="translate(27,18)"/>
<path d="M0 0 C2.4375 0.8125 2.4375 0.8125 5 2 C5.33 2.99 5.66 3.98 6 5 C2.62537285 4.45276317 0.91765 3.9451 -2 2 C-1.34 2 -0.68 2 0 2 C0 1.34 0 0.68 0 0 Z " fill="#485E87" transform="translate(46,16)"/>
<path d="M0 0 C2.64 0 5.28 0 8 0 C7.67 1.32 7.34 2.64 7 4 C5.35 4 3.7 4 2 4 C1.34 2.68 0.68 1.36 0 0 Z " fill="#57769F" transform="translate(40,29)"/>
<path d="M0 0 C0.33 0.66 0.66 1.32 1 2 C1.99 2 2.98 2 4 2 C3.34 3.98 2.68 5.96 2 8 C1.67 6.68 1.34 5.36 1 4 C0.34 4 -0.32 4 -1 4 C-0.67 2.68 -0.34 1.36 0 0 Z " fill="#9DB7D2" transform="translate(32,20)"/>
<path d="M0 0 C3.40667322 0.44824648 5.07914607 1.05276405 8 3 C4.625 3.125 4.625 3.125 1 3 C0.34 2.34 -0.32 1.68 -1 1 C-0.67 0.67 -0.34 0.34 0 0 Z " fill="#809CBD" transform="translate(36,29)"/>
<path d="M0 0 C-0.33 1.32 -0.66 2.64 -1 4 C-5.455 3.01 -5.455 3.01 -10 2 C-6.3558226 -0.4294516 -4.28758728 -0.16179575 0 0 Z " fill="#52719B" transform="translate(46,23)"/>
</svg>
