<svg width="24" height="24" viewBox="0 0 24 24" fill="none" xmlns="http://www.w3.org/2000/svg">
<path fill-rule="evenodd" clip-rule="evenodd" d="M13.4087 10.3454C12.5219 10.7888 11.4781 10.7888 10.5912 10.3454L7.3801 8.7398C6.96022 8.52986 6.44964 8.70005 6.2397 9.11993C6.02976 9.53982 6.19995 10.0504 6.61983 10.2603L9.83098 11.8659C11.1964 12.5486 12.8035 12.5486 14.169 11.8659L17.3801 10.2603C17.8 10.0504 17.9702 9.53982 17.7602 9.11993C17.5503 8.70005 17.0397 8.52986 16.6198 8.7398L13.4087 10.3454Z" fill="#44AECA"/>
<path fill-rule="evenodd" clip-rule="evenodd" d="M2.15002 8.9999C2.15002 6.32132 4.32144 4.1499 7.00002 4.1499H17C19.6786 4.1499 21.85 6.32132 21.85 8.9999V14.4999C21.85 17.1785 19.6786 19.3499 17 19.3499H7.00002C4.32144 19.3499 2.15002 17.1785 2.15002 14.4999V8.9999ZM7.00002 5.8499C5.26033 5.8499 3.85002 7.26021 3.85002 8.9999V14.4999C3.85002 16.2396 5.26033 17.6499 7.00002 17.6499H17C18.7397 17.6499 20.15 16.2396 20.15 14.4999V8.9999C20.15 7.26021 18.7397 5.8499 17 5.8499H7.00002Z" fill="#44AECA"/>
</svg>
