<svg width="24" height="24" viewBox="0 0 24 24" fill="none" xmlns="http://www.w3.org/2000/svg">
<path d="M12 0.00012207C9.62663 0.00012207 7.30655 0.70391 5.33316 2.02249C3.35977 3.34106 1.8217 5.21521 0.913451 7.40792C0.00519943 9.60064 -0.232441 12.0134 0.230582 14.3412C0.693605 16.669 1.83649 18.8072 3.51472 20.4854C5.19295 22.1636 7.33115 23.3065 9.65892 23.7695C11.9867 24.2326 14.3995 23.9949 16.5922 23.0867C18.7849 22.1784 20.6591 20.6404 21.9776 18.667C23.2962 16.6936 24 14.3735 24 12.0001C23.9966 8.81858 22.7312 5.76833 20.4815 3.51864C18.2318 1.26895 15.1815 0.00356315 12 0.00012207ZM12 22.0001C10.0222 22.0001 8.08879 21.4136 6.4443 20.3148C4.79981 19.216 3.51809 17.6542 2.76121 15.827C2.00433 13.9997 1.8063 11.989 2.19215 10.0492C2.578 8.10941 3.53041 6.32758 4.92894 4.92905C6.32746 3.53053 8.10929 2.57812 10.0491 2.19227C11.9889 1.80642 13.9996 2.00445 15.8268 2.76133C17.6541 3.5182 19.2159 4.79993 20.3147 6.44442C21.4135 8.08891 22 10.0223 22 12.0001C21.9971 14.6514 20.9426 17.1932 19.0679 19.068C17.1931 20.9427 14.6513 21.9972 12 22.0001Z" fill="#44AECA"/>
<path d="M12 9.00012C11.7348 9.00012 11.4804 9.10548 11.2929 9.29302C11.1054 9.48055 11 9.73491 11 10.0001V18.0001C11 18.2653 11.1054 18.5197 11.2929 18.7072C11.4804 18.8948 11.7348 19.0001 12 19.0001C12.2652 19.0001 12.5196 18.8948 12.7071 18.7072C12.8946 18.5197 13 18.2653 13 18.0001V10.0001C13 9.73491 12.8946 9.48055 12.7071 9.29302C12.5196 9.10548 12.2652 9.00012 12 9.00012Z" fill="#44AECA"/>
<path d="M12 7.00012C12.5523 7.00012 13 6.55241 13 6.00012C13 5.44784 12.5523 5.00012 12 5.00012C11.4477 5.00012 11 5.44784 11 6.00012C11 6.55241 11.4477 7.00012 12 7.00012Z" fill="#44AECA"/>
</svg>
