<svg width="14" height="18" viewBox="0 0 14 18" fill="none" xmlns="http://www.w3.org/2000/svg">
<path fill-rule="evenodd" clip-rule="evenodd" d="M0.150024 8.9999C0.150024 6.32132 2.32144 4.1499 5.00002 4.1499H9.00002C11.6786 4.1499 13.85 6.32132 13.85 8.9999V12.9999C13.85 15.6785 11.6786 17.8499 9.00002 17.8499H5.00002C2.32144 17.8499 0.150024 15.6785 0.150024 12.9999V8.9999ZM5.00002 5.8499C3.26033 5.8499 1.85002 7.26021 1.85002 8.9999V12.9999C1.85002 14.7396 3.26033 16.1499 5.00002 16.1499H9.00002C10.7397 16.1499 12.15 14.7396 12.15 12.9999V8.9999C12.15 7.26021 10.7397 5.8499 9.00002 5.8499H5.00002Z" fill="#44AECA"/>
<path fill-rule="evenodd" clip-rule="evenodd" d="M2.15002 3.9999C2.15002 1.87361 3.87373 0.149902 6.00002 0.149902H8.00002C10.1263 0.149902 11.85 1.87361 11.85 3.9999V5.8499H2.15002V3.9999ZM6.00002 1.8499C4.81261 1.8499 3.85002 2.81249 3.85002 3.9999V4.1499H10.15V3.9999C10.15 2.81249 9.18744 1.8499 8.00002 1.8499H6.00002Z" fill="#44AECA"/>
<path d="M9 11C9 12.1046 8.10457 13 7 13C5.89543 13 5 12.1046 5 11C5 9.89543 5.89543 9 7 9C8.10457 9 9 9.89543 9 11Z" fill="#44AECA"/>
</svg>
