<svg width="21" height="17" viewBox="0 0 21 17" fill="none" xmlns="http://www.w3.org/2000/svg">
<path fill-rule="evenodd" clip-rule="evenodd" d="M9.1499 9.0001C9.1499 9.46954 9.53046 9.8501 9.9999 9.8501L17.9999 9.8501C18.4693 9.8501 18.8499 9.46954 18.8499 9.0001C18.8499 8.53066 18.4693 8.1501 17.9999 8.1501L9.9999 8.1501C9.53046 8.1501 9.1499 8.53066 9.1499 9.0001Z" fill="#BB1919"/>
<path fill-rule="evenodd" clip-rule="evenodd" d="M15.4009 12.6011C15.7329 12.9331 16.271 12.9331 16.603 12.6011L18.9097 10.2944C19.6322 9.57193 19.6322 8.40058 18.9097 7.67811L16.6149 5.38326C16.2829 5.05132 15.7447 5.05132 15.4128 5.38326C15.0808 5.71521 15.0808 6.2534 15.4128 6.58534L17.7076 8.88019C17.7662 8.93877 17.7662 9.03374 17.7076 9.09232L15.4009 11.399C15.069 11.731 15.069 12.2692 15.4009 12.6011Z" fill="#BB1919"/>
<path fill-rule="evenodd" clip-rule="evenodd" d="M12.1499 12.0001C12.1499 13.7398 10.7396 15.1501 8.99985 15.1501H4.99985C3.26016 15.1501 1.84985 13.7398 1.84985 12.0001V5.5001C1.84985 3.7604 3.26016 2.3501 4.99985 2.3501H8.99985C10.7396 2.3501 12.1499 3.7604 12.1499 5.5001V6.67867C12.1499 7.14811 12.5304 7.52867 12.9999 7.52867C13.4693 7.52867 13.8499 7.14811 13.8499 6.67867V5.5001C13.8499 2.82152 11.6784 0.650099 8.99985 0.650099H4.99985C2.32127 0.650099 0.149853 2.82152 0.149853 5.5001V12.0001C0.149853 14.6787 2.32127 16.8501 4.99985 16.8501H8.99985C11.6784 16.8501 13.8499 14.6787 13.8499 12.0001V11.3394C13.8499 10.8699 13.4693 10.4894 12.9999 10.4894C12.5304 10.4894 12.1499 10.8699 12.1499 11.3394V12.0001Z" fill="#BB1919"/>
</svg>
