<svg width="28" height="28" viewBox="0 0 28 28" fill="none" xmlns="http://www.w3.org/2000/svg">
<path fill-rule="evenodd" clip-rule="evenodd" d="M10.705 18.4916C9.92836 18.4916 9.17165 18.7377 8.54351 19.1945L7.55299 19.9149C6.50213 20.6792 7.04274 22.3416 8.34212 22.3416H19.6579C20.9573 22.3416 21.4979 20.6792 20.4471 19.9149L19.4565 19.1945C18.8284 18.7377 18.0717 18.4916 17.295 18.4916H10.705ZM7.37697 17.5905C8.3441 16.8872 9.5092 16.5083 10.705 16.5083H17.295C18.4908 16.5083 19.6559 16.8872 20.6231 17.5905L21.6136 18.3109C24.2179 20.2049 22.8781 24.325 19.6579 24.325H8.34212C5.12192 24.325 3.78216 20.2049 6.38645 18.3109L7.37697 17.5905Z" fill="#44AECA"/>
<path fill-rule="evenodd" clip-rule="evenodd" d="M13.9999 5.65838C11.9702 5.65838 10.3249 7.30374 10.3249 9.33338C10.3249 11.363 11.9702 13.0084 13.9999 13.0084C16.0295 13.0084 17.6749 11.363 17.6749 9.33338C17.6749 7.30374 16.0295 5.65838 13.9999 5.65838ZM8.34155 9.33338C8.34155 6.20837 10.8749 3.67505 13.9999 3.67505C17.1249 3.67505 19.6582 6.20837 19.6582 9.33338C19.6582 12.4584 17.1249 14.9917 13.9999 14.9917C10.8749 14.9917 8.34155 12.4584 8.34155 9.33338Z" fill="#44AECA"/>
</svg>
