<?xml version="1.0" encoding="UTF-8"?>
<svg version="1.1" xmlns="http://www.w3.org/2000/svg" width="537" height="465">
<path d="M0 0 C0.99 0.33 1.98 0.66 3 1 C3.91030884 2.90757751 3.91030884 2.90757751 4.67822266 5.45678711 C5.12456558 6.89883263 5.12456558 6.89883263 5.57992554 8.37001038 C5.89644073 9.43255539 6.21295593 10.4951004 6.5390625 11.58984375 C7.25009282 13.89354067 7.96273291 16.1967412 8.67675781 18.49951172 C9.24191101 20.33627472 9.24191101 20.33627472 9.81848145 22.21014404 C11.60588917 27.94345885 13.48623755 33.64563854 15.37227631 39.34706497 C16.03099858 41.33927361 16.68761585 43.33216418 17.34356689 45.32528687 C19.13092689 50.75614768 20.92051369 56.18627135 22.71289062 61.61547852 C28.12997554 78.0277148 33.45194029 94.46324695 38.55648804 110.97572327 C42.85275544 124.84711889 47.45647177 138.61410908 52.14550781 152.35742188 C52.69609863 153.98260742 52.69609863 153.98260742 53.2578125 155.640625 C53.59184082 156.62063477 53.92586914 157.60064453 54.27001953 158.61035156 C55 161 55 161 55 163 C112.42 163 169.84 163 229 163 C226.81234969 167.37530063 224.43213787 169.17034465 220.5625 171.875 C219.20399696 172.84705541 217.84594615 173.81974306 216.48828125 174.79296875 C215.76334473 175.30907715 215.0384082 175.82518555 214.29150391 176.35693359 C210.24615581 179.25755076 206.25177914 182.2272309 202.25 185.1875 C188.02980557 195.67401776 173.69994232 206.00798721 159.3671875 216.33984375 C149.87847238 223.18221886 140.42349559 230.06812333 131 237 C122.14481615 243.51382937 113.2667731 249.99332028 104.34057617 256.40966797 C99.5165425 259.88288454 94.74487428 263.41951316 90 267 C91.24417503 273.0114814 92.77818657 278.84345963 94.65234375 284.6875 C94.90785004 285.49416611 95.16335632 286.30083221 95.42660522 287.13194275 C96.2593616 289.7559887 97.09815958 292.37805332 97.9375 295 C98.52830924 296.8548767 99.11904719 298.7097761 99.7097168 300.56469727 C103.36840252 312.02857921 107.12188526 323.45763639 110.96035767 334.86239624 C116.20745001 350.46448405 121.2081022 366.14508304 126.20019531 381.83032227 C126.87430634 383.94809299 127.54845934 386.06585036 128.22265625 388.18359375 C128.54910126 389.20922928 128.87554626 390.23486481 129.21188354 391.2915802 C131.1280015 397.30057244 133.07473366 403.29821114 135.05859375 409.28515625 C135.49541186 410.61087777 135.93210458 411.93664061 136.36865234 413.26245117 C137.13773936 415.58968646 137.91480054 417.91430924 138.70166016 420.2355957 C139.02827637 421.227771 139.35489258 422.21994629 139.69140625 423.2421875 C140.11208374 424.49298096 140.11208374 424.49298096 140.54125977 425.76904297 C141.04444 428.21612172 140.80022583 429.65808856 140 432 C132.88136246 426.94346394 125.78332791 421.86223601 118.75 416.6875 C113.2480595 412.64021959 107.72633348 408.62165316 102.1875 404.625 C101.43299561 404.08053223 100.67849121 403.53606445 99.90112305 402.97509766 C96.10999146 400.24052413 92.31712652 397.5083678 88.5234375 394.77734375 C80.01256028 388.64608207 71.54172091 382.46460196 63.10571289 376.23071289 C57.02749886 371.7440124 50.91020986 367.31406202 44.77832031 362.90112305 C39.24022333 358.90993653 33.73967472 354.86996614 28.25 350.8125 C22.54066965 346.59734702 16.82445707 342.39304094 11.0625 338.25 C10.50143555 337.84370361 9.94037109 337.43740723 9.36230469 337.01879883 C6.66805254 335.0915327 4.02109395 333.36859196 1 332 C-8.7023569 338.78295373 -18.31846275 345.66607426 -27.83251953 352.7109375 C-33.25510586 356.72358524 -38.70965741 360.68818856 -44.1875 364.625 C-49.92371525 368.74983472 -55.61001156 372.93205252 -61.25 377.1875 C-67.20824738 381.68185822 -73.23400464 386.06399303 -79.3203125 390.3828125 C-83.48067046 393.33569068 -87.61571274 396.32327643 -91.75 399.3125 C-92.50780762 399.860271 -93.26561523 400.40804199 -94.04638672 400.97241211 C-95.59284925 402.09038993 -97.13923554 403.20847322 -98.68554688 404.32666016 C-102.45593019 407.05263139 -106.22803655 409.77621587 -110 412.5 C-111.4765711 413.56639434 -112.95313356 414.63280064 -114.4296875 415.69921875 C-116.79980469 417.41097005 -119.16992188 419.12272135 -121.54003906 420.83447266 C-122.3956543 421.45241699 -123.25126953 422.07036133 -124.1328125 422.70703125 C-124.968125 423.3103125 -125.8034375 423.91359375 -126.6640625 424.53515625 C-127.47617188 425.12167969 -128.28828125 425.70820313 -129.125 426.3125 C-131.75 428.20833333 -134.375 430.10416667 -137 432 C-137.66 431.34 -138.32 430.68 -139 430 C-133.90203351 414.12265145 -128.77392067 398.25590189 -123.5546875 382.41796875 C-123.32608032 381.72415415 -123.09747314 381.03033955 -122.86193848 380.31550026 C-121.68418438 376.74148633 -120.50592643 373.16763868 -119.32751465 369.59384155 C-111.03329433 344.43631716 -102.81804095 319.25666924 -94.78466797 294.0144043 C-94.47884796 293.05348877 -94.17302795 292.09257324 -93.85794067 291.10253906 C-93.30185997 289.35385222 -92.74650259 287.60493507 -92.19210815 285.85571289 C-91.94534332 285.07856934 -91.69857849 284.30142578 -91.44433594 283.50073242 C-91.21033081 282.75769867 -90.97632568 282.01466492 -90.73522949 281.24911499 C-90.22150286 279.67759171 -89.67839028 278.11550684 -89.11340332 276.56167603 C-88.82880249 275.77086639 -88.54420166 274.98005676 -88.25097656 274.1652832 C-87.98786682 273.46079544 -87.72475708 272.75630768 -87.45367432 272.0304718 C-86.92081939 269.64561806 -87.16439487 268.2796213 -88 266 C-89.47705018 264.48320557 -89.47705018 264.48320557 -91.40234375 263.22265625 C-92.11865967 262.71589355 -92.83497559 262.20913086 -93.57299805 261.68701172 C-94.35328369 261.15092285 -95.13356934 260.61483398 -95.9375 260.0625 C-97.58873402 258.90001275 -99.23977019 257.73724444 -100.890625 256.57421875 C-101.73947266 255.9817334 -102.58832031 255.38924805 -103.46289062 254.77880859 C-107.40049096 252.01809304 -111.29337872 249.19654483 -115.1875 246.375 C-116.30318359 245.5694165 -116.30318359 245.5694165 -117.44140625 244.74755859 C-123.52868491 240.35133874 -129.58644351 235.91569012 -135.63671875 231.46875 C-138.50030105 229.36456631 -141.37305691 227.27339422 -144.25 225.1875 C-148.4577233 222.13360843 -152.64359179 219.05106222 -156.82543945 215.96191406 C-164.31292395 210.43174489 -171.82758483 204.9480791 -179.4140625 199.5546875 C-189.96070875 192.05366047 -200.440106 184.45547187 -210.84570312 176.76000977 C-215.25232418 173.51115237 -219.74951821 170.42307758 -224.33984375 167.4375 C-224.88769531 166.963125 -225.43554688 166.48875 -226 166 C-226 165.01 -226 164.02 -226 163 C-168.58 163 -111.16 163 -52 163 C-51.01 159.37 -50.02 155.74 -49 152 C-48.04426676 148.94162111 -47.07318583 145.89653584 -46.06640625 142.85546875 C-45.79253586 142.01991455 -45.51866547 141.18436035 -45.23649597 140.32348633 C-44.65096663 138.5372756 -44.06433852 136.75142473 -43.47668457 134.96591187 C-41.90109114 130.17733019 -40.33460926 125.38577731 -38.76953125 120.59375 C-38.45152557 119.62012009 -38.1335199 118.64649017 -37.80587769 117.64335632 C-34.72102217 108.17874302 -31.72811738 98.686127 -28.75 89.1875 C-24.91815073 76.97363689 -20.96875497 64.81083027 -16.88037109 52.67993164 C-11.01482161 35.19785393 -5.53549671 17.5887208 0 0 Z " fill="#F7D64E" transform="translate(269,15)"/>
<path d="M0 0 C1.03198323 3.6136331 0.81192462 6.0469607 0.0625 9.75 C-0.22947266 11.22726563 -0.22947266 11.22726563 -0.52734375 12.734375 C-0.76130859 13.85585937 -0.76130859 13.85585937 -1 15 C-1.66 15 -2.32 15 -3 15 C-3 16.98 -3 18.96 -3 21 C-3.66 21 -4.32 21 -5 21 C-4.896875 21.78375 -4.79375 22.5675 -4.6875 23.375 C-5 27 -5 27 -10 37 C-66.43 37.33 -122.86 37.66 -181 38 C-180.67 38.66 -180.34 39.32 -180 40 C-181.65 39.34 -183.3 38.68 -185 38 C-185 37.01 -185 36.02 -185 35 C-127.58 35 -70.16 35 -11 35 C-10.01 31.37 -9.02 27.74 -8 24 C-7.34132462 21.88484871 -6.66453757 19.77510329 -5.95703125 17.67578125 C-5.60576172 16.62841797 -5.25449219 15.58105469 -4.89257812 14.50195312 C-4.53615234 13.44943359 -4.17972656 12.39691406 -3.8125 11.3125 C-3.44447266 10.21744141 -3.07644531 9.12238281 -2.69726562 7.99414062 C-1.80095124 5.32847837 -0.90182617 2.6638015 0 0 Z " fill="#FAEDBE" transform="translate(228,143)"/>
<path d="M0 0 C2 3 2 3 4 10 C61.42 10 118.84 10 178 10 C177.67 10.99 177.34 11.98 177 13 C176.67 12.34 176.34 11.68 176 11 C174.80640617 11.04091515 174.80640617 11.04091515 173.58869934 11.08265686 C162.9975177 11.44055392 152.40549491 11.7632967 141.8125 12.0625 C140.94192963 12.08711052 140.07135925 12.11172104 139.17440796 12.13707733 C107.60482074 13.01706297 76.07771342 13.03916602 44.5 12.625 C43.45640446 12.61133015 42.41280891 12.59766029 41.33758926 12.5835762 C28.55797928 12.41392008 15.77884659 12.2196014 3 12 C2.49166409 10.75336669 1.99368855 9.50250613 1.5 8.25 C1.2215625 7.55390625 0.943125 6.8578125 0.65625 6.140625 C0 4 0 4 0 0 Z " fill="#FBF0C8" transform="translate(320,168)"/>
<path d="M0 0 C0.33 0 0.66 0 1 0 C1.36195726 6.03262101 0.86387016 9.59046748 -2 15 C-2.80393202 18.01783713 -3.49627636 21.04527815 -4.15625 24.09765625 C-5.03791246 27.13041184 -6.37251485 29.31205244 -8 32 C-8.66523523 34.34735985 -8.66523523 34.34735985 -9 36.75 C-9.99955501 42.36094744 -11.44088558 47.88177116 -14 53 C-14.66 53 -15.32 53 -16 53 C-16.33 56.96 -16.66 60.92 -17 65 C-17.66 65 -18.32 65 -19 65 C-19 67.64 -19 70.28 -19 73 C-19.66 73 -20.32 73 -21 73 C-20.67 73.66 -20.34 74.32 -20 75 C-19.319375 74.649375 -18.63875 74.29875 -17.9375 73.9375 C-14.2912211 72.77379397 -11.71510022 73.27154898 -8 74 C-11.38671504 77.66038898 -15.18600451 80.40850722 -19.25 83.25 C-20.22453125 83.93835938 -20.22453125 83.93835938 -21.21875 84.640625 C-22.81004999 85.76389558 -24.40469095 86.88243056 -26 88 C-26.66 87.34 -27.32 86.68 -28 86 C-18.79845032 57.29045446 -9.39066181 28.64810086 0 0 Z " fill="#F4E08D" transform="translate(158,359)"/>
<path d="M0 0 C-0.33984375 1.921875 -0.33984375 1.921875 -1 4 C-3.5625 5.25 -3.5625 5.25 -6 6 C-5.67 4.68 -5.34 3.36 -5 2 C-29.75 2 -54.5 2 -80 2 C-80 1.67 -80 1.34 -80 1 C-53.32844462 0.0201754 -26.68759818 -0.11844957 0 0 Z " fill="#EFD465" transform="translate(496,179)"/>
<path d="M0 0 C0 1.65 0 3.3 0 5 C-0.66 5 -1.32 5 -2 5 C-1.67 5.66 -1.34 6.32 -1 7 C-0.319375 6.649375 0.36125 6.29875 1.0625 5.9375 C4.7087789 4.77379397 7.28489978 5.27154898 11 6 C7.61328496 9.66038898 3.81399549 12.40850722 -0.25 15.25 C-1.22453125 15.93835938 -1.22453125 15.93835938 -2.21875 16.640625 C-3.81004999 17.76389558 -5.40469095 18.88243056 -7 20 C-7.66 19.34 -8.32 18.68 -9 18 C-8.24023472 15.55854083 -7.46782596 13.1223853 -6.6875 10.6875 C-6.47416016 9.99720703 -6.26082031 9.30691406 -6.04101562 8.59570312 C-3.25883152 0 -3.25883152 0 0 0 Z " fill="#F6D555" transform="translate(139,427)"/>
<path d="M0 0 C20.13 0 40.26 0 61 0 C61.495 0.99 61.495 0.99 62 2 C33.29 2.495 33.29 2.495 4 3 C4.33 3.66 4.66 4.32 5 5 C2.525 4.01 2.525 4.01 0 3 C0 2.01 0 1.02 0 0 Z " fill="#F9E8B2" transform="translate(43,178)"/>
<path d="M0 0 C1.98 0 3.96 0 6 0 C1.73574257 4.58364513 -3.06325455 8.14903502 -8.125 11.8125 C-8.96796631 12.42689941 -9.81093262 13.04129883 -10.67944336 13.67431641 C-12.35299761 14.89369595 -14.02769149 16.11151319 -15.70361328 17.32763672 C-17.68510996 18.77067863 -19.65638266 20.22565145 -21.62109375 21.69140625 C-22.59175781 22.41199219 -23.56242187 23.13257813 -24.5625 23.875 C-25.80193359 24.79925781 -25.80193359 24.79925781 -27.06640625 25.7421875 C-29 27 -29 27 -31 27 C-31 26.01 -31 25.02 -31 24 C-30.21625 23.938125 -29.4325 23.87625 -28.625 23.8125 C-27.75875 23.544375 -26.8925 23.27625 -26 23 C-24.62533375 20.52363988 -24.62533375 20.52363988 -24 18 C-22.35 18 -20.7 18 -19 18 C-19 17.34 -19 16.68 -19 16 C-17.9275 15.401875 -16.855 14.80375 -15.75 14.1875 C-10.13746644 11.21314291 -10.13746644 11.21314291 -7 6 C-6.01 6 -5.02 6 -4 6 C-4 5.34 -4 4.68 -4 4 C-2.02 3.67 -0.04 3.34 2 3 C2 2.34 2 1.68 2 1 C1.34 0.67 0.68 0.34 0 0 Z " fill="#F3E194" transform="translate(484,185)"/>
<path d="M0 0 C3.05709095 4.58563643 4.40001465 9.7290195 6.125 14.9375 C6.49753906 16.03513672 6.87007813 17.13277344 7.25390625 18.26367188 C7.60582031 19.32005859 7.95773437 20.37644531 8.3203125 21.46484375 C8.64273926 22.430271 8.96516602 23.39569824 9.29736328 24.39038086 C10 27 10 27 10 31 C9.34 31 8.68 31 8 31 C7.32471777 29.42032193 6.66010306 27.83608097 6 26.25 C5.443125 24.92742187 5.443125 24.92742187 4.875 23.578125 C4 21 4 21 4 17 C3.34 17 2.68 17 2 17 C0.4943096 11.19233704 -0.21824777 6.0018137 0 0 Z " fill="#F5E28D" transform="translate(377,344)"/>
<path d="M0 0 C2.25690415 3.38535622 3.39272485 6.79423837 4.63671875 10.625 C4.88041702 11.36830566 5.1241153 12.11161133 5.37519836 12.87744141 C5.8877486 14.4467951 6.39779804 16.01696745 6.90551758 17.58789062 C7.68562957 19.99423047 8.48010009 22.39551551 9.27539062 24.796875 C9.77171909 26.32262881 10.26719113 27.84866155 10.76171875 29.375 C11.0012175 30.09381348 11.24071625 30.81262695 11.48747253 31.55322266 C13.11444242 36.65667273 13.11444242 36.65667273 12 40 C12 39.34 12 38.68 12 38 C11.34 38 10.68 38 10 38 C9.89042969 37.40832031 9.78085937 36.81664062 9.66796875 36.20703125 C8.6684011 31.14137973 8.6684011 31.14137973 6.5 26.5 C4.67328863 23.45548105 4.15811266 20.64981909 3.52734375 17.18359375 C3.09074625 14.97868918 3.09074625 14.97868918 1.98046875 13.08203125 C0.73707628 10.44167991 0.58231771 8.15244797 0.375 5.25 C0.30023438 4.26515625 0.22546875 3.2803125 0.1484375 2.265625 C0.09945313 1.51796875 0.05046875 0.7703125 0 0 Z " fill="#F5E69C" transform="translate(390,384)"/>
<path d="M0 0 C1.20628008 2.33214148 2.1654738 4.49642139 3 7 C4.33008616 7.34606314 5.66427203 7.6763958 7 8 C8.83320786 9.21013873 10.62184725 10.48904155 12.375 11.8125 C15.42442327 14.0985469 18.43539744 16.32553519 21.6875 18.3125 C22.450625 18.869375 23.21375 19.42625 24 20 C24 20.99 24 21.98 24 23 C19.59393935 21.52858828 16.27487121 19.11502843 12.6875 16.25 C11.54195481 15.35119513 10.39612175 14.45275704 9.25 13.5546875 C8.69699219 13.11866211 8.14398438 12.68263672 7.57421875 12.23339844 C4.42509221 9.7660617 1.20780546 7.39012956 -2 5 C-1.34 4.67 -0.68 4.34 0 4 C0 2.68 0 1.36 0 0 Z " fill="#F3E08F" transform="translate(61,187)"/>
<path d="M0 0 C1.03198323 3.6136331 0.81192462 6.0469607 0.0625 9.75 C-0.13214844 10.73484375 -0.32679688 11.7196875 -0.52734375 12.734375 C-0.68332031 13.48203125 -0.83929688 14.2296875 -1 15 C-1.66 15 -2.32 15 -3 15 C-3 16.98 -3 18.96 -3 21 C-3.66 21 -4.32 21 -5 21 C-4.9175 21.825 -4.835 22.65 -4.75 23.5 C-5.07235989 28.01303847 -6.79294651 31.11795056 -9 35 C-9.33 35 -9.66 35 -10 35 C-9.46689335 27.24572141 -6.95876317 20.31282151 -4.4375 13 C-4.00776298 11.73591503 -3.57872069 10.47159365 -3.15039062 9.20703125 C-2.10705272 6.13563202 -1.0567602 3.06680152 0 0 Z " fill="#F4E18D" transform="translate(228,143)"/>
<path d="M0 0 C1.13566406 -0.01224609 2.27132813 -0.02449219 3.44140625 -0.03710938 C5.07142578 -0.04000977 5.07142578 -0.04000977 6.734375 -0.04296875 C7.72147461 -0.04707764 8.70857422 -0.05118652 9.72558594 -0.05541992 C12.25 0.1875 12.25 0.1875 15.25 2.1875 C11.2900359 3.50748803 7.50162015 3.33495125 3.375 3.3125 C2.10692505 3.30959961 2.10692505 3.30959961 0.81323242 3.30664062 C-6.07898027 3.25959034 -12.88995696 2.87719912 -19.75 2.1875 C-19.75 1.8575 -19.75 1.5275 -19.75 1.1875 C-13.17474808 -0.00022614 -6.66832353 0.00383678 0 0 Z " fill="#F7E5A9" transform="translate(403.75,177.8125)"/>
<path d="M0 0 C3 1 3 1 3.99902344 2.9777832 C4.28293945 3.82687256 4.56685547 4.67596191 4.859375 5.55078125 C5.17003906 6.47697266 5.48070312 7.40316406 5.80078125 8.35742188 C6.11402344 9.33259766 6.42726563 10.30777344 6.75 11.3125 C7.07871094 12.27607422 7.40742188 13.23964844 7.74609375 14.23242188 C10.33748524 22.12140482 10.33748524 22.12140482 9 26 C9 25.34 9 24.68 9 24 C8.34 24 7.68 24 7 24 C6.731875 23.01 6.46375 22.02 6.1875 21 C5.39147542 18.18241658 4.44042301 15.47667499 3.375 12.75 C2 9 2 9 2 6 C1.01 6.33 0.02 6.66 -1 7 C-0.67 4.69 -0.34 2.38 0 0 Z " fill="#F1DD80" transform="translate(269,15)"/>
<path d="M0 0 C2.64 0.66 5.28 1.32 8 2 C8.33 3.32 8.66 4.64 9 6 C10.65 6.33 12.3 6.66 14 7 C14 7.66 14 8.32 14 9 C14.721875 9.2475 15.44375 9.495 16.1875 9.75 C20.79385795 11.7972702 24.12459748 14.22624814 26 19 C22.07758997 17.25239157 18.71010916 14.75688936 15.25 12.25 C14.63108887 11.80406494 14.01217773 11.35812988 13.37451172 10.89868164 C11.58014662 9.60301205 9.78942442 8.30248157 8 7 C7.11054688 6.35417969 6.22109375 5.70835937 5.3046875 5.04296875 C3.51461046 3.72447114 1.75303264 2.36736546 0 1 C0 0.67 0 0.34 0 0 Z " fill="#F4E28D" transform="translate(328,387)"/>
<path d="M0 0 C1.85562424 2.78343636 2.72320207 4.85327875 3.7265625 8 C4.0359375 8.969375 4.3453125 9.93875 4.6640625 10.9375 C4.98117187 11.948125 5.29828125 12.95875 5.625 14 C5.94984375 15.010625 6.2746875 16.02125 6.609375 17.0625 C9 24.61607143 9 24.61607143 9 28 C8.34 28 7.68 28 7 28 C7 27.01 7 26.02 7 25 C6.34 25 5.68 25 5 25 C4.15270806 22.33708249 3.32209568 19.67070002 2.5 17 C2.14228516 15.88431641 2.14228516 15.88431641 1.77734375 14.74609375 C0.22493828 9.64533293 -0.24228342 5.33023532 0 0 Z " fill="#F5E28F" transform="translate(284,56)"/>
<path d="M0 0 C2.3145363 3.47180445 3.44955764 6.99795123 4.6875 10.9375 C4.92533203 11.65357422 5.16316406 12.36964844 5.40820312 13.10742188 C6.65575042 17.05493955 7.02909848 18.88360607 6 23 C3.69 21.35 1.38 19.7 -1 18 C0.32 17.67 1.64 17.34 3 17 C2.505 15.865625 2.01 14.73125 1.5 13.5625 C-0.24646333 8.97905868 -0.30300849 4.84813585 0 0 Z " fill="#F3E396" transform="translate(403,424)"/>
<path d="M0 0 C2.44839588 3.67259383 4 6.54648201 4 11 C1.03155565 11.35338623 -1.15598218 11.5417682 -3.734375 9.88671875 C-5.20348819 8.64496832 -6.60704814 7.32662082 -8 6 C-5 4 -5 4 -2.875 3.5625 C-1.946875 3.2840625 -1.946875 3.2840625 -1 3 C-0.67 2.01 -0.34 1.02 0 0 Z " fill="#F7D550" transform="translate(402,430)"/>
<path d="M0 0 C0.33 0 0.66 0 1 0 C1.31653532 6.01417116 0.53477977 9.44298281 -2 15 C-2.34146115 16.55642757 -2.6531325 18.11963597 -2.9375 19.6875 C-3.70627217 23.53793157 -4.79772216 25.54492032 -8 28 C-7.26990679 21.97416025 -5.30942969 16.37052677 -3.4375 10.625 C-3.10814453 9.60277344 -2.77878906 8.58054687 -2.43945312 7.52734375 C-1.63004122 5.01699378 -0.81678851 2.50795756 0 0 Z " fill="#F4E090" transform="translate(180,291)"/>
<path d="M0 0 C12.87 0 25.74 0 39 0 C39 0.33 39 0.66 39 1 C21.675 1.99 21.675 1.99 4 3 C4.33 3.66 4.66 4.32 5 5 C2.525 4.01 2.525 4.01 0 3 C0 2.01 0 1.02 0 0 Z " fill="#FAF4CF" transform="translate(43,178)"/>
<path d="M0 0 C14.85 0 29.7 0 45 0 C44.67 1.32 44.34 2.64 44 4 C41.4375 5.25 41.4375 5.25 39 6 C39.33 4.68 39.66 3.36 40 2 C20.2 1.505 20.2 1.505 0 1 C0 0.67 0 0.34 0 0 Z " fill="#F5E09F" transform="translate(451,179)"/>
<path d="M0 0 C3.15442346 4.73163519 4.46228642 10.11058934 6.1875 15.5 C6.56841797 16.65371094 6.94933594 17.80742187 7.34179688 18.99609375 C7.87450195 20.65318359 7.87450195 20.65318359 8.41796875 22.34375 C8.74563232 23.35630859 9.0732959 24.36886719 9.41088867 25.41210938 C10 28 10 28 9 31 C6.23776722 28.23776722 6.42143709 25.79293383 6 22 C5.34 22 4.68 22 4 22 C3.87882812 21.20335937 3.75765625 20.40671875 3.6328125 19.5859375 C2.7794613 14.19013224 1.80839937 9.16685534 0 4 C0 2.68 0 1.36 0 0 Z " fill="#F6E79E" transform="translate(367,313)"/>
<path d="M0 0 C2.87702145 4.31553218 4.07353562 9.0150693 5.625 13.9375 C5.94984375 14.93974609 6.2746875 15.94199219 6.609375 16.97460938 C6.91617187 17.94076172 7.22296875 18.90691406 7.5390625 19.90234375 C7.81959473 20.78398193 8.10012695 21.66562012 8.38916016 22.57397461 C9 25 9 25 9 29 C8.34 29 7.68 29 7 29 C6.82984375 28.32195312 6.6596875 27.64390625 6.484375 26.9453125 C5.21367839 22.06529679 3.83377023 17.43768419 1.8125 12.8125 C-0.08922281 8.29319675 -0.36065909 4.86889776 0 0 Z " fill="#F5E59E" transform="translate(311,139)"/>
<path d="M0 0 C0 0.66 0 1.32 0 2 C-0.99 2.66 -1.98 3.32 -3 4 C-2.34 4.66 -1.68 5.32 -1 6 C-0.47018981 9.97357645 -0.68118526 11.54170381 -3 14.875 C-3.66 15.57625 -4.32 16.2775 -5 17 C-4.86980469 16.40832031 -4.73960937 15.81664062 -4.60546875 15.20703125 C-4.17271677 12.72780728 -3.88212811 10.51740673 -4 8 C-6.25057567 4.91201326 -6.25057567 4.91201326 -9 3 C-5.55930376 0.70620251 -4.27709699 0 0 0 Z " fill="#F7DD76" transform="translate(186,274)"/>
<path d="M0 0 C-2.59923719 1.98570826 -5.20519293 3.96240325 -7.8125 5.9375 C-8.91948242 6.78344727 -8.91948242 6.78344727 -10.04882812 7.64648438 C-10.76103516 8.18466797 -11.47324219 8.72285156 -12.20703125 9.27734375 C-12.8616333 9.77484131 -13.51623535 10.27233887 -14.19067383 10.78491211 C-16 12 -16 12 -19 13 C-19 12.34 -19 11.68 -19 11 C-18.01 10.34 -17.02 9.68 -16 9 C-15.27617533 6.94074861 -15.27617533 6.94074861 -15 5 C-13.02 4.67 -11.04 4.34 -9 4 C-8.67 3.01 -8.34 2.02 -8 1 C-4.68510482 -0.74468167 -3.63361056 -1.21120352 0 0 Z " fill="#F4E28F" transform="translate(187,407)"/>
<path d="M0 0 C2.31 0.33 4.62 0.66 7 1 C7 1.99 7 2.98 7 4 C8.32 4 9.64 4 11 4 C14.12444429 6.67809511 16.43977363 9.17035345 18 13 C13.35075551 11.46776311 9.97883359 8.92576405 6.1875 5.9375 C5.2912793 5.24817383 5.2912793 5.24817383 4.37695312 4.54492188 C2.89532936 3.39179526 1.44456694 2.19922322 0 1 C0 0.67 0 0.34 0 0 Z " fill="#F3E191" transform="translate(137,248)"/>
<path d="M0 0 C0.33 0 0.66 0 1 0 C1 2.31 1 4.62 1 7 C0.34 7 -0.32 7 -1 7 C-1.09796875 8.13179688 -1.1959375 9.26359375 -1.296875 10.4296875 C-1.44693781 11.91155778 -1.59803321 13.39332376 -1.75 14.875 C-1.811875 15.62136719 -1.87375 16.36773437 -1.9375 17.13671875 C-2.171875 19.3046875 -2.171875 19.3046875 -3 23 C-5.078125 24.5078125 -5.078125 24.5078125 -7 25 C-6.38574623 19.2073537 -4.84466956 14.05390934 -2.9375 8.5625 C-2.65583984 7.73556641 -2.37417969 6.90863281 -2.08398438 6.05664062 C-1.39482208 4.03587662 -0.6981769 2.01766718 0 0 Z " fill="#F3E093" transform="translate(171,319)"/>
<path d="M0 0 C2.53591435 3.80387153 3.74620428 7.68628669 5.1875 12 C5.47302734 12.81984375 5.75855469 13.6396875 6.05273438 14.484375 C6.31763672 15.27328125 6.58253906 16.0621875 6.85546875 16.875 C7.09934326 17.59429687 7.34321777 18.31359375 7.59448242 19.0546875 C8 21 8 21 7 24 C5.74335022 21.09399739 5 19.20395416 5 16 C4.01 16 3.02 16 2 16 C0.40837921 10.42932723 -0.20674944 5.78898419 0 0 Z " fill="#F6E7A0" transform="translate(359,288)"/>
<path d="M0 0 C-2.61915387 2.00775098 -5.24624446 4.00484195 -7.875 6 C-8.62136719 6.57234375 -9.36773437 7.1446875 -10.13671875 7.734375 C-10.85214844 8.27578125 -11.56757813 8.8171875 -12.3046875 9.375 C-12.96452637 9.87773437 -13.62436523 10.38046875 -14.30419922 10.8984375 C-16 12 -16 12 -18 12 C-18 11.34 -18 10.68 -18 10 C-17.34 9.67 -16.68 9.34 -16 9 C-15.67 8.01 -15.34 7.02 -15 6 C-13.68 6 -12.36 6 -11 6 C-11 5.34 -11 4.68 -11 4 C-10.01 4 -9.02 4 -8 4 C-8 3.01 -8 2.02 -8 1 C-2.25 -1.125 -2.25 -1.125 0 0 Z " fill="#F6E494" transform="translate(268,348)"/>
<path d="M0 0 C5.45692884 1.05617978 5.45692884 1.05617978 8 2 C9.1875 4 9.1875 4 10 6 C10.804375 6.309375 11.60875 6.61875 12.4375 6.9375 C15.69589041 8.28853992 16.45475325 9.9095065 18 13 C13.35075551 11.46776311 9.97883359 8.92576405 6.1875 5.9375 C5.2912793 5.24817383 5.2912793 5.24817383 4.37695312 4.54492188 C2.89532936 3.39179526 1.44456694 2.19922322 0 1 C0 0.67 0 0.34 0 0 Z " fill="#F3E196" transform="translate(310,374)"/>
<path d="M0 0 C0.33 0 0.66 0 1 0 C0.85866501 1.77119803 0.71176792 3.54195287 0.5625 5.3125 C0.48128906 6.29863281 0.40007812 7.28476563 0.31640625 8.30078125 C0 11 0 11 -1 14 C-1.66 14 -2.32 14 -3 14 C-3.33 16.64 -3.66 19.28 -4 22 C-4.66 22 -5.32 22 -6 22 C-5.40421223 16.73378394 -4.18691204 12.05591981 -2.4375 7.0625 C-2.20353516 6.37865234 -1.96957031 5.69480469 -1.72851562 4.99023438 C-1.15788171 3.32491499 -0.57972902 1.66217507 0 0 Z " fill="#F7E6A4" transform="translate(241,102)"/>
<path d="M0 0 C0.33 0 0.66 0 1 0 C1 3.63 1 7.26 1 11 C0.01 11 -0.98 11 -2 11 C-2 12.65 -2 14.3 -2 16 C-2.66 16 -3.32 16 -4 16 C-4.33 16.99 -4.66 17.98 -5 19 C-4.39297368 12.3227105 -2.22368606 6.29872004 0 0 Z " fill="#F5E390" transform="translate(234,124)"/>
<path d="M0 0 C1.98 0 3.96 0 6 0 C2.83047153 3.26008643 -0.39937989 6.22237877 -4 9 C-4.66 8.67 -5.32 8.34 -6 8 C-5.67 6.68 -5.34 5.36 -5 4 C-3.35 3.67 -1.7 3.34 0 3 C0 2.01 0 1.02 0 0 Z " fill="#F6E184" transform="translate(160,421)"/>
<path d="M0 0 C0.66 0.33 1.32 0.66 2 1 C-1.96 3.97 -5.92 6.94 -10 10 C-10.66 9.67 -11.32 9.34 -12 9 C-11.34 7.02 -10.68 5.04 -10 3 C-8.35 3.33 -6.7 3.66 -5 4 C-5 3.34 -5 2.68 -5 2 C-2.625 0.9375 -2.625 0.9375 0 0 Z " fill="#F7E4A0" transform="translate(406,245)"/>
<path d="M0 0 C1.15542253 3.88821192 0.60322712 5.86053447 -0.8125 9.6875 C-2.61447275 14.76918787 -3.94331935 19.71659673 -5 25 C-5.66 25 -6.32 25 -7 25 C-6.38574623 19.2073537 -4.84466956 14.05390934 -2.9375 8.5625 C-2.65583984 7.73556641 -2.37417969 6.90863281 -2.08398438 6.05664062 C-1.39482208 4.03587662 -0.6981769 2.01766718 0 0 Z " fill="#F8EBA7" transform="translate(267,22)"/>
<path d="M0 0 C1.12377697 3.30435084 0.89554742 5.0506862 -0.4375 8.25 C-0.72496094 8.95640625 -1.01242188 9.6628125 -1.30859375 10.390625 C-1.53675781 10.92171875 -1.76492187 11.4528125 -2 12 C-0.02 11.67 1.96 11.34 4 11 C-0.625 15.875 -0.625 15.875 -4 17 C-5 15 -5 15 -4.00390625 11.5234375 C-3.53099953 10.13802064 -3.05018356 8.75528453 -2.5625 7.375 C-2.31951172 6.66859375 -2.07652344 5.9621875 -1.82617188 5.234375 C-1.22412795 3.48726713 -0.61291983 1.74332214 0 0 Z " fill="#F6E7AF" transform="translate(135,430)"/>
<path d="M0 0 C1.26823485 3.65393537 0.75715321 6.49070026 0.0625 10.25 C-0.13214844 11.32765625 -0.32679688 12.4053125 -0.52734375 13.515625 C-0.76130859 14.74539063 -0.76130859 14.74539063 -1 16 C-1.66 16 -2.32 16 -3 16 C-3.12375 16.639375 -3.2475 17.27875 -3.375 17.9375 C-3.58125 18.618125 -3.7875 19.29875 -4 20 C-4.66 20.33 -5.32 20.66 -6 21 C-4.11380178 13.96354423 -2.13072305 6.96640656 0 0 Z " fill="#F7E69E" transform="translate(142,408)"/>
<path d="M0 0 C2.31 0.33 4.62 0.66 7 1 C4.17589976 3.92869654 1.27847819 6.58427923 -2 9 C-2.66 9 -3.32 9 -4 9 C-3.25 4.25 -3.25 4.25 -1 2 C-0.67 1.34 -0.34 0.68 0 0 Z " fill="#F4E084" transform="translate(143,432)"/>
<path d="M0 0 C0.93619813 3.15506142 1.1057123 5.96586502 1.0625 9.25 C1.05347656 10.14203125 1.04445313 11.0340625 1.03515625 11.953125 C1.02355469 12.62859375 1.01195312 13.3040625 1 14 C-0.32 13.67 -1.64 13.34 -3 13 C-3.33 13.66 -3.66 14.32 -4 15 C-2.07289294 4.44191344 -2.07289294 4.44191344 0 0 Z " fill="#F5E08F" transform="translate(259,47)"/>
<path d="M0 0 C1.86610926 2.79916389 2.68785383 4.81938269 3.625 8 C4.01558594 9.299375 4.01558594 9.299375 4.4140625 10.625 C5 13 5 13 5 16 C4.01 15.67 3.02 15.34 2 15 C0.00813631 9.86308839 -0.1921227 5.47549707 0 0 Z " fill="#F7E59C" transform="translate(299,102)"/>
<path d="M0 0 C1.09141134 3.25958421 0.9119066 5.00172169 -0.3125 8.1875 C-1.95699547 12.72872144 -3.04953902 17.27005887 -4 22 C-4.66 22 -5.32 22 -6 22 C-5.40421223 16.73378394 -4.18691204 12.05591981 -2.4375 7.0625 C-2.20353516 6.37865234 -1.96957031 5.69480469 -1.72851562 4.99023438 C-1.15788171 3.32491499 -0.57972902 1.66217507 0 0 Z " fill="#F8EBA9" transform="translate(254,62)"/>
<path d="M0 0 C1.32 0.33 2.64 0.66 4 1 C2.40012144 2.31772362 0.79494034 3.62901137 -0.8125 4.9375 C-1.70582031 5.66839844 -2.59914063 6.39929688 -3.51953125 7.15234375 C-6 9 -6 9 -9 10 C-9 9.01 -9 8.02 -9 7 C-8.01 6.67 -7.02 6.34 -6 6 C-5.67 5.01 -5.34 4.02 -5 3 C-3.67696283 2.6278958 -2.34262065 2.29369827 -1 2 C-0.67 1.34 -0.34 0.68 0 0 Z " fill="#F3E399" transform="translate(449,212)"/>
<path d="M0 0 C1.32 0.66 2.64 1.32 4 2 C4 3.65 4 5.3 4 7 C0.31245243 6.50168276 -1.60490662 5.89932357 -4 3 C-3.01 3 -2.02 3 -1 3 C-0.67 2.01 -0.34 1.02 0 0 Z " fill="#F5DB6D" transform="translate(57,184)"/>
<path d="M0 0 C1.17173738 3.71325226 0.58571017 6.2127079 -0.453125 9.9609375 C-1.1643254 12.61269901 -1.59304536 15.28696908 -2 18 C-2.99 18 -3.98 18 -5 18 C-3.75971762 11.82777121 -2.10396411 5.93317878 0 0 Z " fill="#F5E59B" transform="translate(247,84)"/>
<path d="M0 0 C0.5 2 0.5 2 1 4 C1.226875 4.66 1.45375 5.32 1.6875 6 C2.10759237 8.68859118 1.54800203 9.78856853 0 12 C-1.31355617 12.70483502 -2.64584902 13.37670444 -4 14 C-3.52188823 12.22888156 -3.0424722 10.45811517 -2.5625 8.6875 C-2.29566406 7.70136719 -2.02882812 6.71523438 -1.75390625 5.69921875 C-1.21920575 3.78482474 -0.62855462 1.88566385 0 0 Z " fill="#F6E28A" transform="translate(163,344)"/>
<path d="M0 0 C-0.33 0.99 -0.66 1.98 -1 3 C0.65 4.65 2.3 6.3 4 8 C0.41584854 8 -0.41203739 7.21108216 -3.1875 5.0625 C-3.90292969 4.51722656 -4.61835938 3.97195313 -5.35546875 3.41015625 C-5.89816406 2.94480469 -6.44085938 2.47945313 -7 2 C-7 1.67 -7 1.34 -7 1 C-2.25 0 -2.25 0 0 0 Z " fill="#F4E18C" transform="translate(173,268)"/>
<path d="M0 0 C2.00406482 3.00609722 3.03076258 5.59242695 4.1875 9 C4.55230469 10.051875 4.91710937 11.10375 5.29296875 12.1875 C6 15 6 15 5 18 C5 17.34 5 16.68 5 16 C4.01 15.67 3.02 15.34 2 15 C1.66223316 13.2508503 1.32996329 11.50063855 1 9.75 C0.814375 8.77546875 0.62875 7.8009375 0.4375 6.796875 C0 4 0 4 0 0 Z " fill="#F6E6A3" transform="translate(293,84)"/>
<path d="M0 0 C1.32 0.33 2.64 0.66 4 1 C-2.435 5.95 -2.435 5.95 -9 11 C-9.66 10.67 -10.32 10.34 -11 10 C-8.62015568 6.16580638 -5.98617027 4.95067907 -2 3 C-1.34 2.01 -0.68 1.02 0 0 Z " fill="#F5E29D" transform="translate(379,263)"/>
<path d="M0 0 C3.12501639 0.37294434 6.06418547 0.84070212 9 2 C10.5625 5.125 10.5625 5.125 11 8 C6.40378078 6.5129879 3.53027653 4.20187872 0 1 C0 0.67 0 0.34 0 0 Z " fill="#F6E58F" transform="translate(107,226)"/>
<path d="M0 0 C2.00993705 3.01490557 2.72623341 5.2149927 3.625 8.6875 C3.88539063 9.68136719 4.14578125 10.67523438 4.4140625 11.69921875 C4.60742188 12.45847656 4.80078125 13.21773437 5 14 C0.17970402 10.26427061 0.17970402 10.26427061 -0.33203125 6.6640625 C-0.31436669 4.4241967 -0.21850902 2.22879201 0 0 Z " fill="#F3E593" transform="translate(279,41)"/>
<path d="M0 0 C0.66 0 1.32 0 2 0 C2 0.66 2 1.32 2 2 C3.65 2.33 5.3 2.66 7 3 C7 4.65 7 6.3 7 8 C3.63408134 6.55746343 1.48952921 4.66735273 -1 2 C-0.67 1.34 -0.34 0.68 0 0 Z " fill="#F4DE81" transform="translate(296,361)"/>
<path d="M0 0 C4.83766699 0.41465717 6.85646376 2.4198615 10 6 C10.33 6.66 10.66 7.32 11 8 C6.99698968 6.23867546 3.3971023 3.73867517 0 1 C0 0.67 0 0.34 0 0 Z " fill="#F4DF95" transform="translate(155,261)"/>
<path d="M0 0 C3 1 3 1 4.25 3.3125 C5.0275526 6.09873015 4.98726527 7.33438378 4 10 C3.67 8.35 3.34 6.7 3 5 C2.01 5 1.02 5 0 5 C-0.33 5.66 -0.66 6.32 -1 7 C-0.67 4.69 -0.34 2.38 0 0 Z " fill="#F4E6B4" transform="translate(269,15)"/>
<path d="M0 0 C5.37305699 0.88082902 5.37305699 0.88082902 8 2 C10 5.125 10 5.125 11 8 C6.99698968 6.23867546 3.3971023 3.73867517 0 1 C0 0.67 0 0.34 0 0 Z " fill="#F6E898" transform="translate(284,355)"/>
<path d="M0 0 C1.65 0 3.3 0 5 0 C3.7625 1.051875 3.7625 1.051875 2.5 2.125 C-0.30423396 4.78627227 -0.30423396 4.78627227 -0.3125 8.3125 C-0.209375 9.199375 -0.10625 10.08625 0 11 C-0.66 10.34 -1.32 9.68 -2 9 C-1.45652174 2.91304348 -1.45652174 2.91304348 0 0 Z " fill="#F6E59B" transform="translate(359,277)"/>
<path d="M0 0 C-4.455 3.465 -4.455 3.465 -9 7 C-9.66 6.67 -10.32 6.34 -11 6 C-6.60180995 0.25791855 -6.60180995 0.25791855 -3.8125 -0.9375 C-2 -1 -2 -1 0 0 Z " fill="#F8E2A2" transform="translate(231,375)"/>
<path d="M0 0 C1.90318884 2.85478326 2.4619099 4.41941308 3.125 7.6875 C3.29257812 8.49574219 3.46015625 9.30398437 3.6328125 10.13671875 C3.75398438 10.75160156 3.87515625 11.36648437 4 12 C3.67 11.34 3.34 10.68 3 10 C2.34 10 1.68 10 1 10 C-0.60725635 6.78548731 -0.05748185 3.56387464 0 0 Z " fill="#F7E79B" transform="translate(284,56)"/>
<path d="M0 0 C2.875 0.1875 2.875 0.1875 6 1 C7.375 3.5625 7.375 3.5625 8 6 C4.63408134 4.55746343 2.48952921 2.66735273 0 0 Z " fill="#F6E590" transform="translate(361,411)"/>
<path d="M0 0 C0.99 0.33 1.98 0.66 3 1 C3.36630156 4.93774177 3.30233203 6.56539771 1 9.875 C0.34 10.57625 -0.32 11.2775 -1 12 C-0.10638298 6.38297872 -0.10638298 6.38297872 0.625 3.75 C1.2114853 1.9023914 1.2114853 1.9023914 0 0 Z " fill="#F2DF87" transform="translate(182,279)"/>
<path d="M0 0 C2.125 0.9375 2.125 0.9375 4 2 C2.35 3.32 0.7 4.64 -1 6 C-1.66 5.67 -2.32 5.34 -3 5 C-2.625 3.0625 -2.625 3.0625 -2 1 C-1.34 0.67 -0.68 0.34 0 0 Z " fill="#F6E595" transform="translate(411,239)"/>
<path d="M0 0 C2.3125 0.1875 2.3125 0.1875 5 1 C6.8125 3.5625 6.8125 3.5625 8 6 C4.08597051 4.73058503 2.20927127 3.48832306 0 0 Z " fill="#F5E491" transform="translate(379,424)"/>
<path d="M0 0 C1.98 0 3.96 0 6 0 C4.35 1.65 2.7 3.3 1 5 C0.34 4.67 -0.32 4.34 -1 4 C-0.67 2.68 -0.34 1.36 0 0 Z " fill="#F4E193" transform="translate(428,226)"/>
<path d="M0 0 C2.875 0.1875 2.875 0.1875 6 1 C7.375 3.5625 7.375 3.5625 8 6 C4.63408134 4.55746343 2.48952921 2.66735273 0 0 Z " fill="#F4E590" transform="translate(99,220)"/>
<path d="M0 0 C0.33 0 0.66 0 1 0 C1.08096803 1.45742463 1.13917774 2.91612807 1.1875 4.375 C1.22230469 5.18710938 1.25710937 5.99921875 1.29296875 6.8359375 C1.19628906 7.55007812 1.09960938 8.26421875 1 9 C0.01 9.66 -0.98 10.32 -2 11 C-1.125 3.375 -1.125 3.375 0 0 Z " fill="#F1D75C" transform="translate(230,140)"/>
<path d="M0 0 C5.66153846 1.47692308 5.66153846 1.47692308 7.375 4.125 C7.684375 5.053125 7.684375 5.053125 8 6 C4.08597051 4.73058503 2.20927127 3.48832306 0 0 Z " fill="#F2E399" transform="translate(394,435)"/>
<path d="M0 0 C2.3125 0.1875 2.3125 0.1875 5 1 C6.8125 3.5625 6.8125 3.5625 8 6 C4.63408134 4.55746343 2.48952921 2.66735273 0 0 Z " fill="#F6E795" transform="translate(276,349)"/>
<path d="M0 0 C5.66153846 1.47692308 5.66153846 1.47692308 7.375 4.125 C7.684375 5.053125 7.684375 5.053125 8 6 C4.08597051 4.73058503 2.20927127 3.48832306 0 0 Z " fill="#F5E3A4" transform="translate(129,242)"/>
<path d="M0 0 C2.3125 0.1875 2.3125 0.1875 5 1 C6.8125 3.5625 6.8125 3.5625 8 6 C4.63408134 4.55746343 2.48952921 2.66735273 0 0 Z " fill="#F5E99A" transform="translate(85,210)"/>
<path d="M0 0 C0.33 0 0.66 0 1 0 C1 1.65 1 3.3 1 5 C0.34 5 -0.32 5 -1 5 C-1.33 6.32 -1.66 7.64 -2 9 C-3 7 -3 7 -2.125 3.9375 C-1 1 -1 1 0 0 Z " fill="#F1D568" transform="translate(138,427)"/>
<path d="M0 0 C1.32 0.66 2.64 1.32 4 2 C2.68 3.65 1.36 5.3 0 7 C-0.66 6.67 -1.32 6.34 -2 6 C-1.34 4.02 -0.68 2.04 0 0 Z " fill="#F5DE77" transform="translate(396,248)"/>
<path d="M0 0 C2.97 0.495 2.97 0.495 6 1 C6.33 2.32 6.66 3.64 7 5 C3.34683329 3.75023244 2.21934164 3.32901247 0 0 Z " fill="#F6E296" transform="translate(118,234)"/>
<path d="M0 0 C3.65316671 1.24976756 4.78065836 1.67098753 7 5 C4.625 4.75 4.625 4.75 2 4 C0.6875 1.9375 0.6875 1.9375 0 0 Z " fill="#F0DE7E" transform="translate(73,200)"/>
<path d="M0 0 C2.29633824 3.44450737 2.54016485 5.93812283 3 10 C2.67 9.34 2.34 8.68 2 8 C1.34 8 0.68 8 0 8 C0 5.36 0 2.72 0 0 Z " fill="#F8E8A8" transform="translate(276,31)"/>
</svg>
