<svg width="24" height="24" viewBox="0 0 24 24" fill="none" xmlns="http://www.w3.org/2000/svg">
<path d="M12 22.6071C11.7024 22.6068 11.4098 22.5304 11.15 22.3851L7.78 20.5131C6.10454 19.5816 4.70845 18.2193 3.73619 16.5672C2.76393 14.915 2.25083 13.0331 2.25 11.1161V5.9201C2.24995 5.48772 2.41024 5.07069 2.69988 4.74966C2.98951 4.42862 3.3879 4.2264 3.818 4.1821C5.15883 4.03998 6.47845 3.74162 7.75 3.2931C8.91583 2.88099 10.0342 2.34527 11.086 1.6951C11.3611 1.52673 11.6774 1.43762 12 1.43762C12.3226 1.43762 12.6389 1.52673 12.914 1.6951C13.9659 2.34509 15.0842 2.8808 16.25 3.2931C17.5216 3.74162 18.8412 4.03998 20.182 4.1821C20.6121 4.2264 21.0105 4.42862 21.3001 4.74966C21.5898 5.07069 21.75 5.48772 21.75 5.9201V11.1161C21.7492 13.0331 21.2361 14.915 20.2638 16.5672C19.2916 18.2193 17.8955 19.5816 16.22 20.5131L12.85 22.3861C12.5902 22.5311 12.2976 22.6072 12 22.6071ZM12 2.9371C11.956 2.93671 11.9127 2.94848 11.875 2.9711C10.732 3.67756 9.51675 4.25987 8.25 4.7081C6.86825 5.19578 5.43416 5.51999 3.977 5.6741C3.9151 5.67936 3.85743 5.70766 3.8154 5.7534C3.77337 5.79913 3.75003 5.85898 3.75 5.9211V11.1171C3.75054 12.7666 4.19192 14.386 5.02846 15.8077C5.865 17.2293 7.06629 18.4016 8.508 19.2031L11.878 21.0751C11.9149 21.0959 11.9566 21.1068 11.999 21.1068C12.0414 21.1068 12.0831 21.0959 12.12 21.0751L15.492 19.2031C16.9337 18.4016 18.135 17.2293 18.9715 15.8077C19.8081 14.386 20.2495 12.7666 20.25 11.1171V5.9201C20.25 5.85798 20.2266 5.79813 20.1846 5.7524C20.1426 5.70666 20.0849 5.67836 20.023 5.6731C18.5658 5.51899 17.1317 5.19478 15.75 4.7071C14.4833 4.2595 13.2681 3.67787 12.125 2.9721C12.0874 2.94893 12.0441 2.9368 12 2.9371Z" fill="#2DACD4"/>
<path d="M11.5001 14.2501C11.3164 14.2503 11.139 14.1826 11.0021 14.0601L8.75209 12.0601C8.61258 11.9257 8.53049 11.7425 8.52302 11.5489C8.51555 11.3554 8.58328 11.1664 8.71201 11.0216C8.84075 10.8768 9.02052 10.7875 9.21365 10.7723C9.40678 10.7571 9.5983 10.8173 9.74809 10.9401L11.4521 12.4541L14.7031 8.98712C14.77 8.91361 14.8509 8.85414 14.941 8.81217C15.0312 8.7702 15.1287 8.74657 15.2281 8.74265C15.3274 8.73873 15.4266 8.7546 15.5197 8.78934C15.6129 8.82408 15.6982 8.877 15.7707 8.94501C15.8432 9.01302 15.9015 9.09477 15.9421 9.18551C15.9828 9.27624 16.005 9.37415 16.0074 9.47354C16.0099 9.57293 15.9925 9.67182 15.9564 9.76445C15.9203 9.85708 15.8662 9.94161 15.7971 10.0131L12.0471 14.0131C11.9771 14.0881 11.8924 14.1478 11.7983 14.1886C11.7042 14.2293 11.6027 14.2503 11.5001 14.2501Z" fill="#2DACD4"/>
</svg>
