<svg width="16" height="16" viewBox="0 0 16 16" fill="none" xmlns="http://www.w3.org/2000/svg">
<g clip-path="url(#clip0_1_4646)">
<path d="M6.10208 3.60537C6.94674 2.09071 7.36874 1.33337 8.00008 1.33337C8.63141 1.33337 9.05341 2.09071 9.89808 3.60537L10.1167 3.99737C10.3567 4.42804 10.4767 4.64337 10.6634 4.78537C10.8501 4.92737 11.0834 4.98004 11.5501 5.08537L11.9741 5.18137C13.6141 5.55271 14.4334 5.73804 14.6287 6.36537C14.8234 6.99204 14.2647 7.64604 13.1467 8.95337L12.8574 9.29137C12.5401 9.66271 12.3807 9.84871 12.3094 10.078C12.2381 10.308 12.2621 10.556 12.3101 11.0514L12.3541 11.5027C12.5227 13.2474 12.6074 14.1194 12.0967 14.5067C11.5861 14.8947 10.8181 14.5407 9.28341 13.834L8.88541 13.6514C8.44941 13.45 8.23141 13.35 8.00008 13.35C7.76874 13.35 7.55074 13.45 7.11474 13.6514L6.71741 13.834C5.18208 14.5407 4.41408 14.894 3.90408 14.5074C3.39274 14.1194 3.47741 13.2474 3.64608 11.5027L3.69008 11.052C3.73808 10.556 3.76208 10.308 3.69008 10.0787C3.61941 9.84871 3.46008 9.66271 3.14274 9.29204L2.85341 8.95337C1.73541 7.64671 1.17674 6.99271 1.37141 6.36537C1.56674 5.73804 2.38674 5.55204 4.02674 5.18137L4.45074 5.08537C4.91674 4.98004 5.14941 4.92737 5.33674 4.78537C5.52341 4.64337 5.64341 4.42804 5.88341 3.99737L6.10208 3.60537Z" stroke="#44AECA" stroke-width="1.5"/>
</g>
<defs>
<clipPath id="clip0_1_4646">
<rect width="16" height="16" fill="white"/>
</clipPath>
</defs>
</svg>
